G04 #@! TF.FileFunction,Copper,L1,Top,Signal*
%FSLAX46Y46*%
G04 Gerber Fmt 4.6, Leading zero omitted, Abs format (unit mm)*
G04 Created by KiCad (PCBNEW 4.0.7-e2-6376~58~ubuntu16.04.1) date Thu Oct 19 04:39:58 2017*
%MOMM*%
%LPD*%
G01*
G04 APERTURE LIST*
%ADD10C,0.100000*%
%ADD11C,0.600000*%
%ADD12R,0.750000X1.200000*%
%ADD13R,1.200000X0.750000*%
%ADD14R,1.380000X0.450000*%
%ADD15R,2.100000X1.475000*%
%ADD16R,1.900000X2.375000*%
%ADD17R,1.900000X1.175000*%
%ADD18R,3.000000X2.000000*%
%ADD19R,1.500000X1.300000*%
%ADD20O,0.900000X2.500000*%
%ADD21O,2.500000X0.900000*%
%ADD22R,6.000000X6.000000*%
%ADD23R,0.900000X1.200000*%
%ADD24R,1.200000X0.900000*%
%ADD25C,1.000000*%
%ADD26R,0.650000X1.560000*%
%ADD27R,1.270000X0.406400*%
%ADD28O,2.720000X5.510000*%
%ADD29R,1.500000X0.400000*%
%ADD30R,0.990600X0.812800*%
%ADD31R,0.711200X1.752600*%
%ADD32C,0.250000*%
%ADD33C,0.600000*%
%ADD34C,0.800000*%
%ADD35C,0.200000*%
G04 APERTURE END LIST*
D10*
D11*
X168315300Y-111143300D03*
X173847000Y-92871000D03*
X172747000Y-91746000D03*
X171147000Y-91421000D03*
X141147000Y-105346000D03*
X130347000Y-95846000D03*
X130647000Y-97946000D03*
X160515300Y-111493300D03*
X139446000Y-107569000D03*
X140652500Y-101447600D03*
X131047000Y-105946000D03*
X130708400Y-104013000D03*
X131047000Y-101946000D03*
X129147000Y-99746000D03*
X128247000Y-97146000D03*
X136817100Y-100711000D03*
X136791700Y-102768400D03*
X137896600Y-103797100D03*
X135699500Y-103771700D03*
X137858500Y-101676200D03*
X137833100Y-99606100D03*
X135686800Y-101650800D03*
X135661400Y-99606100D03*
D12*
X160528000Y-109154000D03*
X160528000Y-107254000D03*
D13*
X173212800Y-103098600D03*
X171312800Y-103098600D03*
D12*
X154025600Y-108544400D03*
X154025600Y-106644400D03*
D13*
X172031700Y-99669600D03*
X170131700Y-99669600D03*
X172031700Y-101485700D03*
X170131700Y-101485700D03*
X157287000Y-100330000D03*
X155387000Y-100330000D03*
X157287000Y-101854000D03*
X155387000Y-101854000D03*
D12*
X148957000Y-92436000D03*
X148957000Y-94336000D03*
D13*
X148021000Y-108458000D03*
X149921000Y-108458000D03*
D12*
X148463000Y-104714000D03*
X148463000Y-106614000D03*
D13*
X149844800Y-110959900D03*
X147944800Y-110959900D03*
D14*
X175571800Y-102646000D03*
X175571800Y-101996000D03*
X175571800Y-101346000D03*
X175571800Y-100696000D03*
X175571800Y-100046000D03*
D15*
X175931800Y-103808500D03*
X175931800Y-98883500D03*
D16*
X178231800Y-104256000D03*
X178231800Y-98436000D03*
D17*
X178231800Y-102186000D03*
X178231800Y-100506000D03*
D18*
X164447000Y-110846000D03*
X164447000Y-107846000D03*
D19*
X173739800Y-111188500D03*
X171039800Y-111188500D03*
D20*
X127973000Y-92346000D03*
X129243000Y-92346000D03*
X130513000Y-92346000D03*
X131783000Y-92346000D03*
X133053000Y-92346000D03*
X134323000Y-92346000D03*
X135593000Y-92346000D03*
X136863000Y-92346000D03*
X138133000Y-92346000D03*
X139403000Y-92346000D03*
X140673000Y-92346000D03*
X141943000Y-92346000D03*
X143213000Y-92346000D03*
X144483000Y-92346000D03*
D21*
X145973000Y-95631000D03*
X145973000Y-96901000D03*
X145973000Y-98171000D03*
X145973000Y-99441000D03*
X145973000Y-100711000D03*
X145973000Y-101981000D03*
X145973000Y-103251000D03*
X145973000Y-104521000D03*
X145973000Y-105791000D03*
X145973000Y-107061000D03*
D20*
X144483000Y-110346000D03*
X143213000Y-110346000D03*
X141943000Y-110346000D03*
X140673000Y-110346000D03*
X139403000Y-110346000D03*
X138133000Y-110346000D03*
X136863000Y-110346000D03*
X135593000Y-110346000D03*
X134323000Y-110346000D03*
X133053000Y-110346000D03*
X131783000Y-110346000D03*
X130513000Y-110346000D03*
X129243000Y-110346000D03*
X127973000Y-110346000D03*
D22*
X135673000Y-101646000D03*
D23*
X150495000Y-104564000D03*
X150495000Y-106764000D03*
X169011600Y-95394600D03*
X169011600Y-97594600D03*
X169214800Y-106789400D03*
X169214800Y-104589400D03*
D24*
X149395000Y-102616000D03*
X151595000Y-102616000D03*
X151595000Y-97790000D03*
X149395000Y-97790000D03*
D23*
X152222200Y-108780400D03*
X152222200Y-110980400D03*
D24*
X154997000Y-111121000D03*
X157197000Y-111121000D03*
D25*
X164195760Y-98806000D03*
X164195760Y-103886000D03*
X166735760Y-101346000D03*
D26*
X158422000Y-106271000D03*
X157472000Y-106271000D03*
X156522000Y-106271000D03*
X156522000Y-108971000D03*
X158422000Y-108971000D03*
X157472000Y-108971000D03*
D27*
X153670000Y-92075000D03*
X153670000Y-92710000D03*
X153670000Y-93370400D03*
X153670000Y-94030800D03*
X153670000Y-94665800D03*
X153670000Y-95326200D03*
X153670000Y-95986600D03*
X153670000Y-96621600D03*
X153670000Y-97282000D03*
X153670000Y-97917000D03*
X159004000Y-97917000D03*
X159004000Y-97282000D03*
X159004000Y-96621600D03*
X159004000Y-95986600D03*
X159004000Y-95326200D03*
X159004000Y-94665800D03*
X159004000Y-94030800D03*
X159004000Y-93370400D03*
X159004000Y-92710000D03*
X159004000Y-92075000D03*
D28*
X171704000Y-107061000D03*
X171704000Y-95631000D03*
D11*
X158750000Y-111252000D03*
D29*
X152847000Y-100836000D03*
X152847000Y-100186000D03*
X152847000Y-99536000D03*
X150187000Y-99536000D03*
X150187000Y-100186000D03*
X150187000Y-100836000D03*
D30*
X161312100Y-90778100D03*
X161312100Y-92733900D03*
X168601900Y-90778100D03*
X168601900Y-92733900D03*
D31*
X167192200Y-93622900D03*
X162696400Y-93622900D03*
X164195000Y-93622900D03*
D11*
X136232900Y-107670600D03*
X159435800Y-110210600D03*
X155473400Y-106273600D03*
X130124200Y-107619800D03*
X148894800Y-109753400D03*
X173647100Y-100152200D03*
X168198800Y-99415600D03*
X173647100Y-101523800D03*
X168795700Y-103035100D03*
X160887000Y-101876000D03*
X169037000Y-109220000D03*
X160997000Y-95106000D03*
X150507000Y-92386000D03*
X155557000Y-93386000D03*
X143557000Y-103316000D03*
X148727000Y-100856000D03*
X132427000Y-107746000D03*
X145937000Y-108626000D03*
X134277000Y-97166000D03*
X152217000Y-94726000D03*
X135647000Y-95946000D03*
X148137000Y-91146000D03*
X146857000Y-94046000D03*
X141027000Y-94576000D03*
X146277000Y-91046000D03*
X151537000Y-98856000D03*
X141857000Y-98326000D03*
X149397000Y-96546000D03*
X150857000Y-95736000D03*
X155507000Y-95006000D03*
X153767000Y-102646000D03*
X169577000Y-93846000D03*
X162467000Y-95906000D03*
X160647000Y-99576000D03*
X169497000Y-108316000D03*
X164197000Y-95856000D03*
D32*
X177784300Y-103808500D02*
X178231800Y-103361000D01*
X178231800Y-98436000D02*
X177784300Y-98883500D01*
D33*
X167192200Y-93622900D02*
X167192200Y-98180800D01*
X166117000Y-110846000D02*
X164447000Y-110846000D01*
X167537000Y-109426000D02*
X166117000Y-110846000D01*
X167537000Y-105006000D02*
X167537000Y-109426000D01*
X164897000Y-102366000D02*
X167537000Y-105006000D01*
X164897000Y-100476000D02*
X164897000Y-102366000D01*
X167192200Y-98180800D02*
X164897000Y-100476000D01*
D32*
X135593000Y-108310500D02*
X135593000Y-110346000D01*
X136232900Y-107670600D02*
X135593000Y-108310500D01*
X156522000Y-106271000D02*
X155476000Y-106271000D01*
X159410400Y-110185200D02*
X159410400Y-109154000D01*
X159435800Y-110210600D02*
X159410400Y-110185200D01*
X155476000Y-106271000D02*
X155473400Y-106273600D01*
X160394000Y-109154000D02*
X160528000Y-109154000D01*
D33*
X160528000Y-109154000D02*
X159410400Y-109154000D01*
X159410400Y-109154000D02*
X158605000Y-109154000D01*
X158605000Y-109154000D02*
X158422000Y-108971000D01*
D34*
X164447000Y-110846000D02*
X162220000Y-110846000D01*
X162220000Y-110846000D02*
X160528000Y-109154000D01*
D32*
X173739800Y-111188500D02*
X173739800Y-110498900D01*
X173990000Y-103875800D02*
X173212800Y-103098600D01*
X173990000Y-110248700D02*
X173990000Y-103875800D01*
X173739800Y-110498900D02*
X173990000Y-110248700D01*
X173212800Y-103098600D02*
X174053500Y-103098600D01*
X174506100Y-102646000D02*
X175571800Y-102646000D01*
X174053500Y-103098600D02*
X174506100Y-102646000D01*
X173512800Y-102873600D02*
X173212800Y-103098600D01*
X148463000Y-104714000D02*
X150345000Y-104714000D01*
X150345000Y-104714000D02*
X151142600Y-105511600D01*
X151142600Y-105511600D02*
X152222200Y-105511600D01*
X149844800Y-110959900D02*
X149844800Y-110703400D01*
X149844800Y-110703400D02*
X148894800Y-109753400D01*
X129243000Y-108501000D02*
X129243000Y-110346000D01*
X130124200Y-107619800D02*
X129243000Y-108501000D01*
X152222200Y-108780400D02*
X152024300Y-108780400D01*
X152024300Y-108780400D02*
X149844800Y-110959900D01*
D33*
X164195760Y-103886000D02*
X153847800Y-103886000D01*
X153847800Y-103886000D02*
X153225500Y-104508300D01*
X153225500Y-104508300D02*
X152222200Y-105511600D01*
X152222200Y-105511600D02*
X152222200Y-108780400D01*
D32*
X152222200Y-108780400D02*
X153789600Y-108780400D01*
X153789600Y-108780400D02*
X154025600Y-108544400D01*
X154025600Y-108544400D02*
X155133000Y-108544400D01*
X157472000Y-107891200D02*
X157472000Y-108971000D01*
X157200600Y-107619800D02*
X157472000Y-107891200D01*
X156057600Y-107619800D02*
X157200600Y-107619800D01*
X155133000Y-108544400D02*
X156057600Y-107619800D01*
X172031700Y-99669600D02*
X173164500Y-99669600D01*
X173164500Y-99669600D02*
X173647100Y-100152200D01*
X169011600Y-97594600D02*
X169011600Y-98602800D01*
X174840900Y-101346000D02*
X175571800Y-101346000D01*
X173647100Y-100152200D02*
X174840900Y-101346000D01*
X169011600Y-98602800D02*
X168198800Y-99415600D01*
X169011600Y-97594600D02*
X168752700Y-97594600D01*
X172031700Y-101485700D02*
X173609000Y-101485700D01*
X173609000Y-101485700D02*
X173647100Y-101523800D01*
X169214800Y-104589400D02*
X169214800Y-103454200D01*
X169214800Y-103454200D02*
X168795700Y-103035100D01*
X174119300Y-101996000D02*
X175571800Y-101996000D01*
X173647100Y-101523800D02*
X174119300Y-101996000D01*
X172031700Y-101485700D02*
X172031700Y-101564400D01*
X169214800Y-104000300D02*
X169214800Y-104589400D01*
X157287000Y-101854000D02*
X160865000Y-101854000D01*
X160865000Y-101854000D02*
X160887000Y-101876000D01*
X157287000Y-100330000D02*
X157287000Y-95906000D01*
X157866800Y-95326200D02*
X159004000Y-95326200D01*
X157287000Y-95906000D02*
X157866800Y-95326200D01*
X157287000Y-101854000D02*
X157287000Y-100330000D01*
X171039800Y-111188500D02*
X171005500Y-111188500D01*
X171005500Y-111188500D02*
X169037000Y-109220000D01*
X159172400Y-95270600D02*
X159147000Y-95296000D01*
X159004000Y-95986600D02*
X160116400Y-95986600D01*
X160116400Y-95986600D02*
X160997000Y-95106000D01*
X148957000Y-92436000D02*
X150457000Y-92436000D01*
X150457000Y-92436000D02*
X150507000Y-92386000D01*
X155541400Y-93370400D02*
X153670000Y-93370400D01*
X155557000Y-93386000D02*
X155541400Y-93370400D01*
X159004000Y-96621600D02*
X159004000Y-95986600D01*
X145937000Y-108626000D02*
X145107000Y-108626000D01*
X143557000Y-107076000D02*
X143557000Y-103316000D01*
X145107000Y-108626000D02*
X143557000Y-107076000D01*
X148747000Y-100836000D02*
X150187000Y-100836000D01*
X148727000Y-100856000D02*
X148747000Y-100836000D01*
X148021000Y-108458000D02*
X146105000Y-108458000D01*
X130513000Y-108810000D02*
X130513000Y-110346000D01*
X131597000Y-107726000D02*
X130513000Y-108810000D01*
X132407000Y-107726000D02*
X131597000Y-107726000D01*
X132427000Y-107746000D02*
X132407000Y-107726000D01*
X146105000Y-108458000D02*
X145937000Y-108626000D01*
X150495000Y-106764000D02*
X149949000Y-106764000D01*
X149949000Y-106764000D02*
X148255000Y-108458000D01*
X148255000Y-108458000D02*
X148021000Y-108458000D01*
D34*
X164447000Y-107846000D02*
X163599000Y-107846000D01*
D33*
X163599000Y-107846000D02*
X161417000Y-105664000D01*
X159029000Y-105664000D02*
X158422000Y-106271000D01*
X161417000Y-105664000D02*
X159029000Y-105664000D01*
D32*
X164447000Y-107846000D02*
X163345000Y-107846000D01*
X134277000Y-97166000D02*
X131783000Y-94672000D01*
X131783000Y-94672000D02*
X131783000Y-92346000D01*
X152217000Y-94726000D02*
X152912200Y-94030800D01*
X153670000Y-94030800D02*
X152912200Y-94030800D01*
X135647000Y-95946000D02*
X133053000Y-93352000D01*
X148287000Y-90996000D02*
X148137000Y-91146000D01*
X158637000Y-90996000D02*
X148287000Y-90996000D01*
X133053000Y-93352000D02*
X133053000Y-92346000D01*
X133053000Y-93441700D02*
X133053000Y-92346000D01*
X133053000Y-93263900D02*
X133053000Y-92346000D01*
X159004000Y-92075000D02*
X159004000Y-91363000D01*
X159004000Y-91363000D02*
X158637000Y-90996000D01*
X146857000Y-94046000D02*
X146557000Y-94346000D01*
X146557000Y-94346000D02*
X143647000Y-94346000D01*
X143647000Y-94346000D02*
X143213000Y-93912000D01*
X143213000Y-92346000D02*
X143213000Y-93912000D01*
X141027000Y-97496000D02*
X141027000Y-94576000D01*
X146277000Y-91046000D02*
X144977000Y-92346000D01*
X144977000Y-92346000D02*
X144483000Y-92346000D01*
X144501400Y-92327600D02*
X144483000Y-92346000D01*
X152847000Y-99536000D02*
X152217000Y-99536000D01*
X152217000Y-99536000D02*
X151537000Y-98856000D01*
X141857000Y-98326000D02*
X141027000Y-97496000D01*
X149395000Y-97790000D02*
X149395000Y-96548000D01*
X149395000Y-96548000D02*
X149397000Y-96546000D01*
X152528000Y-92075000D02*
X153670000Y-92075000D01*
X152077000Y-92526000D02*
X152528000Y-92075000D01*
X152077000Y-92826000D02*
X152077000Y-92526000D01*
X150877000Y-94026000D02*
X152077000Y-92826000D01*
X150877000Y-95716000D02*
X150877000Y-94026000D01*
X150857000Y-95736000D02*
X150877000Y-95716000D01*
X150187000Y-99536000D02*
X150187000Y-98582000D01*
X150187000Y-98582000D02*
X149395000Y-97790000D01*
X149395000Y-97790000D02*
X149533000Y-97790000D01*
X149395000Y-97790000D02*
X149463000Y-97790000D01*
X152847000Y-100836000D02*
X152847000Y-101726000D01*
X154863000Y-92710000D02*
X153670000Y-92710000D01*
X155097000Y-92476000D02*
X154863000Y-92710000D01*
X156357000Y-92476000D02*
X155097000Y-92476000D01*
X156897000Y-93016000D02*
X156357000Y-92476000D01*
X156897000Y-93616000D02*
X156897000Y-93016000D01*
X155507000Y-95006000D02*
X156897000Y-93616000D01*
X152847000Y-101726000D02*
X153767000Y-102646000D01*
X151595000Y-102616000D02*
X152397000Y-102616000D01*
X152847000Y-102166000D02*
X152847000Y-100836000D01*
X152397000Y-102616000D02*
X152847000Y-102166000D01*
X169011600Y-94411400D02*
X169577000Y-93846000D01*
X169011600Y-95394600D02*
X169011600Y-94411400D01*
X161091000Y-97282000D02*
X162467000Y-95906000D01*
X160221000Y-97282000D02*
X159004000Y-97282000D01*
X160221000Y-97282000D02*
X161091000Y-97282000D01*
X169011600Y-95394600D02*
X169118100Y-95394600D01*
X169214800Y-106789400D02*
X169214800Y-108033800D01*
X160647000Y-99576000D02*
X159004000Y-97933000D01*
X169214800Y-108033800D02*
X169497000Y-108316000D01*
X159004000Y-97933000D02*
X159004000Y-97917000D01*
X169214800Y-106789400D02*
X169146400Y-106789400D01*
X169214800Y-106789400D02*
X169214800Y-106260900D01*
X152222200Y-110980400D02*
X154856400Y-110980400D01*
X154856400Y-110980400D02*
X154997000Y-111121000D01*
X154997000Y-111121000D02*
X154997000Y-110496000D01*
X154997000Y-110496000D02*
X156522000Y-108971000D01*
X148447000Y-100186000D02*
X150187000Y-100186000D01*
X147977000Y-100656000D02*
X148447000Y-100186000D01*
X149197000Y-102616000D02*
X147977000Y-101396000D01*
X147977000Y-101396000D02*
X147977000Y-100656000D01*
X149395000Y-102616000D02*
X149197000Y-102616000D01*
X149395000Y-102616000D02*
X149395000Y-102268000D01*
X149395000Y-102616000D02*
X149395000Y-102508000D01*
X152847000Y-100186000D02*
X154017000Y-100186000D01*
X152541000Y-98736000D02*
X151595000Y-97790000D01*
X153727000Y-98736000D02*
X152541000Y-98736000D01*
X154187000Y-99196000D02*
X153727000Y-98736000D01*
X154187000Y-100016000D02*
X154187000Y-99196000D01*
X154017000Y-100186000D02*
X154187000Y-100016000D01*
X151595000Y-97790000D02*
X151811000Y-97790000D01*
D33*
X164195000Y-95854000D02*
X164195000Y-93622900D01*
X164197000Y-95856000D02*
X164195000Y-95854000D01*
D32*
X162696400Y-93622900D02*
X164195000Y-93622900D01*
X171704000Y-107061000D02*
X171704000Y-106934000D01*
D35*
G36*
X160510923Y-90371700D02*
X160510923Y-91184500D01*
X160531842Y-91295673D01*
X160597545Y-91397779D01*
X160697797Y-91466278D01*
X160816800Y-91490377D01*
X161807400Y-91490377D01*
X161918573Y-91469458D01*
X162020679Y-91403755D01*
X162089178Y-91303503D01*
X162113277Y-91184500D01*
X162113277Y-90371700D01*
X162102796Y-90316000D01*
X167812003Y-90316000D01*
X167800723Y-90371700D01*
X167800723Y-91184500D01*
X167821642Y-91295673D01*
X167887345Y-91397779D01*
X167987597Y-91466278D01*
X168106600Y-91490377D01*
X169097200Y-91490377D01*
X169208373Y-91469458D01*
X169310479Y-91403755D01*
X169378978Y-91303503D01*
X169403077Y-91184500D01*
X169403077Y-90371700D01*
X169392596Y-90316000D01*
X180321000Y-90316000D01*
X180321000Y-112376000D01*
X126719000Y-112376000D01*
X126719000Y-110396000D01*
X127123000Y-110396000D01*
X127123000Y-111196000D01*
X127206837Y-111517475D01*
X127407315Y-111782396D01*
X127693913Y-111950432D01*
X127790877Y-111976259D01*
X127923000Y-111894331D01*
X127923000Y-110396000D01*
X127123000Y-110396000D01*
X126719000Y-110396000D01*
X126719000Y-109496000D01*
X127123000Y-109496000D01*
X127123000Y-110296000D01*
X127923000Y-110296000D01*
X127923000Y-108797669D01*
X128023000Y-108797669D01*
X128023000Y-110296000D01*
X128043000Y-110296000D01*
X128043000Y-110396000D01*
X128023000Y-110396000D01*
X128023000Y-111894331D01*
X128155123Y-111976259D01*
X128252087Y-111950432D01*
X128538685Y-111782396D01*
X128657947Y-111624798D01*
X128712670Y-111706696D01*
X128955987Y-111869276D01*
X129243000Y-111926366D01*
X129530013Y-111869276D01*
X129773330Y-111706696D01*
X129878000Y-111550047D01*
X129982670Y-111706696D01*
X130225987Y-111869276D01*
X130513000Y-111926366D01*
X130800013Y-111869276D01*
X131043330Y-111706696D01*
X131148000Y-111550047D01*
X131252670Y-111706696D01*
X131495987Y-111869276D01*
X131783000Y-111926366D01*
X132070013Y-111869276D01*
X132313330Y-111706696D01*
X132418000Y-111550047D01*
X132522670Y-111706696D01*
X132765987Y-111869276D01*
X133053000Y-111926366D01*
X133340013Y-111869276D01*
X133583330Y-111706696D01*
X133688000Y-111550047D01*
X133792670Y-111706696D01*
X134035987Y-111869276D01*
X134323000Y-111926366D01*
X134610013Y-111869276D01*
X134853330Y-111706696D01*
X134958000Y-111550047D01*
X135062670Y-111706696D01*
X135305987Y-111869276D01*
X135593000Y-111926366D01*
X135880013Y-111869276D01*
X136123330Y-111706696D01*
X136228000Y-111550047D01*
X136332670Y-111706696D01*
X136575987Y-111869276D01*
X136863000Y-111926366D01*
X137150013Y-111869276D01*
X137393330Y-111706696D01*
X137498000Y-111550047D01*
X137602670Y-111706696D01*
X137845987Y-111869276D01*
X138133000Y-111926366D01*
X138420013Y-111869276D01*
X138663330Y-111706696D01*
X138768000Y-111550047D01*
X138872670Y-111706696D01*
X139115987Y-111869276D01*
X139403000Y-111926366D01*
X139690013Y-111869276D01*
X139933330Y-111706696D01*
X140038000Y-111550047D01*
X140142670Y-111706696D01*
X140385987Y-111869276D01*
X140673000Y-111926366D01*
X140960013Y-111869276D01*
X141203330Y-111706696D01*
X141308000Y-111550047D01*
X141412670Y-111706696D01*
X141655987Y-111869276D01*
X141943000Y-111926366D01*
X142230013Y-111869276D01*
X142473330Y-111706696D01*
X142578000Y-111550047D01*
X142682670Y-111706696D01*
X142925987Y-111869276D01*
X143213000Y-111926366D01*
X143500013Y-111869276D01*
X143743330Y-111706696D01*
X143848000Y-111550047D01*
X143952670Y-111706696D01*
X144195987Y-111869276D01*
X144483000Y-111926366D01*
X144770013Y-111869276D01*
X145013330Y-111706696D01*
X145175910Y-111463379D01*
X145233000Y-111176366D01*
X145233000Y-111109900D01*
X146944800Y-111109900D01*
X146944800Y-111414465D01*
X147005696Y-111561482D01*
X147118218Y-111674004D01*
X147265235Y-111734900D01*
X147794800Y-111734900D01*
X147894800Y-111634900D01*
X147894800Y-111009900D01*
X147044800Y-111009900D01*
X146944800Y-111109900D01*
X145233000Y-111109900D01*
X145233000Y-110505335D01*
X146944800Y-110505335D01*
X146944800Y-110809900D01*
X147044800Y-110909900D01*
X147894800Y-110909900D01*
X147894800Y-110284900D01*
X147794800Y-110184900D01*
X147265235Y-110184900D01*
X147118218Y-110245796D01*
X147005696Y-110358318D01*
X146944800Y-110505335D01*
X145233000Y-110505335D01*
X145233000Y-109515634D01*
X145175910Y-109228621D01*
X145049598Y-109039582D01*
X145107000Y-109051000D01*
X145513470Y-109051000D01*
X145596683Y-109134359D01*
X145817129Y-109225896D01*
X146055824Y-109226104D01*
X146276429Y-109134952D01*
X146445359Y-108966317D01*
X146479955Y-108883000D01*
X147124531Y-108883000D01*
X147136042Y-108944173D01*
X147201745Y-109046279D01*
X147301997Y-109114778D01*
X147421000Y-109138877D01*
X148621000Y-109138877D01*
X148732173Y-109117958D01*
X148834279Y-109052255D01*
X148902778Y-108952003D01*
X148921000Y-108862021D01*
X148921000Y-108912565D01*
X148981896Y-109059582D01*
X149094418Y-109172104D01*
X149241435Y-109233000D01*
X149771000Y-109233000D01*
X149871000Y-109133000D01*
X149871000Y-108508000D01*
X149971000Y-108508000D01*
X149971000Y-109133000D01*
X150071000Y-109233000D01*
X150600565Y-109233000D01*
X150747582Y-109172104D01*
X150860104Y-109059582D01*
X150921000Y-108912565D01*
X150921000Y-108608000D01*
X150821000Y-108508000D01*
X149971000Y-108508000D01*
X149871000Y-108508000D01*
X149851000Y-108508000D01*
X149851000Y-108408000D01*
X149871000Y-108408000D01*
X149871000Y-107783000D01*
X149971000Y-107783000D01*
X149971000Y-108408000D01*
X150821000Y-108408000D01*
X150921000Y-108308000D01*
X150921000Y-108003435D01*
X150860104Y-107856418D01*
X150747582Y-107743896D01*
X150600565Y-107683000D01*
X150071000Y-107683000D01*
X149971000Y-107783000D01*
X149871000Y-107783000D01*
X149771000Y-107683000D01*
X149631041Y-107683000D01*
X149790905Y-107523136D01*
X149825745Y-107577279D01*
X149925997Y-107645778D01*
X150045000Y-107669877D01*
X150945000Y-107669877D01*
X151056173Y-107648958D01*
X151158279Y-107583255D01*
X151226778Y-107483003D01*
X151250877Y-107364000D01*
X151250877Y-106164000D01*
X151229958Y-106052827D01*
X151164255Y-105950721D01*
X151143588Y-105936600D01*
X151622200Y-105936600D01*
X151622200Y-107920426D01*
X151558921Y-107961145D01*
X151490422Y-108061397D01*
X151466323Y-108180400D01*
X151466323Y-108737336D01*
X149973050Y-110230610D01*
X149494801Y-109752361D01*
X149494904Y-109634576D01*
X149403752Y-109413971D01*
X149235117Y-109245041D01*
X149014671Y-109153504D01*
X148775976Y-109153296D01*
X148555371Y-109244448D01*
X148386441Y-109413083D01*
X148294904Y-109633529D01*
X148294696Y-109872224D01*
X148385848Y-110092829D01*
X148477758Y-110184900D01*
X148094800Y-110184900D01*
X147994800Y-110284900D01*
X147994800Y-110909900D01*
X148014800Y-110909900D01*
X148014800Y-111009900D01*
X147994800Y-111009900D01*
X147994800Y-111634900D01*
X148094800Y-111734900D01*
X148624365Y-111734900D01*
X148771382Y-111674004D01*
X148883904Y-111561482D01*
X148944800Y-111414465D01*
X148944800Y-111366133D01*
X148959842Y-111446073D01*
X149025545Y-111548179D01*
X149125797Y-111616678D01*
X149244800Y-111640777D01*
X150444800Y-111640777D01*
X150555973Y-111619858D01*
X150658079Y-111554155D01*
X150726578Y-111453903D01*
X150750677Y-111334900D01*
X150750677Y-110655063D01*
X151728345Y-109677396D01*
X151772200Y-109686277D01*
X152672200Y-109686277D01*
X152783373Y-109665358D01*
X152885479Y-109599655D01*
X152953978Y-109499403D01*
X152978077Y-109380400D01*
X152978077Y-109205400D01*
X153356201Y-109205400D01*
X153365642Y-109255573D01*
X153431345Y-109357679D01*
X153531597Y-109426178D01*
X153650600Y-109450277D01*
X154400600Y-109450277D01*
X154511773Y-109429358D01*
X154613879Y-109363655D01*
X154682378Y-109263403D01*
X154706477Y-109144400D01*
X154706477Y-108969400D01*
X155133000Y-108969400D01*
X155268657Y-108942416D01*
X155295641Y-108937049D01*
X155433520Y-108844920D01*
X155891123Y-108387317D01*
X155891123Y-109000836D01*
X154696480Y-110195480D01*
X154604351Y-110333359D01*
X154600837Y-110351025D01*
X154598033Y-110365123D01*
X154397000Y-110365123D01*
X154285827Y-110386042D01*
X154183721Y-110451745D01*
X154115222Y-110551997D01*
X154114533Y-110555400D01*
X152978077Y-110555400D01*
X152978077Y-110380400D01*
X152957158Y-110269227D01*
X152891455Y-110167121D01*
X152791203Y-110098622D01*
X152672200Y-110074523D01*
X151772200Y-110074523D01*
X151661027Y-110095442D01*
X151558921Y-110161145D01*
X151490422Y-110261397D01*
X151466323Y-110380400D01*
X151466323Y-111580400D01*
X151487242Y-111691573D01*
X151552945Y-111793679D01*
X151653197Y-111862178D01*
X151772200Y-111886277D01*
X152672200Y-111886277D01*
X152783373Y-111865358D01*
X152885479Y-111799655D01*
X152953978Y-111699403D01*
X152978077Y-111580400D01*
X152978077Y-111405400D01*
X154091123Y-111405400D01*
X154091123Y-111571000D01*
X154112042Y-111682173D01*
X154177745Y-111784279D01*
X154277997Y-111852778D01*
X154397000Y-111876877D01*
X155597000Y-111876877D01*
X155708173Y-111855958D01*
X155810279Y-111790255D01*
X155878778Y-111690003D01*
X155902877Y-111571000D01*
X155902877Y-111271000D01*
X156197000Y-111271000D01*
X156197000Y-111650565D01*
X156257896Y-111797582D01*
X156370418Y-111910104D01*
X156517435Y-111971000D01*
X157047000Y-111971000D01*
X157147000Y-111871000D01*
X157147000Y-111171000D01*
X157247000Y-111171000D01*
X157247000Y-111871000D01*
X157347000Y-111971000D01*
X157876565Y-111971000D01*
X158023582Y-111910104D01*
X158136104Y-111797582D01*
X158197000Y-111650565D01*
X158197000Y-111271000D01*
X158097000Y-111171000D01*
X157247000Y-111171000D01*
X157147000Y-111171000D01*
X156297000Y-111171000D01*
X156197000Y-111271000D01*
X155902877Y-111271000D01*
X155902877Y-110671000D01*
X155887906Y-110591435D01*
X156197000Y-110591435D01*
X156197000Y-110971000D01*
X156297000Y-111071000D01*
X157147000Y-111071000D01*
X157147000Y-110371000D01*
X157247000Y-110371000D01*
X157247000Y-111071000D01*
X158097000Y-111071000D01*
X158197000Y-110971000D01*
X158197000Y-110591435D01*
X158136104Y-110444418D01*
X158023582Y-110331896D01*
X157876565Y-110271000D01*
X157347000Y-110271000D01*
X157247000Y-110371000D01*
X157147000Y-110371000D01*
X157047000Y-110271000D01*
X156517435Y-110271000D01*
X156370418Y-110331896D01*
X156257896Y-110444418D01*
X156197000Y-110591435D01*
X155887906Y-110591435D01*
X155881958Y-110559827D01*
X155816255Y-110457721D01*
X155716003Y-110389222D01*
X155706702Y-110387338D01*
X156068055Y-110025985D01*
X156077997Y-110032778D01*
X156197000Y-110056877D01*
X156847000Y-110056877D01*
X156958173Y-110035958D01*
X156996529Y-110011277D01*
X157027997Y-110032778D01*
X157147000Y-110056877D01*
X157797000Y-110056877D01*
X157908173Y-110035958D01*
X157946529Y-110011277D01*
X157977997Y-110032778D01*
X158097000Y-110056877D01*
X158747000Y-110056877D01*
X158858173Y-110035958D01*
X158858820Y-110035542D01*
X158835904Y-110090729D01*
X158835696Y-110329424D01*
X158926848Y-110550029D01*
X159095483Y-110718959D01*
X159315929Y-110810496D01*
X159554624Y-110810704D01*
X159775229Y-110719552D01*
X159944159Y-110550917D01*
X160035696Y-110330471D01*
X160035904Y-110091776D01*
X160004414Y-110015565D01*
X160033997Y-110035778D01*
X160153000Y-110059877D01*
X160443927Y-110059877D01*
X161725025Y-111340975D01*
X161952122Y-111492716D01*
X162220000Y-111546000D01*
X162641123Y-111546000D01*
X162641123Y-111846000D01*
X162662042Y-111957173D01*
X162727745Y-112059279D01*
X162827997Y-112127778D01*
X162947000Y-112151877D01*
X165947000Y-112151877D01*
X166058173Y-112130958D01*
X166160279Y-112065255D01*
X166228778Y-111965003D01*
X166252877Y-111846000D01*
X166252877Y-111418973D01*
X166346610Y-111400328D01*
X166541264Y-111270264D01*
X167961264Y-109850264D01*
X168091328Y-109655610D01*
X168137000Y-109426000D01*
X168137000Y-109338824D01*
X168436896Y-109338824D01*
X168528048Y-109559429D01*
X168696683Y-109728359D01*
X168917129Y-109819896D01*
X169035959Y-109820000D01*
X169983923Y-110767964D01*
X169983923Y-111838500D01*
X170004842Y-111949673D01*
X170070545Y-112051779D01*
X170170797Y-112120278D01*
X170289800Y-112144377D01*
X171789800Y-112144377D01*
X171900973Y-112123458D01*
X172003079Y-112057755D01*
X172071578Y-111957503D01*
X172095677Y-111838500D01*
X172095677Y-110538500D01*
X172074758Y-110427327D01*
X172009055Y-110325221D01*
X171908803Y-110256722D01*
X171789800Y-110232623D01*
X170650664Y-110232623D01*
X169637001Y-109218961D01*
X169637104Y-109101176D01*
X169560614Y-108916056D01*
X169615824Y-108916104D01*
X169836429Y-108824952D01*
X170005359Y-108656317D01*
X170050376Y-108547904D01*
X170170360Y-109151105D01*
X170530203Y-109689648D01*
X171068746Y-110049491D01*
X171704000Y-110175851D01*
X172339254Y-110049491D01*
X172877797Y-109689648D01*
X173237640Y-109151105D01*
X173364000Y-108515851D01*
X173364000Y-105606149D01*
X173237640Y-104970895D01*
X172877797Y-104432352D01*
X172339254Y-104072509D01*
X171704000Y-103946149D01*
X171068746Y-104072509D01*
X170530203Y-104432352D01*
X170170360Y-104970895D01*
X170044000Y-105606149D01*
X170044000Y-108068654D01*
X170005952Y-107976571D01*
X169837317Y-107807641D01*
X169639800Y-107725625D01*
X169639800Y-107695277D01*
X169664800Y-107695277D01*
X169775973Y-107674358D01*
X169878079Y-107608655D01*
X169946578Y-107508403D01*
X169970677Y-107389400D01*
X169970677Y-106189400D01*
X169949758Y-106078227D01*
X169884055Y-105976121D01*
X169783803Y-105907622D01*
X169664800Y-105883523D01*
X169400296Y-105883523D01*
X169377440Y-105868251D01*
X169214800Y-105835900D01*
X169052160Y-105868251D01*
X169029304Y-105883523D01*
X168764800Y-105883523D01*
X168653627Y-105904442D01*
X168551521Y-105970145D01*
X168483022Y-106070397D01*
X168458923Y-106189400D01*
X168458923Y-107389400D01*
X168479842Y-107500573D01*
X168545545Y-107602679D01*
X168645797Y-107671178D01*
X168764800Y-107695277D01*
X168789800Y-107695277D01*
X168789800Y-108033800D01*
X168813262Y-108151751D01*
X168822151Y-108196441D01*
X168897006Y-108308468D01*
X168896896Y-108434824D01*
X168973386Y-108619944D01*
X168918176Y-108619896D01*
X168697571Y-108711048D01*
X168528641Y-108879683D01*
X168437104Y-109100129D01*
X168436896Y-109338824D01*
X168137000Y-109338824D01*
X168137000Y-105006000D01*
X168091328Y-104776390D01*
X167961264Y-104581736D01*
X166533452Y-103153924D01*
X168195596Y-103153924D01*
X168286748Y-103374529D01*
X168455383Y-103543459D01*
X168675829Y-103634996D01*
X168789800Y-103635095D01*
X168789800Y-103683523D01*
X168764800Y-103683523D01*
X168653627Y-103704442D01*
X168551521Y-103770145D01*
X168483022Y-103870397D01*
X168458923Y-103989400D01*
X168458923Y-105189400D01*
X168479842Y-105300573D01*
X168545545Y-105402679D01*
X168645797Y-105471178D01*
X168764800Y-105495277D01*
X169664800Y-105495277D01*
X169775973Y-105474358D01*
X169878079Y-105408655D01*
X169946578Y-105308403D01*
X169970677Y-105189400D01*
X169970677Y-103989400D01*
X169949758Y-103878227D01*
X169884055Y-103776121D01*
X169783803Y-103707622D01*
X169664800Y-103683523D01*
X169639800Y-103683523D01*
X169639800Y-103454200D01*
X169623425Y-103371877D01*
X169607449Y-103291559D01*
X169578745Y-103248600D01*
X170312800Y-103248600D01*
X170312800Y-103553165D01*
X170373696Y-103700182D01*
X170486218Y-103812704D01*
X170633235Y-103873600D01*
X171162800Y-103873600D01*
X171262800Y-103773600D01*
X171262800Y-103148600D01*
X170412800Y-103148600D01*
X170312800Y-103248600D01*
X169578745Y-103248600D01*
X169515320Y-103153680D01*
X169395701Y-103034061D01*
X169395804Y-102916276D01*
X169304652Y-102695671D01*
X169253107Y-102644035D01*
X170312800Y-102644035D01*
X170312800Y-102948600D01*
X170412800Y-103048600D01*
X171262800Y-103048600D01*
X171262800Y-102423600D01*
X171162800Y-102323600D01*
X170633235Y-102323600D01*
X170486218Y-102384496D01*
X170373696Y-102497018D01*
X170312800Y-102644035D01*
X169253107Y-102644035D01*
X169136017Y-102526741D01*
X168915571Y-102435204D01*
X168676876Y-102434996D01*
X168456271Y-102526148D01*
X168287341Y-102694783D01*
X168195804Y-102915229D01*
X168195596Y-103153924D01*
X166533452Y-103153924D01*
X165497000Y-102117472D01*
X165497000Y-101504432D01*
X165935621Y-101504432D01*
X166057157Y-101798572D01*
X166282005Y-102023812D01*
X166575932Y-102145861D01*
X166894192Y-102146139D01*
X167188332Y-102024603D01*
X167413572Y-101799755D01*
X167481693Y-101635700D01*
X169131700Y-101635700D01*
X169131700Y-101940265D01*
X169192596Y-102087282D01*
X169305118Y-102199804D01*
X169452135Y-102260700D01*
X169981700Y-102260700D01*
X170081700Y-102160700D01*
X170081700Y-101535700D01*
X169231700Y-101535700D01*
X169131700Y-101635700D01*
X167481693Y-101635700D01*
X167535621Y-101505828D01*
X167535899Y-101187568D01*
X167471263Y-101031135D01*
X169131700Y-101031135D01*
X169131700Y-101335700D01*
X169231700Y-101435700D01*
X170081700Y-101435700D01*
X170081700Y-100810700D01*
X169981700Y-100710700D01*
X169452135Y-100710700D01*
X169305118Y-100771596D01*
X169192596Y-100884118D01*
X169131700Y-101031135D01*
X167471263Y-101031135D01*
X167414363Y-100893428D01*
X167189515Y-100668188D01*
X166895588Y-100546139D01*
X166577328Y-100545861D01*
X166283188Y-100667397D01*
X166057948Y-100892245D01*
X165935899Y-101186172D01*
X165935621Y-101504432D01*
X165497000Y-101504432D01*
X165497000Y-100724528D01*
X166687104Y-99534424D01*
X167598696Y-99534424D01*
X167689848Y-99755029D01*
X167858483Y-99923959D01*
X168078929Y-100015496D01*
X168317624Y-100015704D01*
X168538229Y-99924552D01*
X168643364Y-99819600D01*
X169131700Y-99819600D01*
X169131700Y-100124165D01*
X169192596Y-100271182D01*
X169305118Y-100383704D01*
X169452135Y-100444600D01*
X169981700Y-100444600D01*
X170081700Y-100344600D01*
X170081700Y-99719600D01*
X169231700Y-99719600D01*
X169131700Y-99819600D01*
X168643364Y-99819600D01*
X168707159Y-99755917D01*
X168798696Y-99535471D01*
X168798800Y-99416641D01*
X169000406Y-99215035D01*
X169131700Y-99215035D01*
X169131700Y-99519600D01*
X169231700Y-99619600D01*
X170081700Y-99619600D01*
X170081700Y-98994600D01*
X170181700Y-98994600D01*
X170181700Y-99619600D01*
X170201700Y-99619600D01*
X170201700Y-99719600D01*
X170181700Y-99719600D01*
X170181700Y-100344600D01*
X170281700Y-100444600D01*
X170811265Y-100444600D01*
X170958282Y-100383704D01*
X171070804Y-100271182D01*
X171131700Y-100124165D01*
X171131700Y-100075833D01*
X171146742Y-100155773D01*
X171212445Y-100257879D01*
X171312697Y-100326378D01*
X171431700Y-100350477D01*
X172631700Y-100350477D01*
X172742873Y-100329558D01*
X172844979Y-100263855D01*
X172913478Y-100163603D01*
X172927452Y-100094600D01*
X172988460Y-100094600D01*
X173047099Y-100153239D01*
X173046996Y-100271024D01*
X173138148Y-100491629D01*
X173306783Y-100660559D01*
X173527229Y-100752096D01*
X173646060Y-100752200D01*
X173853832Y-100959972D01*
X173766971Y-100923904D01*
X173528276Y-100923696D01*
X173307671Y-101014848D01*
X173261739Y-101060700D01*
X172928169Y-101060700D01*
X172916658Y-100999527D01*
X172850955Y-100897421D01*
X172750703Y-100828922D01*
X172631700Y-100804823D01*
X171431700Y-100804823D01*
X171320527Y-100825742D01*
X171218421Y-100891445D01*
X171149922Y-100991697D01*
X171131700Y-101081679D01*
X171131700Y-101031135D01*
X171070804Y-100884118D01*
X170958282Y-100771596D01*
X170811265Y-100710700D01*
X170281700Y-100710700D01*
X170181700Y-100810700D01*
X170181700Y-101435700D01*
X170201700Y-101435700D01*
X170201700Y-101535700D01*
X170181700Y-101535700D01*
X170181700Y-102160700D01*
X170281700Y-102260700D01*
X170811265Y-102260700D01*
X170958282Y-102199804D01*
X171070804Y-102087282D01*
X171131700Y-101940265D01*
X171131700Y-101891933D01*
X171146742Y-101971873D01*
X171212445Y-102073979D01*
X171312697Y-102142478D01*
X171431700Y-102166577D01*
X172631700Y-102166577D01*
X172742873Y-102145658D01*
X172844979Y-102079955D01*
X172913478Y-101979703D01*
X172927452Y-101910700D01*
X173185536Y-101910700D01*
X173306783Y-102032159D01*
X173527229Y-102123696D01*
X173646059Y-102123800D01*
X173818780Y-102296521D01*
X173956659Y-102388649D01*
X174119300Y-102421000D01*
X174130060Y-102421000D01*
X174035455Y-102515605D01*
X174032055Y-102510321D01*
X173931803Y-102441822D01*
X173812800Y-102417723D01*
X172612800Y-102417723D01*
X172501627Y-102438642D01*
X172399521Y-102504345D01*
X172331022Y-102604597D01*
X172312800Y-102694579D01*
X172312800Y-102644035D01*
X172251904Y-102497018D01*
X172139382Y-102384496D01*
X171992365Y-102323600D01*
X171462800Y-102323600D01*
X171362800Y-102423600D01*
X171362800Y-103048600D01*
X171382800Y-103048600D01*
X171382800Y-103148600D01*
X171362800Y-103148600D01*
X171362800Y-103773600D01*
X171462800Y-103873600D01*
X171992365Y-103873600D01*
X172139382Y-103812704D01*
X172251904Y-103700182D01*
X172312800Y-103553165D01*
X172312800Y-103504833D01*
X172327842Y-103584773D01*
X172393545Y-103686879D01*
X172493797Y-103755378D01*
X172612800Y-103779477D01*
X173292637Y-103779477D01*
X173565000Y-104051841D01*
X173565000Y-110072659D01*
X173439280Y-110198380D01*
X173416399Y-110232623D01*
X172989800Y-110232623D01*
X172878627Y-110253542D01*
X172776521Y-110319245D01*
X172708022Y-110419497D01*
X172683923Y-110538500D01*
X172683923Y-111838500D01*
X172704842Y-111949673D01*
X172770545Y-112051779D01*
X172870797Y-112120278D01*
X172989800Y-112144377D01*
X174489800Y-112144377D01*
X174600973Y-112123458D01*
X174703079Y-112057755D01*
X174771578Y-111957503D01*
X174795677Y-111838500D01*
X174795677Y-110538500D01*
X174774758Y-110427327D01*
X174709055Y-110325221D01*
X174608803Y-110256722D01*
X174489800Y-110232623D01*
X174415000Y-110232623D01*
X174415000Y-109516550D01*
X174511519Y-109516550D01*
X174933857Y-110538686D01*
X175715201Y-111321395D01*
X176736598Y-111745516D01*
X177842550Y-111746481D01*
X178864686Y-111324143D01*
X179647395Y-110542799D01*
X180071516Y-109521402D01*
X180072481Y-108415450D01*
X179650143Y-107393314D01*
X178868799Y-106610605D01*
X177847402Y-106186484D01*
X176741450Y-106185519D01*
X175719314Y-106607857D01*
X174936605Y-107389201D01*
X174512484Y-108410598D01*
X174511519Y-109516550D01*
X174415000Y-109516550D01*
X174415000Y-103958500D01*
X174481800Y-103958500D01*
X174481800Y-104625565D01*
X174542696Y-104772582D01*
X174655218Y-104885104D01*
X174802235Y-104946000D01*
X175781800Y-104946000D01*
X175881800Y-104846000D01*
X175881800Y-103858500D01*
X174581800Y-103858500D01*
X174481800Y-103958500D01*
X174415000Y-103958500D01*
X174415000Y-103875800D01*
X174404768Y-103824359D01*
X174382649Y-103713159D01*
X174290521Y-103575280D01*
X174208091Y-103492850D01*
X174216141Y-103491249D01*
X174354020Y-103399120D01*
X174481800Y-103271340D01*
X174481800Y-103658500D01*
X174581800Y-103758500D01*
X175881800Y-103758500D01*
X175881800Y-103738500D01*
X175981800Y-103738500D01*
X175981800Y-103758500D01*
X176001800Y-103758500D01*
X176001800Y-103858500D01*
X175981800Y-103858500D01*
X175981800Y-104846000D01*
X176081800Y-104946000D01*
X176881800Y-104946000D01*
X176881800Y-105523065D01*
X176942696Y-105670082D01*
X177055218Y-105782604D01*
X177202235Y-105843500D01*
X178081800Y-105843500D01*
X178181800Y-105743500D01*
X178181800Y-104306000D01*
X178281800Y-104306000D01*
X178281800Y-105743500D01*
X178381800Y-105843500D01*
X179261365Y-105843500D01*
X179408382Y-105782604D01*
X179520904Y-105670082D01*
X179581800Y-105523065D01*
X179581800Y-104406000D01*
X179481800Y-104306000D01*
X178281800Y-104306000D01*
X178181800Y-104306000D01*
X178161800Y-104306000D01*
X178161800Y-104206000D01*
X178181800Y-104206000D01*
X178181800Y-102236000D01*
X178281800Y-102236000D01*
X178281800Y-104206000D01*
X179481800Y-104206000D01*
X179581800Y-104106000D01*
X179581800Y-102988935D01*
X179553661Y-102921000D01*
X179581800Y-102853065D01*
X179581800Y-102336000D01*
X179481800Y-102236000D01*
X178281800Y-102236000D01*
X178181800Y-102236000D01*
X176981800Y-102236000D01*
X176881800Y-102336000D01*
X176881800Y-102671000D01*
X176567677Y-102671000D01*
X176567677Y-102421000D01*
X176548170Y-102317329D01*
X176567677Y-102221000D01*
X176567677Y-101771000D01*
X176548170Y-101667329D01*
X176567677Y-101571000D01*
X176567677Y-101121000D01*
X176548170Y-101017329D01*
X176567677Y-100921000D01*
X176567677Y-100656000D01*
X176881800Y-100656000D01*
X176881800Y-101173065D01*
X176942696Y-101320082D01*
X176968614Y-101346000D01*
X176942696Y-101371918D01*
X176881800Y-101518935D01*
X176881800Y-102036000D01*
X176981800Y-102136000D01*
X178181800Y-102136000D01*
X178181800Y-100556000D01*
X178281800Y-100556000D01*
X178281800Y-102136000D01*
X179481800Y-102136000D01*
X179581800Y-102036000D01*
X179581800Y-101518935D01*
X179520904Y-101371918D01*
X179494986Y-101346000D01*
X179520904Y-101320082D01*
X179581800Y-101173065D01*
X179581800Y-100656000D01*
X179481800Y-100556000D01*
X178281800Y-100556000D01*
X178181800Y-100556000D01*
X176981800Y-100556000D01*
X176881800Y-100656000D01*
X176567677Y-100656000D01*
X176567677Y-100530809D01*
X176600904Y-100497582D01*
X176661800Y-100350565D01*
X176661800Y-100196000D01*
X176561800Y-100096000D01*
X175621800Y-100096000D01*
X175621800Y-100116000D01*
X175521800Y-100116000D01*
X175521800Y-100096000D01*
X174581800Y-100096000D01*
X174481800Y-100196000D01*
X174481800Y-100350565D01*
X174506757Y-100410817D01*
X174247101Y-100151161D01*
X174247204Y-100033376D01*
X174156052Y-99812771D01*
X173987417Y-99643841D01*
X173766971Y-99552304D01*
X173648141Y-99552200D01*
X173465020Y-99369080D01*
X173327141Y-99276951D01*
X173300157Y-99271584D01*
X173164500Y-99244600D01*
X172928169Y-99244600D01*
X172916658Y-99183427D01*
X172850955Y-99081321D01*
X172780967Y-99033500D01*
X174481800Y-99033500D01*
X174481800Y-99700565D01*
X174490264Y-99721000D01*
X174481800Y-99741435D01*
X174481800Y-99896000D01*
X174581800Y-99996000D01*
X174741879Y-99996000D01*
X174802235Y-100021000D01*
X175781800Y-100021000D01*
X175806800Y-99996000D01*
X176056800Y-99996000D01*
X176081800Y-100021000D01*
X176881800Y-100021000D01*
X176881800Y-100356000D01*
X176981800Y-100456000D01*
X178181800Y-100456000D01*
X178181800Y-98486000D01*
X178281800Y-98486000D01*
X178281800Y-100456000D01*
X179481800Y-100456000D01*
X179581800Y-100356000D01*
X179581800Y-99838935D01*
X179553661Y-99771000D01*
X179581800Y-99703065D01*
X179581800Y-98586000D01*
X179481800Y-98486000D01*
X178281800Y-98486000D01*
X178181800Y-98486000D01*
X178161800Y-98486000D01*
X178161800Y-98386000D01*
X178181800Y-98386000D01*
X178181800Y-96948500D01*
X178281800Y-96948500D01*
X178281800Y-98386000D01*
X179481800Y-98386000D01*
X179581800Y-98286000D01*
X179581800Y-97168935D01*
X179520904Y-97021918D01*
X179408382Y-96909396D01*
X179261365Y-96848500D01*
X178381800Y-96848500D01*
X178281800Y-96948500D01*
X178181800Y-96948500D01*
X178081800Y-96848500D01*
X177202235Y-96848500D01*
X177055218Y-96909396D01*
X176942696Y-97021918D01*
X176881800Y-97168935D01*
X176881800Y-97746000D01*
X176081800Y-97746000D01*
X175981800Y-97846000D01*
X175981800Y-98833500D01*
X176001800Y-98833500D01*
X176001800Y-98933500D01*
X175981800Y-98933500D01*
X175981800Y-99421000D01*
X175881800Y-99421000D01*
X175881800Y-98933500D01*
X174581800Y-98933500D01*
X174481800Y-99033500D01*
X172780967Y-99033500D01*
X172750703Y-99012822D01*
X172631700Y-98988723D01*
X171431700Y-98988723D01*
X171320527Y-99009642D01*
X171218421Y-99075345D01*
X171149922Y-99175597D01*
X171131700Y-99265579D01*
X171131700Y-99215035D01*
X171070804Y-99068018D01*
X170958282Y-98955496D01*
X170811265Y-98894600D01*
X170281700Y-98894600D01*
X170181700Y-98994600D01*
X170081700Y-98994600D01*
X169981700Y-98894600D01*
X169452135Y-98894600D01*
X169305118Y-98955496D01*
X169192596Y-99068018D01*
X169131700Y-99215035D01*
X169000406Y-99215035D01*
X169312121Y-98903320D01*
X169404249Y-98765441D01*
X169436600Y-98602800D01*
X169436600Y-98500477D01*
X169461600Y-98500477D01*
X169572773Y-98479558D01*
X169674879Y-98413855D01*
X169743378Y-98313603D01*
X169767477Y-98194600D01*
X169767477Y-96994600D01*
X169746558Y-96883427D01*
X169680855Y-96781321D01*
X169580603Y-96712822D01*
X169461600Y-96688723D01*
X168561600Y-96688723D01*
X168450427Y-96709642D01*
X168348321Y-96775345D01*
X168279822Y-96875597D01*
X168255723Y-96994600D01*
X168255723Y-98194600D01*
X168276642Y-98305773D01*
X168342345Y-98407879D01*
X168442597Y-98476378D01*
X168521087Y-98492273D01*
X168197761Y-98815599D01*
X168079976Y-98815496D01*
X167859371Y-98906648D01*
X167690441Y-99075283D01*
X167598904Y-99295729D01*
X167598696Y-99534424D01*
X166687104Y-99534424D01*
X167616464Y-98605064D01*
X167746528Y-98410410D01*
X167792200Y-98180800D01*
X167792200Y-94672908D01*
X167829578Y-94618203D01*
X167853677Y-94499200D01*
X167853677Y-93301257D01*
X167887345Y-93353579D01*
X167987597Y-93422078D01*
X168106600Y-93446177D01*
X169097200Y-93446177D01*
X169135464Y-93438977D01*
X169068641Y-93505683D01*
X168977104Y-93726129D01*
X168977000Y-93844959D01*
X168711080Y-94110880D01*
X168618951Y-94248759D01*
X168618951Y-94248760D01*
X168586600Y-94411400D01*
X168586600Y-94488723D01*
X168561600Y-94488723D01*
X168450427Y-94509642D01*
X168348321Y-94575345D01*
X168279822Y-94675597D01*
X168255723Y-94794600D01*
X168255723Y-95994600D01*
X168276642Y-96105773D01*
X168342345Y-96207879D01*
X168442597Y-96276378D01*
X168561600Y-96300477D01*
X169461600Y-96300477D01*
X169572773Y-96279558D01*
X169674879Y-96213855D01*
X169743378Y-96113603D01*
X169767477Y-95994600D01*
X169767477Y-95681000D01*
X169944000Y-95681000D01*
X169944000Y-97076000D01*
X170097106Y-97745717D01*
X170494847Y-98305864D01*
X171076671Y-98671163D01*
X171379402Y-98755808D01*
X171654000Y-98685247D01*
X171654000Y-95681000D01*
X171754000Y-95681000D01*
X171754000Y-98685247D01*
X172028598Y-98755808D01*
X172331329Y-98671163D01*
X172913153Y-98305864D01*
X173083163Y-98066435D01*
X174481800Y-98066435D01*
X174481800Y-98733500D01*
X174581800Y-98833500D01*
X175881800Y-98833500D01*
X175881800Y-97846000D01*
X175781800Y-97746000D01*
X174802235Y-97746000D01*
X174655218Y-97806896D01*
X174542696Y-97919418D01*
X174481800Y-98066435D01*
X173083163Y-98066435D01*
X173310894Y-97745717D01*
X173464000Y-97076000D01*
X173464000Y-95681000D01*
X171754000Y-95681000D01*
X171654000Y-95681000D01*
X169944000Y-95681000D01*
X169767477Y-95681000D01*
X169767477Y-94794600D01*
X169746558Y-94683427D01*
X169680855Y-94581321D01*
X169580603Y-94512822D01*
X169522903Y-94501137D01*
X169578039Y-94446001D01*
X169695824Y-94446104D01*
X169916429Y-94354952D01*
X169944000Y-94327429D01*
X169944000Y-95581000D01*
X171654000Y-95581000D01*
X171654000Y-92576753D01*
X171754000Y-92576753D01*
X171754000Y-95581000D01*
X173464000Y-95581000D01*
X173464000Y-94276550D01*
X174511519Y-94276550D01*
X174933857Y-95298686D01*
X175715201Y-96081395D01*
X176736598Y-96505516D01*
X177842550Y-96506481D01*
X178864686Y-96084143D01*
X179647395Y-95302799D01*
X180071516Y-94281402D01*
X180072481Y-93175450D01*
X179650143Y-92153314D01*
X178868799Y-91370605D01*
X177847402Y-90946484D01*
X176741450Y-90945519D01*
X175719314Y-91367857D01*
X174936605Y-92149201D01*
X174512484Y-93170598D01*
X174511519Y-94276550D01*
X173464000Y-94276550D01*
X173464000Y-94186000D01*
X173310894Y-93516283D01*
X172913153Y-92956136D01*
X172331329Y-92590837D01*
X172028598Y-92506192D01*
X171754000Y-92576753D01*
X171654000Y-92576753D01*
X171379402Y-92506192D01*
X171076671Y-92590837D01*
X170494847Y-92956136D01*
X170097106Y-93516283D01*
X170094562Y-93527410D01*
X170085952Y-93506571D01*
X169917317Y-93337641D01*
X169696871Y-93246104D01*
X169458176Y-93245896D01*
X169360587Y-93286219D01*
X169378978Y-93259303D01*
X169403077Y-93140300D01*
X169403077Y-92327500D01*
X169382158Y-92216327D01*
X169316455Y-92114221D01*
X169216203Y-92045722D01*
X169097200Y-92021623D01*
X168106600Y-92021623D01*
X167995427Y-92042542D01*
X167893321Y-92108245D01*
X167824822Y-92208497D01*
X167800723Y-92327500D01*
X167800723Y-92585643D01*
X167767055Y-92533321D01*
X167666803Y-92464822D01*
X167547800Y-92440723D01*
X166836600Y-92440723D01*
X166725427Y-92461642D01*
X166623321Y-92527345D01*
X166554822Y-92627597D01*
X166530723Y-92746600D01*
X166530723Y-94499200D01*
X166551642Y-94610373D01*
X166592200Y-94673402D01*
X166592200Y-97932272D01*
X164472736Y-100051736D01*
X164342672Y-100246390D01*
X164297000Y-100476000D01*
X164297000Y-102366000D01*
X164342672Y-102595610D01*
X164472736Y-102790264D01*
X166937000Y-105254528D01*
X166937000Y-109177472D01*
X166252877Y-109861595D01*
X166252877Y-109846000D01*
X166231958Y-109734827D01*
X166166255Y-109632721D01*
X166066003Y-109564222D01*
X165947000Y-109540123D01*
X162947000Y-109540123D01*
X162835827Y-109561042D01*
X162733721Y-109626745D01*
X162665222Y-109726997D01*
X162641123Y-109846000D01*
X162641123Y-110146000D01*
X162509950Y-110146000D01*
X161208877Y-108844927D01*
X161208877Y-108554000D01*
X161187958Y-108442827D01*
X161122255Y-108340721D01*
X161022003Y-108272222D01*
X160932021Y-108254000D01*
X160982565Y-108254000D01*
X161129582Y-108193104D01*
X161242104Y-108080582D01*
X161303000Y-107933565D01*
X161303000Y-107404000D01*
X161203000Y-107304000D01*
X160578000Y-107304000D01*
X160578000Y-107324000D01*
X160478000Y-107324000D01*
X160478000Y-107304000D01*
X159853000Y-107304000D01*
X159753000Y-107404000D01*
X159753000Y-107933565D01*
X159813896Y-108080582D01*
X159926418Y-108193104D01*
X160073435Y-108254000D01*
X160121767Y-108254000D01*
X160041827Y-108269042D01*
X159939721Y-108334745D01*
X159871222Y-108434997D01*
X159847123Y-108554000D01*
X159052877Y-108554000D01*
X159052877Y-108191000D01*
X159031958Y-108079827D01*
X158966255Y-107977721D01*
X158866003Y-107909222D01*
X158747000Y-107885123D01*
X158097000Y-107885123D01*
X157985827Y-107906042D01*
X157947471Y-107930723D01*
X157916003Y-107909222D01*
X157897000Y-107905374D01*
X157897000Y-107891200D01*
X157885471Y-107833241D01*
X157864649Y-107728559D01*
X157772521Y-107590680D01*
X157632840Y-107451000D01*
X157876565Y-107451000D01*
X158023582Y-107390104D01*
X158063577Y-107350109D01*
X158097000Y-107356877D01*
X158747000Y-107356877D01*
X158858173Y-107335958D01*
X158960279Y-107270255D01*
X159028778Y-107170003D01*
X159052877Y-107051000D01*
X159052877Y-106488651D01*
X159277528Y-106264000D01*
X160049293Y-106264000D01*
X159926418Y-106314896D01*
X159813896Y-106427418D01*
X159753000Y-106574435D01*
X159753000Y-107104000D01*
X159853000Y-107204000D01*
X160478000Y-107204000D01*
X160478000Y-107184000D01*
X160578000Y-107184000D01*
X160578000Y-107204000D01*
X161203000Y-107204000D01*
X161303000Y-107104000D01*
X161303000Y-106574435D01*
X161242104Y-106427418D01*
X161129582Y-106314896D01*
X161006707Y-106264000D01*
X161168472Y-106264000D01*
X162641123Y-107736651D01*
X162641123Y-108846000D01*
X162662042Y-108957173D01*
X162727745Y-109059279D01*
X162827997Y-109127778D01*
X162947000Y-109151877D01*
X165947000Y-109151877D01*
X166058173Y-109130958D01*
X166160279Y-109065255D01*
X166228778Y-108965003D01*
X166252877Y-108846000D01*
X166252877Y-106846000D01*
X166231958Y-106734827D01*
X166166255Y-106632721D01*
X166066003Y-106564222D01*
X165947000Y-106540123D01*
X163141651Y-106540123D01*
X161841264Y-105239736D01*
X161646610Y-105109672D01*
X161417000Y-105064000D01*
X159029000Y-105064000D01*
X158799390Y-105109672D01*
X158686470Y-105185123D01*
X158097000Y-105185123D01*
X158063174Y-105191488D01*
X158023582Y-105151896D01*
X157876565Y-105091000D01*
X157622000Y-105091000D01*
X157522000Y-105191000D01*
X157522000Y-106221000D01*
X157542000Y-106221000D01*
X157542000Y-106321000D01*
X157522000Y-106321000D01*
X157522000Y-106341000D01*
X157422000Y-106341000D01*
X157422000Y-106321000D01*
X157402000Y-106321000D01*
X157402000Y-106221000D01*
X157422000Y-106221000D01*
X157422000Y-105191000D01*
X157322000Y-105091000D01*
X157067435Y-105091000D01*
X156920418Y-105151896D01*
X156880423Y-105191891D01*
X156847000Y-105185123D01*
X156197000Y-105185123D01*
X156085827Y-105206042D01*
X155983721Y-105271745D01*
X155915222Y-105371997D01*
X155891123Y-105491000D01*
X155891123Y-105842782D01*
X155813717Y-105765241D01*
X155593271Y-105673704D01*
X155354576Y-105673496D01*
X155133971Y-105764648D01*
X154965041Y-105933283D01*
X154873504Y-106153729D01*
X154873296Y-106392424D01*
X154964448Y-106613029D01*
X155133083Y-106781959D01*
X155353529Y-106873496D01*
X155592224Y-106873704D01*
X155812829Y-106782552D01*
X155891123Y-106704395D01*
X155891123Y-107051000D01*
X155912042Y-107162173D01*
X155947171Y-107216765D01*
X155894959Y-107227151D01*
X155757080Y-107319280D01*
X154956960Y-108119400D01*
X154706477Y-108119400D01*
X154706477Y-107944400D01*
X154685558Y-107833227D01*
X154619855Y-107731121D01*
X154519603Y-107662622D01*
X154429621Y-107644400D01*
X154480165Y-107644400D01*
X154627182Y-107583504D01*
X154739704Y-107470982D01*
X154800600Y-107323965D01*
X154800600Y-106794400D01*
X154700600Y-106694400D01*
X154075600Y-106694400D01*
X154075600Y-106714400D01*
X153975600Y-106714400D01*
X153975600Y-106694400D01*
X153350600Y-106694400D01*
X153250600Y-106794400D01*
X153250600Y-107323965D01*
X153311496Y-107470982D01*
X153424018Y-107583504D01*
X153571035Y-107644400D01*
X153619367Y-107644400D01*
X153539427Y-107659442D01*
X153437321Y-107725145D01*
X153368822Y-107825397D01*
X153344723Y-107944400D01*
X153344723Y-108355400D01*
X152978077Y-108355400D01*
X152978077Y-108180400D01*
X152957158Y-108069227D01*
X152891455Y-107967121D01*
X152822200Y-107919801D01*
X152822200Y-105964835D01*
X153250600Y-105964835D01*
X153250600Y-106494400D01*
X153350600Y-106594400D01*
X153975600Y-106594400D01*
X153975600Y-105744400D01*
X154075600Y-105744400D01*
X154075600Y-106594400D01*
X154700600Y-106594400D01*
X154800600Y-106494400D01*
X154800600Y-105964835D01*
X154739704Y-105817818D01*
X154627182Y-105705296D01*
X154480165Y-105644400D01*
X154175600Y-105644400D01*
X154075600Y-105744400D01*
X153975600Y-105744400D01*
X153875600Y-105644400D01*
X153571035Y-105644400D01*
X153424018Y-105705296D01*
X153311496Y-105817818D01*
X153250600Y-105964835D01*
X152822200Y-105964835D01*
X152822200Y-105760128D01*
X154096328Y-104486000D01*
X163664328Y-104486000D01*
X163742005Y-104563812D01*
X164035932Y-104685861D01*
X164354192Y-104686139D01*
X164648332Y-104564603D01*
X164873572Y-104339755D01*
X164995621Y-104045828D01*
X164995899Y-103727568D01*
X164874363Y-103433428D01*
X164649515Y-103208188D01*
X164355588Y-103086139D01*
X164037328Y-103085861D01*
X163743188Y-103207397D01*
X163664448Y-103286000D01*
X153847800Y-103286000D01*
X153618190Y-103331672D01*
X153423536Y-103461736D01*
X151798672Y-105086600D01*
X151318641Y-105086600D01*
X151250877Y-105018836D01*
X151250877Y-103964000D01*
X151229958Y-103852827D01*
X151164255Y-103750721D01*
X151064003Y-103682222D01*
X150945000Y-103658123D01*
X150045000Y-103658123D01*
X149933827Y-103679042D01*
X149831721Y-103744745D01*
X149763222Y-103844997D01*
X149739123Y-103964000D01*
X149739123Y-104289000D01*
X149143877Y-104289000D01*
X149143877Y-104114000D01*
X149122958Y-104002827D01*
X149057255Y-103900721D01*
X148957003Y-103832222D01*
X148838000Y-103808123D01*
X148088000Y-103808123D01*
X147976827Y-103829042D01*
X147874721Y-103894745D01*
X147806222Y-103994997D01*
X147782123Y-104114000D01*
X147782123Y-105314000D01*
X147803042Y-105425173D01*
X147868745Y-105527279D01*
X147968997Y-105595778D01*
X148058979Y-105614000D01*
X148008435Y-105614000D01*
X147861418Y-105674896D01*
X147748896Y-105787418D01*
X147688000Y-105934435D01*
X147688000Y-106464000D01*
X147788000Y-106564000D01*
X148413000Y-106564000D01*
X148413000Y-106544000D01*
X148513000Y-106544000D01*
X148513000Y-106564000D01*
X149138000Y-106564000D01*
X149238000Y-106464000D01*
X149238000Y-105934435D01*
X149177104Y-105787418D01*
X149064582Y-105674896D01*
X148917565Y-105614000D01*
X148869233Y-105614000D01*
X148949173Y-105598958D01*
X149051279Y-105533255D01*
X149119778Y-105433003D01*
X149143877Y-105314000D01*
X149143877Y-105139000D01*
X149739123Y-105139000D01*
X149739123Y-105164000D01*
X149760042Y-105275173D01*
X149825745Y-105377279D01*
X149925997Y-105445778D01*
X150045000Y-105469877D01*
X150499836Y-105469877D01*
X150842080Y-105812121D01*
X150910927Y-105858123D01*
X150045000Y-105858123D01*
X149933827Y-105879042D01*
X149831721Y-105944745D01*
X149763222Y-106044997D01*
X149739123Y-106164000D01*
X149739123Y-106402913D01*
X149648480Y-106463479D01*
X149238000Y-106873959D01*
X149238000Y-106764000D01*
X149138000Y-106664000D01*
X148513000Y-106664000D01*
X148513000Y-107514000D01*
X148555480Y-107556480D01*
X148334837Y-107777123D01*
X147421000Y-107777123D01*
X147309827Y-107798042D01*
X147207721Y-107863745D01*
X147139222Y-107963997D01*
X147125248Y-108033000D01*
X146105000Y-108033000D01*
X146083688Y-108037239D01*
X146056871Y-108026104D01*
X145818176Y-108025896D01*
X145597571Y-108117048D01*
X145513472Y-108201000D01*
X145283040Y-108201000D01*
X144796339Y-107714299D01*
X144855621Y-107753910D01*
X145142634Y-107811000D01*
X146803366Y-107811000D01*
X147090379Y-107753910D01*
X147333696Y-107591330D01*
X147496276Y-107348013D01*
X147553366Y-107061000D01*
X147496276Y-106773987D01*
X147489603Y-106764000D01*
X147688000Y-106764000D01*
X147688000Y-107293565D01*
X147748896Y-107440582D01*
X147861418Y-107553104D01*
X148008435Y-107614000D01*
X148313000Y-107614000D01*
X148413000Y-107514000D01*
X148413000Y-106664000D01*
X147788000Y-106664000D01*
X147688000Y-106764000D01*
X147489603Y-106764000D01*
X147333696Y-106530670D01*
X147177047Y-106426000D01*
X147333696Y-106321330D01*
X147496276Y-106078013D01*
X147553366Y-105791000D01*
X147496276Y-105503987D01*
X147333696Y-105260670D01*
X147177047Y-105156000D01*
X147333696Y-105051330D01*
X147496276Y-104808013D01*
X147553366Y-104521000D01*
X147496276Y-104233987D01*
X147333696Y-103990670D01*
X147177047Y-103886000D01*
X147333696Y-103781330D01*
X147496276Y-103538013D01*
X147553366Y-103251000D01*
X147496276Y-102963987D01*
X147333696Y-102720670D01*
X147177047Y-102616000D01*
X147333696Y-102511330D01*
X147496276Y-102268013D01*
X147553366Y-101981000D01*
X147496276Y-101693987D01*
X147333696Y-101450670D01*
X147177047Y-101346000D01*
X147333696Y-101241330D01*
X147496276Y-100998013D01*
X147552000Y-100717867D01*
X147552000Y-101396000D01*
X147574406Y-101508641D01*
X147584351Y-101558641D01*
X147676480Y-101696520D01*
X148489123Y-102509164D01*
X148489123Y-103066000D01*
X148510042Y-103177173D01*
X148575745Y-103279279D01*
X148675997Y-103347778D01*
X148795000Y-103371877D01*
X149995000Y-103371877D01*
X150106173Y-103350958D01*
X150208279Y-103285255D01*
X150276778Y-103185003D01*
X150300877Y-103066000D01*
X150300877Y-102166000D01*
X150279958Y-102054827D01*
X150214255Y-101952721D01*
X150114003Y-101884222D01*
X149995000Y-101860123D01*
X149481083Y-101860123D01*
X149395000Y-101843000D01*
X149308917Y-101860123D01*
X149042164Y-101860123D01*
X148637963Y-101455923D01*
X148845824Y-101456104D01*
X149066429Y-101364952D01*
X149170563Y-101261000D01*
X149234899Y-101261000D01*
X149317997Y-101317778D01*
X149437000Y-101341877D01*
X150937000Y-101341877D01*
X151048173Y-101320958D01*
X151150279Y-101255255D01*
X151218778Y-101155003D01*
X151242877Y-101036000D01*
X151242877Y-100636000D01*
X151221958Y-100524827D01*
X151213846Y-100512221D01*
X151218778Y-100505003D01*
X151242877Y-100386000D01*
X151242877Y-99986000D01*
X151221958Y-99874827D01*
X151213846Y-99862221D01*
X151218778Y-99855003D01*
X151242877Y-99736000D01*
X151242877Y-99383540D01*
X151417129Y-99455896D01*
X151535959Y-99456000D01*
X151791123Y-99711164D01*
X151791123Y-99736000D01*
X151812042Y-99847173D01*
X151820154Y-99859779D01*
X151815222Y-99866997D01*
X151791123Y-99986000D01*
X151791123Y-100386000D01*
X151812042Y-100497173D01*
X151820154Y-100509779D01*
X151815222Y-100516997D01*
X151791123Y-100636000D01*
X151791123Y-101036000D01*
X151812042Y-101147173D01*
X151877745Y-101249279D01*
X151977997Y-101317778D01*
X152097000Y-101341877D01*
X152422000Y-101341877D01*
X152422000Y-101964757D01*
X152414255Y-101952721D01*
X152314003Y-101884222D01*
X152195000Y-101860123D01*
X150995000Y-101860123D01*
X150883827Y-101881042D01*
X150781721Y-101946745D01*
X150713222Y-102046997D01*
X150689123Y-102166000D01*
X150689123Y-103066000D01*
X150710042Y-103177173D01*
X150775745Y-103279279D01*
X150875997Y-103347778D01*
X150995000Y-103371877D01*
X152195000Y-103371877D01*
X152306173Y-103350958D01*
X152408279Y-103285255D01*
X152476778Y-103185003D01*
X152500877Y-103066000D01*
X152500877Y-103020338D01*
X152532657Y-103014016D01*
X152559641Y-103008649D01*
X152697520Y-102916520D01*
X153067000Y-102547040D01*
X153166999Y-102647039D01*
X153166896Y-102764824D01*
X153258048Y-102985429D01*
X153426683Y-103154359D01*
X153647129Y-103245896D01*
X153885824Y-103246104D01*
X154106429Y-103154952D01*
X154275359Y-102986317D01*
X154366896Y-102765871D01*
X154367104Y-102527176D01*
X154275952Y-102306571D01*
X154107317Y-102137641D01*
X153886871Y-102046104D01*
X153768041Y-102046000D01*
X153726041Y-102004000D01*
X154387000Y-102004000D01*
X154387000Y-102308565D01*
X154447896Y-102455582D01*
X154560418Y-102568104D01*
X154707435Y-102629000D01*
X155237000Y-102629000D01*
X155337000Y-102529000D01*
X155337000Y-101904000D01*
X154487000Y-101904000D01*
X154387000Y-102004000D01*
X153726041Y-102004000D01*
X153272000Y-101549960D01*
X153272000Y-101341877D01*
X153597000Y-101341877D01*
X153708173Y-101320958D01*
X153810279Y-101255255D01*
X153878778Y-101155003D01*
X153902877Y-101036000D01*
X153902877Y-100636000D01*
X153898173Y-100611000D01*
X154017000Y-100611000D01*
X154152657Y-100584016D01*
X154179641Y-100578649D01*
X154317520Y-100486520D01*
X154424039Y-100380002D01*
X154486998Y-100380002D01*
X154387000Y-100480000D01*
X154387000Y-100784565D01*
X154447896Y-100931582D01*
X154560418Y-101044104D01*
X154676050Y-101092000D01*
X154560418Y-101139896D01*
X154447896Y-101252418D01*
X154387000Y-101399435D01*
X154387000Y-101704000D01*
X154487000Y-101804000D01*
X155337000Y-101804000D01*
X155337000Y-101179000D01*
X155250000Y-101092000D01*
X155337000Y-101005000D01*
X155337000Y-100380000D01*
X155317000Y-100380000D01*
X155317000Y-100280000D01*
X155337000Y-100280000D01*
X155337000Y-99655000D01*
X155437000Y-99655000D01*
X155437000Y-100280000D01*
X155457000Y-100280000D01*
X155457000Y-100380000D01*
X155437000Y-100380000D01*
X155437000Y-101005000D01*
X155524000Y-101092000D01*
X155437000Y-101179000D01*
X155437000Y-101804000D01*
X155457000Y-101804000D01*
X155457000Y-101904000D01*
X155437000Y-101904000D01*
X155437000Y-102529000D01*
X155537000Y-102629000D01*
X156066565Y-102629000D01*
X156213582Y-102568104D01*
X156326104Y-102455582D01*
X156387000Y-102308565D01*
X156387000Y-102260233D01*
X156402042Y-102340173D01*
X156467745Y-102442279D01*
X156567997Y-102510778D01*
X156687000Y-102534877D01*
X157887000Y-102534877D01*
X157998173Y-102513958D01*
X158100279Y-102448255D01*
X158168778Y-102348003D01*
X158182752Y-102279000D01*
X160441508Y-102279000D01*
X160546683Y-102384359D01*
X160767129Y-102475896D01*
X161005824Y-102476104D01*
X161226429Y-102384952D01*
X161395359Y-102216317D01*
X161486896Y-101995871D01*
X161487104Y-101757176D01*
X161395952Y-101536571D01*
X161227317Y-101367641D01*
X161006871Y-101276104D01*
X160768176Y-101275896D01*
X160547571Y-101367048D01*
X160485511Y-101429000D01*
X158183469Y-101429000D01*
X158171958Y-101367827D01*
X158106255Y-101265721D01*
X158006003Y-101197222D01*
X157887000Y-101173123D01*
X157712000Y-101173123D01*
X157712000Y-101010877D01*
X157887000Y-101010877D01*
X157998173Y-100989958D01*
X158100279Y-100924255D01*
X158168778Y-100824003D01*
X158192877Y-100705000D01*
X158192877Y-99955000D01*
X158171958Y-99843827D01*
X158106255Y-99741721D01*
X158006003Y-99673222D01*
X157887000Y-99649123D01*
X157712000Y-99649123D01*
X157712000Y-96082040D01*
X158042840Y-95751200D01*
X158069644Y-95751200D01*
X158063123Y-95783400D01*
X158063123Y-96189800D01*
X158084042Y-96300973D01*
X158086218Y-96304355D01*
X158063123Y-96418400D01*
X158063123Y-96824800D01*
X158084042Y-96935973D01*
X158093479Y-96950639D01*
X158087222Y-96959797D01*
X158063123Y-97078800D01*
X158063123Y-97485200D01*
X158084042Y-97596373D01*
X158086218Y-97599755D01*
X158063123Y-97713800D01*
X158063123Y-98120200D01*
X158084042Y-98231373D01*
X158149745Y-98333479D01*
X158249997Y-98401978D01*
X158369000Y-98426077D01*
X158896037Y-98426077D01*
X160046999Y-99577039D01*
X160046896Y-99694824D01*
X160138048Y-99915429D01*
X160306683Y-100084359D01*
X160527129Y-100175896D01*
X160765824Y-100176104D01*
X160986429Y-100084952D01*
X161155359Y-99916317D01*
X161246896Y-99695871D01*
X161247104Y-99457176D01*
X161231094Y-99418427D01*
X163654044Y-99418427D01*
X163697641Y-99576666D01*
X164030479Y-99708625D01*
X164388480Y-99703166D01*
X164693879Y-99576666D01*
X164737476Y-99418427D01*
X164195760Y-98876711D01*
X163654044Y-99418427D01*
X161231094Y-99418427D01*
X161155952Y-99236571D01*
X160987317Y-99067641D01*
X160766871Y-98976104D01*
X160648040Y-98976000D01*
X160312759Y-98640719D01*
X163293135Y-98640719D01*
X163298594Y-98998720D01*
X163425094Y-99304119D01*
X163583333Y-99347716D01*
X164125049Y-98806000D01*
X164266471Y-98806000D01*
X164808187Y-99347716D01*
X164966426Y-99304119D01*
X165098385Y-98971281D01*
X165092926Y-98613280D01*
X164966426Y-98307881D01*
X164808187Y-98264284D01*
X164266471Y-98806000D01*
X164125049Y-98806000D01*
X163583333Y-98264284D01*
X163425094Y-98307881D01*
X163293135Y-98640719D01*
X160312759Y-98640719D01*
X159916908Y-98244868D01*
X159920778Y-98239203D01*
X159930018Y-98193573D01*
X163654044Y-98193573D01*
X164195760Y-98735289D01*
X164737476Y-98193573D01*
X164693879Y-98035334D01*
X164361041Y-97903375D01*
X164003040Y-97908834D01*
X163697641Y-98035334D01*
X163654044Y-98193573D01*
X159930018Y-98193573D01*
X159944877Y-98120200D01*
X159944877Y-97713800D01*
X159943597Y-97707000D01*
X161091000Y-97707000D01*
X161226657Y-97680016D01*
X161253641Y-97674649D01*
X161391520Y-97582520D01*
X162468039Y-96506001D01*
X162585824Y-96506104D01*
X162806429Y-96414952D01*
X162975359Y-96246317D01*
X163066896Y-96025871D01*
X163067104Y-95787176D01*
X162975952Y-95566571D01*
X162807317Y-95397641D01*
X162586871Y-95306104D01*
X162348176Y-95305896D01*
X162127571Y-95397048D01*
X161958641Y-95565683D01*
X161867104Y-95786129D01*
X161867000Y-95904960D01*
X160914960Y-96857000D01*
X159938356Y-96857000D01*
X159944877Y-96824800D01*
X159944877Y-96418400D01*
X159943597Y-96411600D01*
X160116400Y-96411600D01*
X160258378Y-96383359D01*
X160279041Y-96379249D01*
X160416920Y-96287120D01*
X160998039Y-95706001D01*
X161115824Y-95706104D01*
X161336429Y-95614952D01*
X161505359Y-95446317D01*
X161596896Y-95225871D01*
X161597104Y-94987176D01*
X161505952Y-94766571D01*
X161337317Y-94597641D01*
X161116871Y-94506104D01*
X160878176Y-94505896D01*
X160657571Y-94597048D01*
X160488641Y-94765683D01*
X160397104Y-94986129D01*
X160397000Y-95104959D01*
X159940360Y-95561600D01*
X159938356Y-95561600D01*
X159944877Y-95529400D01*
X159944877Y-95128809D01*
X159978104Y-95095582D01*
X160039000Y-94948565D01*
X160039000Y-94815800D01*
X159939000Y-94715800D01*
X159054000Y-94715800D01*
X159054000Y-94735800D01*
X158954000Y-94735800D01*
X158954000Y-94715800D01*
X158069000Y-94715800D01*
X157969000Y-94815800D01*
X157969000Y-94901200D01*
X157866800Y-94901200D01*
X157731143Y-94928184D01*
X157704159Y-94933551D01*
X157566280Y-95025680D01*
X156986480Y-95605480D01*
X156894351Y-95743359D01*
X156891840Y-95755982D01*
X156862000Y-95906000D01*
X156862000Y-99649123D01*
X156687000Y-99649123D01*
X156575827Y-99670042D01*
X156473721Y-99735745D01*
X156405222Y-99835997D01*
X156387000Y-99925979D01*
X156387000Y-99875435D01*
X156326104Y-99728418D01*
X156213582Y-99615896D01*
X156066565Y-99555000D01*
X155537000Y-99555000D01*
X155437000Y-99655000D01*
X155337000Y-99655000D01*
X155237000Y-99555000D01*
X154707435Y-99555000D01*
X154612000Y-99594530D01*
X154612000Y-99196000D01*
X154579649Y-99033360D01*
X154527622Y-98955496D01*
X154487520Y-98895479D01*
X154027520Y-98435480D01*
X154013448Y-98426077D01*
X154305000Y-98426077D01*
X154416173Y-98405158D01*
X154518279Y-98339455D01*
X154586778Y-98239203D01*
X154610877Y-98120200D01*
X154610877Y-97713800D01*
X154589958Y-97602627D01*
X154587782Y-97599245D01*
X154610877Y-97485200D01*
X154610877Y-97078800D01*
X154589958Y-96967627D01*
X154580521Y-96952961D01*
X154586778Y-96943803D01*
X154610877Y-96824800D01*
X154610877Y-96418400D01*
X154589958Y-96307227D01*
X154587782Y-96303845D01*
X154610877Y-96189800D01*
X154610877Y-95789209D01*
X154644104Y-95755982D01*
X154705000Y-95608965D01*
X154705000Y-95476200D01*
X154605000Y-95376200D01*
X153720000Y-95376200D01*
X153720000Y-95396200D01*
X153620000Y-95396200D01*
X153620000Y-95376200D01*
X152735000Y-95376200D01*
X152635000Y-95476200D01*
X152635000Y-95608965D01*
X152695896Y-95755982D01*
X152729123Y-95789209D01*
X152729123Y-96189800D01*
X152750042Y-96300973D01*
X152752218Y-96304355D01*
X152729123Y-96418400D01*
X152729123Y-96824800D01*
X152750042Y-96935973D01*
X152759479Y-96950639D01*
X152753222Y-96959797D01*
X152729123Y-97078800D01*
X152729123Y-97485200D01*
X152750042Y-97596373D01*
X152752218Y-97599755D01*
X152729123Y-97713800D01*
X152729123Y-98120200D01*
X152750042Y-98231373D01*
X152801280Y-98311000D01*
X152717040Y-98311000D01*
X152500877Y-98094837D01*
X152500877Y-97340000D01*
X152479958Y-97228827D01*
X152414255Y-97126721D01*
X152314003Y-97058222D01*
X152195000Y-97034123D01*
X150995000Y-97034123D01*
X150883827Y-97055042D01*
X150781721Y-97120745D01*
X150713222Y-97220997D01*
X150689123Y-97340000D01*
X150689123Y-98240000D01*
X150710042Y-98351173D01*
X150775745Y-98453279D01*
X150875997Y-98521778D01*
X150995000Y-98545877D01*
X151016103Y-98545877D01*
X150937104Y-98736129D01*
X150936896Y-98974824D01*
X150961822Y-99035150D01*
X150937000Y-99030123D01*
X150612000Y-99030123D01*
X150612000Y-98582000D01*
X150583786Y-98440159D01*
X150579649Y-98419359D01*
X150487520Y-98281480D01*
X150300877Y-98094837D01*
X150300877Y-97340000D01*
X150279958Y-97228827D01*
X150214255Y-97126721D01*
X150114003Y-97058222D01*
X149995000Y-97034123D01*
X149820000Y-97034123D01*
X149820000Y-96971527D01*
X149905359Y-96886317D01*
X149996896Y-96665871D01*
X149997104Y-96427176D01*
X149905952Y-96206571D01*
X149737317Y-96037641D01*
X149516871Y-95946104D01*
X149278176Y-95945896D01*
X149057571Y-96037048D01*
X148888641Y-96205683D01*
X148797104Y-96426129D01*
X148796896Y-96664824D01*
X148888048Y-96885429D01*
X148970000Y-96967524D01*
X148970000Y-97034123D01*
X148795000Y-97034123D01*
X148683827Y-97055042D01*
X148581721Y-97120745D01*
X148513222Y-97220997D01*
X148489123Y-97340000D01*
X148489123Y-98240000D01*
X148510042Y-98351173D01*
X148575745Y-98453279D01*
X148675997Y-98521778D01*
X148795000Y-98545877D01*
X149549837Y-98545877D01*
X149762000Y-98758040D01*
X149762000Y-99030123D01*
X149437000Y-99030123D01*
X149325827Y-99051042D01*
X149223721Y-99116745D01*
X149155222Y-99216997D01*
X149131123Y-99336000D01*
X149131123Y-99736000D01*
X149135827Y-99761000D01*
X148447000Y-99761000D01*
X148284360Y-99793351D01*
X148284358Y-99793352D01*
X148284359Y-99793352D01*
X148146479Y-99885480D01*
X147676480Y-100355480D01*
X147584351Y-100493359D01*
X147583511Y-100497582D01*
X147552000Y-100656000D01*
X147552000Y-100704133D01*
X147496276Y-100423987D01*
X147333696Y-100180670D01*
X147177047Y-100076000D01*
X147333696Y-99971330D01*
X147496276Y-99728013D01*
X147553366Y-99441000D01*
X147496276Y-99153987D01*
X147333696Y-98910670D01*
X147177047Y-98806000D01*
X147333696Y-98701330D01*
X147496276Y-98458013D01*
X147553366Y-98171000D01*
X147496276Y-97883987D01*
X147333696Y-97640670D01*
X147177047Y-97536000D01*
X147333696Y-97431330D01*
X147496276Y-97188013D01*
X147553366Y-96901000D01*
X147496276Y-96613987D01*
X147333696Y-96370670D01*
X147177047Y-96266000D01*
X147333696Y-96161330D01*
X147496276Y-95918013D01*
X147508844Y-95854824D01*
X150256896Y-95854824D01*
X150348048Y-96075429D01*
X150516683Y-96244359D01*
X150737129Y-96335896D01*
X150975824Y-96336104D01*
X151196429Y-96244952D01*
X151365359Y-96076317D01*
X151456896Y-95855871D01*
X151457104Y-95617176D01*
X151365952Y-95396571D01*
X151302000Y-95332507D01*
X151302000Y-94202040D01*
X152377520Y-93126521D01*
X152446757Y-93022900D01*
X152469649Y-92988640D01*
X152502000Y-92826000D01*
X152502000Y-92702040D01*
X152704041Y-92500000D01*
X152730500Y-92500000D01*
X152729123Y-92506800D01*
X152729123Y-92913200D01*
X152750042Y-93024373D01*
X152759479Y-93039039D01*
X152753222Y-93048197D01*
X152729123Y-93167200D01*
X152729123Y-93573600D01*
X152742195Y-93643072D01*
X152726812Y-93653351D01*
X152611679Y-93730280D01*
X152215961Y-94125999D01*
X152098176Y-94125896D01*
X151877571Y-94217048D01*
X151708641Y-94385683D01*
X151617104Y-94606129D01*
X151616896Y-94844824D01*
X151708048Y-95065429D01*
X151876683Y-95234359D01*
X152097129Y-95325896D01*
X152335824Y-95326104D01*
X152556429Y-95234952D01*
X152635000Y-95156518D01*
X152635000Y-95176200D01*
X152735000Y-95276200D01*
X153620000Y-95276200D01*
X153620000Y-95256200D01*
X153720000Y-95256200D01*
X153720000Y-95276200D01*
X154605000Y-95276200D01*
X154705000Y-95176200D01*
X154705000Y-95043435D01*
X154644104Y-94896418D01*
X154610877Y-94863191D01*
X154610877Y-94462600D01*
X154589958Y-94351427D01*
X154587782Y-94348045D01*
X154610877Y-94234000D01*
X154610877Y-93827600D01*
X154604818Y-93795400D01*
X155117897Y-93795400D01*
X155216683Y-93894359D01*
X155437129Y-93985896D01*
X155675824Y-93986104D01*
X155896429Y-93894952D01*
X156065359Y-93726317D01*
X156156896Y-93505871D01*
X156157104Y-93267176D01*
X156065952Y-93046571D01*
X155920635Y-92901000D01*
X156180960Y-92901000D01*
X156472000Y-93192041D01*
X156472000Y-93439960D01*
X155505961Y-94405999D01*
X155388176Y-94405896D01*
X155167571Y-94497048D01*
X154998641Y-94665683D01*
X154907104Y-94886129D01*
X154906896Y-95124824D01*
X154998048Y-95345429D01*
X155166683Y-95514359D01*
X155387129Y-95605896D01*
X155625824Y-95606104D01*
X155846429Y-95514952D01*
X156015359Y-95346317D01*
X156106896Y-95125871D01*
X156107000Y-95007040D01*
X157197520Y-93916520D01*
X157289649Y-93778641D01*
X157322000Y-93616000D01*
X157322000Y-93016000D01*
X157289649Y-92853360D01*
X157238306Y-92776520D01*
X157197520Y-92715479D01*
X156657520Y-92175480D01*
X156519641Y-92083351D01*
X156492657Y-92077984D01*
X156357000Y-92051000D01*
X155097000Y-92051000D01*
X154961343Y-92077984D01*
X154934359Y-92083351D01*
X154796480Y-92175480D01*
X154686960Y-92285000D01*
X154609500Y-92285000D01*
X154610877Y-92278200D01*
X154610877Y-91871800D01*
X154589958Y-91760627D01*
X154524255Y-91658521D01*
X154424003Y-91590022D01*
X154305000Y-91565923D01*
X153035000Y-91565923D01*
X152923827Y-91586842D01*
X152825676Y-91650000D01*
X152528000Y-91650000D01*
X152365360Y-91682351D01*
X152365358Y-91682352D01*
X152365359Y-91682352D01*
X152227479Y-91774480D01*
X151776480Y-92225480D01*
X151684351Y-92363359D01*
X151684351Y-92363360D01*
X151652000Y-92526000D01*
X151652000Y-92649959D01*
X150576480Y-93725480D01*
X150484351Y-93863359D01*
X150483396Y-93868159D01*
X150452000Y-94026000D01*
X150452000Y-95292504D01*
X150348641Y-95395683D01*
X150257104Y-95616129D01*
X150256896Y-95854824D01*
X147508844Y-95854824D01*
X147553366Y-95631000D01*
X147496276Y-95343987D01*
X147333696Y-95100670D01*
X147090379Y-94938090D01*
X146803366Y-94881000D01*
X145142634Y-94881000D01*
X144855621Y-94938090D01*
X144612304Y-95100670D01*
X144449724Y-95343987D01*
X144392634Y-95631000D01*
X144449724Y-95918013D01*
X144612304Y-96161330D01*
X144768953Y-96266000D01*
X144612304Y-96370670D01*
X144449724Y-96613987D01*
X144392634Y-96901000D01*
X144449724Y-97188013D01*
X144612304Y-97431330D01*
X144768953Y-97536000D01*
X144612304Y-97640670D01*
X144449724Y-97883987D01*
X144392634Y-98171000D01*
X144449724Y-98458013D01*
X144612304Y-98701330D01*
X144768953Y-98806000D01*
X144612304Y-98910670D01*
X144449724Y-99153987D01*
X144392634Y-99441000D01*
X144449724Y-99728013D01*
X144612304Y-99971330D01*
X144768953Y-100076000D01*
X144612304Y-100180670D01*
X144449724Y-100423987D01*
X144392634Y-100711000D01*
X144449724Y-100998013D01*
X144612304Y-101241330D01*
X144768953Y-101346000D01*
X144612304Y-101450670D01*
X144449724Y-101693987D01*
X144392634Y-101981000D01*
X144449724Y-102268013D01*
X144612304Y-102511330D01*
X144768953Y-102616000D01*
X144612304Y-102720670D01*
X144449724Y-102963987D01*
X144392634Y-103251000D01*
X144449724Y-103538013D01*
X144612304Y-103781330D01*
X144768953Y-103886000D01*
X144612304Y-103990670D01*
X144449724Y-104233987D01*
X144392634Y-104521000D01*
X144449724Y-104808013D01*
X144612304Y-105051330D01*
X144768953Y-105156000D01*
X144612304Y-105260670D01*
X144449724Y-105503987D01*
X144392634Y-105791000D01*
X144449724Y-106078013D01*
X144612304Y-106321330D01*
X144768953Y-106426000D01*
X144612304Y-106530670D01*
X144449724Y-106773987D01*
X144392634Y-107061000D01*
X144449724Y-107348013D01*
X144489335Y-107407295D01*
X143982000Y-106899960D01*
X143982000Y-103739530D01*
X144065359Y-103656317D01*
X144156896Y-103435871D01*
X144157104Y-103197176D01*
X144065952Y-102976571D01*
X143897317Y-102807641D01*
X143676871Y-102716104D01*
X143438176Y-102715896D01*
X143217571Y-102807048D01*
X143048641Y-102975683D01*
X142957104Y-103196129D01*
X142956896Y-103434824D01*
X143048048Y-103655429D01*
X143132000Y-103739528D01*
X143132000Y-107076000D01*
X143154477Y-107189000D01*
X143164351Y-107238641D01*
X143256480Y-107376520D01*
X144685966Y-108806006D01*
X144483000Y-108765634D01*
X144195987Y-108822724D01*
X143952670Y-108985304D01*
X143848000Y-109141953D01*
X143743330Y-108985304D01*
X143500013Y-108822724D01*
X143213000Y-108765634D01*
X142925987Y-108822724D01*
X142682670Y-108985304D01*
X142578000Y-109141953D01*
X142473330Y-108985304D01*
X142230013Y-108822724D01*
X141943000Y-108765634D01*
X141655987Y-108822724D01*
X141412670Y-108985304D01*
X141308000Y-109141953D01*
X141203330Y-108985304D01*
X140960013Y-108822724D01*
X140673000Y-108765634D01*
X140385987Y-108822724D01*
X140142670Y-108985304D01*
X140038000Y-109141953D01*
X139933330Y-108985304D01*
X139690013Y-108822724D01*
X139403000Y-108765634D01*
X139115987Y-108822724D01*
X138872670Y-108985304D01*
X138768000Y-109141953D01*
X138663330Y-108985304D01*
X138420013Y-108822724D01*
X138133000Y-108765634D01*
X137845987Y-108822724D01*
X137602670Y-108985304D01*
X137498000Y-109141953D01*
X137393330Y-108985304D01*
X137150013Y-108822724D01*
X136863000Y-108765634D01*
X136575987Y-108822724D01*
X136332670Y-108985304D01*
X136228000Y-109141953D01*
X136123330Y-108985304D01*
X136018000Y-108914924D01*
X136018000Y-108486540D01*
X136233939Y-108270601D01*
X136351724Y-108270704D01*
X136572329Y-108179552D01*
X136741259Y-108010917D01*
X136832796Y-107790471D01*
X136833004Y-107551776D01*
X136741852Y-107331171D01*
X136573217Y-107162241D01*
X136352771Y-107070704D01*
X136114076Y-107070496D01*
X135893471Y-107161648D01*
X135724541Y-107330283D01*
X135633004Y-107550729D01*
X135632900Y-107669559D01*
X135292480Y-108009980D01*
X135200351Y-108147859D01*
X135200351Y-108147860D01*
X135168000Y-108310500D01*
X135168000Y-108914924D01*
X135062670Y-108985304D01*
X134958000Y-109141953D01*
X134853330Y-108985304D01*
X134610013Y-108822724D01*
X134323000Y-108765634D01*
X134035987Y-108822724D01*
X133792670Y-108985304D01*
X133688000Y-109141953D01*
X133583330Y-108985304D01*
X133340013Y-108822724D01*
X133053000Y-108765634D01*
X132765987Y-108822724D01*
X132522670Y-108985304D01*
X132418000Y-109141953D01*
X132313330Y-108985304D01*
X132070013Y-108822724D01*
X131783000Y-108765634D01*
X131495987Y-108822724D01*
X131252670Y-108985304D01*
X131148000Y-109141953D01*
X131043330Y-108985304D01*
X130980631Y-108943409D01*
X131773041Y-108151000D01*
X131983504Y-108151000D01*
X132086683Y-108254359D01*
X132307129Y-108345896D01*
X132545824Y-108346104D01*
X132766429Y-108254952D01*
X132935359Y-108086317D01*
X133026896Y-107865871D01*
X133027104Y-107627176D01*
X132935952Y-107406571D01*
X132767317Y-107237641D01*
X132546871Y-107146104D01*
X132308176Y-107145896D01*
X132087571Y-107237048D01*
X132023507Y-107301000D01*
X131597000Y-107301000D01*
X131434359Y-107333351D01*
X131296480Y-107425479D01*
X130212480Y-108509480D01*
X130120351Y-108647359D01*
X130115752Y-108670479D01*
X130088000Y-108810000D01*
X130088000Y-108914924D01*
X129982670Y-108985304D01*
X129878000Y-109141953D01*
X129773330Y-108985304D01*
X129668000Y-108914924D01*
X129668000Y-108677040D01*
X130125239Y-108219801D01*
X130243024Y-108219904D01*
X130463629Y-108128752D01*
X130632559Y-107960117D01*
X130724096Y-107739671D01*
X130724304Y-107500976D01*
X130633152Y-107280371D01*
X130464517Y-107111441D01*
X130244071Y-107019904D01*
X130005376Y-107019696D01*
X129784771Y-107110848D01*
X129615841Y-107279483D01*
X129524304Y-107499929D01*
X129524200Y-107618760D01*
X128942480Y-108200480D01*
X128850351Y-108338359D01*
X128846961Y-108355401D01*
X128818000Y-108501000D01*
X128818000Y-108914924D01*
X128712670Y-108985304D01*
X128657947Y-109067202D01*
X128538685Y-108909604D01*
X128252087Y-108741568D01*
X128155123Y-108715741D01*
X128023000Y-108797669D01*
X127923000Y-108797669D01*
X127790877Y-108715741D01*
X127693913Y-108741568D01*
X127407315Y-108909604D01*
X127206837Y-109174525D01*
X127123000Y-109496000D01*
X126719000Y-109496000D01*
X126719000Y-101796000D01*
X132273000Y-101796000D01*
X132273000Y-104725565D01*
X132333896Y-104872582D01*
X132446418Y-104985104D01*
X132593435Y-105046000D01*
X135523000Y-105046000D01*
X135623000Y-104946000D01*
X135623000Y-101696000D01*
X135723000Y-101696000D01*
X135723000Y-104946000D01*
X135823000Y-105046000D01*
X138752565Y-105046000D01*
X138899582Y-104985104D01*
X139012104Y-104872582D01*
X139073000Y-104725565D01*
X139073000Y-101796000D01*
X138973000Y-101696000D01*
X135723000Y-101696000D01*
X135623000Y-101696000D01*
X132373000Y-101696000D01*
X132273000Y-101796000D01*
X126719000Y-101796000D01*
X126719000Y-98566435D01*
X132273000Y-98566435D01*
X132273000Y-101496000D01*
X132373000Y-101596000D01*
X135623000Y-101596000D01*
X135623000Y-98346000D01*
X135723000Y-98346000D01*
X135723000Y-101596000D01*
X138973000Y-101596000D01*
X139073000Y-101496000D01*
X139073000Y-98566435D01*
X139012104Y-98419418D01*
X138899582Y-98306896D01*
X138752565Y-98246000D01*
X135823000Y-98246000D01*
X135723000Y-98346000D01*
X135623000Y-98346000D01*
X135523000Y-98246000D01*
X132593435Y-98246000D01*
X132446418Y-98306896D01*
X132333896Y-98419418D01*
X132273000Y-98566435D01*
X126719000Y-98566435D01*
X126719000Y-92396000D01*
X127123000Y-92396000D01*
X127123000Y-93196000D01*
X127206837Y-93517475D01*
X127407315Y-93782396D01*
X127693913Y-93950432D01*
X127790877Y-93976259D01*
X127923000Y-93894331D01*
X127923000Y-92396000D01*
X127123000Y-92396000D01*
X126719000Y-92396000D01*
X126719000Y-91496000D01*
X127123000Y-91496000D01*
X127123000Y-92296000D01*
X127923000Y-92296000D01*
X127923000Y-90797669D01*
X128023000Y-90797669D01*
X128023000Y-92296000D01*
X128043000Y-92296000D01*
X128043000Y-92396000D01*
X128023000Y-92396000D01*
X128023000Y-93894331D01*
X128155123Y-93976259D01*
X128252087Y-93950432D01*
X128538685Y-93782396D01*
X128657947Y-93624798D01*
X128712670Y-93706696D01*
X128955987Y-93869276D01*
X129243000Y-93926366D01*
X129530013Y-93869276D01*
X129773330Y-93706696D01*
X129878000Y-93550047D01*
X129982670Y-93706696D01*
X130225987Y-93869276D01*
X130513000Y-93926366D01*
X130800013Y-93869276D01*
X131043330Y-93706696D01*
X131148000Y-93550047D01*
X131252670Y-93706696D01*
X131358000Y-93777076D01*
X131358000Y-94672000D01*
X131380310Y-94784158D01*
X131390351Y-94834641D01*
X131482480Y-94972520D01*
X133676999Y-97167040D01*
X133676896Y-97284824D01*
X133768048Y-97505429D01*
X133936683Y-97674359D01*
X134157129Y-97765896D01*
X134395824Y-97766104D01*
X134616429Y-97674952D01*
X134785359Y-97506317D01*
X134876896Y-97285871D01*
X134877104Y-97047176D01*
X134785952Y-96826571D01*
X134617317Y-96657641D01*
X134396871Y-96566104D01*
X134278041Y-96566000D01*
X132208000Y-94495960D01*
X132208000Y-93777076D01*
X132313330Y-93706696D01*
X132418000Y-93550047D01*
X132522670Y-93706696D01*
X132765987Y-93869276D01*
X133019703Y-93919743D01*
X135046999Y-95947039D01*
X135046896Y-96064824D01*
X135138048Y-96285429D01*
X135306683Y-96454359D01*
X135527129Y-96545896D01*
X135765824Y-96546104D01*
X135986429Y-96454952D01*
X136155359Y-96286317D01*
X136246896Y-96065871D01*
X136247104Y-95827176D01*
X136155952Y-95606571D01*
X135987317Y-95437641D01*
X135766871Y-95346104D01*
X135648040Y-95346000D01*
X134996864Y-94694824D01*
X140426896Y-94694824D01*
X140518048Y-94915429D01*
X140602000Y-94999528D01*
X140602000Y-97496000D01*
X140623523Y-97604203D01*
X140634351Y-97658641D01*
X140726480Y-97796520D01*
X141256999Y-98327039D01*
X141256896Y-98444824D01*
X141348048Y-98665429D01*
X141516683Y-98834359D01*
X141737129Y-98925896D01*
X141975824Y-98926104D01*
X142196429Y-98834952D01*
X142365359Y-98666317D01*
X142456896Y-98445871D01*
X142457104Y-98207176D01*
X142365952Y-97986571D01*
X142197317Y-97817641D01*
X141976871Y-97726104D01*
X141858041Y-97726000D01*
X141452000Y-97319960D01*
X141452000Y-94999530D01*
X141535359Y-94916317D01*
X141626896Y-94695871D01*
X141627104Y-94457176D01*
X141535952Y-94236571D01*
X141367317Y-94067641D01*
X141146871Y-93976104D01*
X140908176Y-93975896D01*
X140687571Y-94067048D01*
X140518641Y-94235683D01*
X140427104Y-94456129D01*
X140426896Y-94694824D01*
X134996864Y-94694824D01*
X134204918Y-93902878D01*
X134323000Y-93926366D01*
X134610013Y-93869276D01*
X134853330Y-93706696D01*
X134958000Y-93550047D01*
X135062670Y-93706696D01*
X135305987Y-93869276D01*
X135593000Y-93926366D01*
X135880013Y-93869276D01*
X136123330Y-93706696D01*
X136228000Y-93550047D01*
X136332670Y-93706696D01*
X136575987Y-93869276D01*
X136863000Y-93926366D01*
X137150013Y-93869276D01*
X137393330Y-93706696D01*
X137498000Y-93550047D01*
X137602670Y-93706696D01*
X137845987Y-93869276D01*
X138133000Y-93926366D01*
X138420013Y-93869276D01*
X138663330Y-93706696D01*
X138768000Y-93550047D01*
X138872670Y-93706696D01*
X139115987Y-93869276D01*
X139403000Y-93926366D01*
X139690013Y-93869276D01*
X139933330Y-93706696D01*
X140038000Y-93550047D01*
X140142670Y-93706696D01*
X140385987Y-93869276D01*
X140673000Y-93926366D01*
X140960013Y-93869276D01*
X141203330Y-93706696D01*
X141308000Y-93550047D01*
X141412670Y-93706696D01*
X141655987Y-93869276D01*
X141943000Y-93926366D01*
X142230013Y-93869276D01*
X142473330Y-93706696D01*
X142578000Y-93550047D01*
X142682670Y-93706696D01*
X142788000Y-93777076D01*
X142788000Y-93912000D01*
X142802799Y-93986400D01*
X142820351Y-94074641D01*
X142912480Y-94212520D01*
X143346480Y-94646521D01*
X143484359Y-94738649D01*
X143647000Y-94771000D01*
X146557000Y-94771000D01*
X146692657Y-94744016D01*
X146719641Y-94738649D01*
X146857520Y-94646520D01*
X146858039Y-94646001D01*
X146975824Y-94646104D01*
X147196429Y-94554952D01*
X147265501Y-94486000D01*
X148182000Y-94486000D01*
X148182000Y-95015565D01*
X148242896Y-95162582D01*
X148355418Y-95275104D01*
X148502435Y-95336000D01*
X148807000Y-95336000D01*
X148907000Y-95236000D01*
X148907000Y-94386000D01*
X149007000Y-94386000D01*
X149007000Y-95236000D01*
X149107000Y-95336000D01*
X149411565Y-95336000D01*
X149558582Y-95275104D01*
X149671104Y-95162582D01*
X149732000Y-95015565D01*
X149732000Y-94486000D01*
X149632000Y-94386000D01*
X149007000Y-94386000D01*
X148907000Y-94386000D01*
X148282000Y-94386000D01*
X148182000Y-94486000D01*
X147265501Y-94486000D01*
X147365359Y-94386317D01*
X147456896Y-94165871D01*
X147457104Y-93927176D01*
X147365952Y-93706571D01*
X147197317Y-93537641D01*
X146976871Y-93446104D01*
X146738176Y-93445896D01*
X146517571Y-93537048D01*
X146348641Y-93705683D01*
X146259234Y-93921000D01*
X144509977Y-93921000D01*
X144770013Y-93869276D01*
X145013330Y-93706696D01*
X145175910Y-93463379D01*
X145233000Y-93176366D01*
X145233000Y-92676268D01*
X145277520Y-92646520D01*
X146278039Y-91646001D01*
X146395824Y-91646104D01*
X146616429Y-91554952D01*
X146785359Y-91386317D01*
X146835807Y-91264824D01*
X147536896Y-91264824D01*
X147628048Y-91485429D01*
X147796683Y-91654359D01*
X148017129Y-91745896D01*
X148255824Y-91746104D01*
X148297844Y-91728742D01*
X148276123Y-91836000D01*
X148276123Y-93036000D01*
X148297042Y-93147173D01*
X148362745Y-93249279D01*
X148462997Y-93317778D01*
X148552979Y-93336000D01*
X148502435Y-93336000D01*
X148355418Y-93396896D01*
X148242896Y-93509418D01*
X148182000Y-93656435D01*
X148182000Y-94186000D01*
X148282000Y-94286000D01*
X148907000Y-94286000D01*
X148907000Y-94266000D01*
X149007000Y-94266000D01*
X149007000Y-94286000D01*
X149632000Y-94286000D01*
X149732000Y-94186000D01*
X149732000Y-93656435D01*
X149671104Y-93509418D01*
X149558582Y-93396896D01*
X149411565Y-93336000D01*
X149363233Y-93336000D01*
X149443173Y-93320958D01*
X149545279Y-93255255D01*
X149613778Y-93155003D01*
X149637877Y-93036000D01*
X149637877Y-92861000D01*
X150133382Y-92861000D01*
X150166683Y-92894359D01*
X150387129Y-92985896D01*
X150625824Y-92986104D01*
X150846429Y-92894952D01*
X151015359Y-92726317D01*
X151106896Y-92505871D01*
X151107104Y-92267176D01*
X151015952Y-92046571D01*
X150847317Y-91877641D01*
X150626871Y-91786104D01*
X150388176Y-91785896D01*
X150167571Y-91877048D01*
X150033385Y-92011000D01*
X149637877Y-92011000D01*
X149637877Y-91836000D01*
X149616958Y-91724827D01*
X149551255Y-91622721D01*
X149451003Y-91554222D01*
X149332000Y-91530123D01*
X148601476Y-91530123D01*
X148645359Y-91486317D01*
X148672481Y-91421000D01*
X158460960Y-91421000D01*
X158579000Y-91539041D01*
X158579000Y-91565923D01*
X158369000Y-91565923D01*
X158257827Y-91586842D01*
X158155721Y-91652545D01*
X158087222Y-91752797D01*
X158063123Y-91871800D01*
X158063123Y-92278200D01*
X158084042Y-92389373D01*
X158086218Y-92392755D01*
X158063123Y-92506800D01*
X158063123Y-92913200D01*
X158084042Y-93024373D01*
X158093479Y-93039039D01*
X158087222Y-93048197D01*
X158063123Y-93167200D01*
X158063123Y-93573600D01*
X158084042Y-93684773D01*
X158093479Y-93699439D01*
X158087222Y-93708597D01*
X158063123Y-93827600D01*
X158063123Y-94202791D01*
X158029896Y-94236018D01*
X157969000Y-94383035D01*
X157969000Y-94515800D01*
X158069000Y-94615800D01*
X158954000Y-94615800D01*
X158954000Y-94595800D01*
X159054000Y-94595800D01*
X159054000Y-94615800D01*
X159939000Y-94615800D01*
X160039000Y-94515800D01*
X160039000Y-94383035D01*
X159978104Y-94236018D01*
X159944877Y-94202791D01*
X159944877Y-93827600D01*
X159923958Y-93716427D01*
X159914521Y-93701761D01*
X159920778Y-93692603D01*
X159944877Y-93573600D01*
X159944877Y-93167200D01*
X159923958Y-93056027D01*
X159914521Y-93041361D01*
X159920778Y-93032203D01*
X159944877Y-92913200D01*
X159944877Y-92506800D01*
X159923958Y-92395627D01*
X159921782Y-92392245D01*
X159934893Y-92327500D01*
X160510923Y-92327500D01*
X160510923Y-93140300D01*
X160531842Y-93251473D01*
X160597545Y-93353579D01*
X160697797Y-93422078D01*
X160816800Y-93446177D01*
X161807400Y-93446177D01*
X161918573Y-93425258D01*
X162020679Y-93359555D01*
X162034923Y-93338708D01*
X162034923Y-94499200D01*
X162055842Y-94610373D01*
X162121545Y-94712479D01*
X162221797Y-94780978D01*
X162340800Y-94805077D01*
X163052000Y-94805077D01*
X163163173Y-94784158D01*
X163265279Y-94718455D01*
X163333778Y-94618203D01*
X163357877Y-94499200D01*
X163357877Y-94047900D01*
X163533523Y-94047900D01*
X163533523Y-94499200D01*
X163554442Y-94610373D01*
X163595000Y-94673402D01*
X163595000Y-95854000D01*
X163596993Y-95864017D01*
X163596896Y-95974824D01*
X163639583Y-96078134D01*
X163640672Y-96083610D01*
X163643747Y-96088212D01*
X163688048Y-96195429D01*
X163770731Y-96278257D01*
X163770736Y-96278264D01*
X163772030Y-96279558D01*
X163856683Y-96364359D01*
X164077129Y-96455896D01*
X164315824Y-96456104D01*
X164536429Y-96364952D01*
X164705359Y-96196317D01*
X164796896Y-95975871D01*
X164797104Y-95737176D01*
X164795000Y-95732084D01*
X164795000Y-94672908D01*
X164832378Y-94618203D01*
X164856477Y-94499200D01*
X164856477Y-92746600D01*
X164835558Y-92635427D01*
X164769855Y-92533321D01*
X164669603Y-92464822D01*
X164550600Y-92440723D01*
X163839400Y-92440723D01*
X163728227Y-92461642D01*
X163626121Y-92527345D01*
X163557622Y-92627597D01*
X163533523Y-92746600D01*
X163533523Y-93197900D01*
X163357877Y-93197900D01*
X163357877Y-92746600D01*
X163336958Y-92635427D01*
X163271255Y-92533321D01*
X163171003Y-92464822D01*
X163052000Y-92440723D01*
X162340800Y-92440723D01*
X162229627Y-92461642D01*
X162127521Y-92527345D01*
X162113277Y-92548192D01*
X162113277Y-92327500D01*
X162092358Y-92216327D01*
X162026655Y-92114221D01*
X161926403Y-92045722D01*
X161807400Y-92021623D01*
X160816800Y-92021623D01*
X160705627Y-92042542D01*
X160603521Y-92108245D01*
X160535022Y-92208497D01*
X160510923Y-92327500D01*
X159934893Y-92327500D01*
X159944877Y-92278200D01*
X159944877Y-91903441D01*
X162713771Y-91903441D01*
X162826875Y-92177175D01*
X163036124Y-92386789D01*
X163309660Y-92500371D01*
X163605841Y-92500629D01*
X163879575Y-92387525D01*
X164089189Y-92178276D01*
X164202771Y-91904740D01*
X164202772Y-91903441D01*
X165710971Y-91903441D01*
X165824075Y-92177175D01*
X166033324Y-92386789D01*
X166306860Y-92500371D01*
X166603041Y-92500629D01*
X166876775Y-92387525D01*
X167086389Y-92178276D01*
X167199971Y-91904740D01*
X167200229Y-91608559D01*
X167087125Y-91334825D01*
X166877876Y-91125211D01*
X166604340Y-91011629D01*
X166308159Y-91011371D01*
X166034425Y-91124475D01*
X165824811Y-91333724D01*
X165711229Y-91607260D01*
X165710971Y-91903441D01*
X164202772Y-91903441D01*
X164203029Y-91608559D01*
X164089925Y-91334825D01*
X163880676Y-91125211D01*
X163607140Y-91011629D01*
X163310959Y-91011371D01*
X163037225Y-91124475D01*
X162827611Y-91333724D01*
X162714029Y-91607260D01*
X162713771Y-91903441D01*
X159944877Y-91903441D01*
X159944877Y-91871800D01*
X159923958Y-91760627D01*
X159858255Y-91658521D01*
X159758003Y-91590022D01*
X159639000Y-91565923D01*
X159429000Y-91565923D01*
X159429000Y-91363000D01*
X159396649Y-91200360D01*
X159345944Y-91124475D01*
X159304520Y-91062479D01*
X158937520Y-90695480D01*
X158799641Y-90603351D01*
X158772657Y-90597984D01*
X158637000Y-90571000D01*
X148316827Y-90571000D01*
X148256871Y-90546104D01*
X148018176Y-90545896D01*
X147797571Y-90637048D01*
X147628641Y-90805683D01*
X147537104Y-91026129D01*
X147536896Y-91264824D01*
X146835807Y-91264824D01*
X146876896Y-91165871D01*
X146877104Y-90927176D01*
X146785952Y-90706571D01*
X146617317Y-90537641D01*
X146396871Y-90446104D01*
X146158176Y-90445896D01*
X145937571Y-90537048D01*
X145768641Y-90705683D01*
X145677104Y-90926129D01*
X145677000Y-91044959D01*
X145228574Y-91493385D01*
X145175910Y-91228621D01*
X145013330Y-90985304D01*
X144770013Y-90822724D01*
X144483000Y-90765634D01*
X144195987Y-90822724D01*
X143952670Y-90985304D01*
X143848000Y-91141953D01*
X143743330Y-90985304D01*
X143500013Y-90822724D01*
X143213000Y-90765634D01*
X142925987Y-90822724D01*
X142682670Y-90985304D01*
X142578000Y-91141953D01*
X142473330Y-90985304D01*
X142230013Y-90822724D01*
X141943000Y-90765634D01*
X141655987Y-90822724D01*
X141412670Y-90985304D01*
X141308000Y-91141953D01*
X141203330Y-90985304D01*
X140960013Y-90822724D01*
X140673000Y-90765634D01*
X140385987Y-90822724D01*
X140142670Y-90985304D01*
X140038000Y-91141953D01*
X139933330Y-90985304D01*
X139690013Y-90822724D01*
X139403000Y-90765634D01*
X139115987Y-90822724D01*
X138872670Y-90985304D01*
X138768000Y-91141953D01*
X138663330Y-90985304D01*
X138420013Y-90822724D01*
X138133000Y-90765634D01*
X137845987Y-90822724D01*
X137602670Y-90985304D01*
X137498000Y-91141953D01*
X137393330Y-90985304D01*
X137150013Y-90822724D01*
X136863000Y-90765634D01*
X136575987Y-90822724D01*
X136332670Y-90985304D01*
X136228000Y-91141953D01*
X136123330Y-90985304D01*
X135880013Y-90822724D01*
X135593000Y-90765634D01*
X135305987Y-90822724D01*
X135062670Y-90985304D01*
X134958000Y-91141953D01*
X134853330Y-90985304D01*
X134610013Y-90822724D01*
X134323000Y-90765634D01*
X134035987Y-90822724D01*
X133792670Y-90985304D01*
X133688000Y-91141953D01*
X133583330Y-90985304D01*
X133340013Y-90822724D01*
X133053000Y-90765634D01*
X132765987Y-90822724D01*
X132522670Y-90985304D01*
X132418000Y-91141953D01*
X132313330Y-90985304D01*
X132070013Y-90822724D01*
X131783000Y-90765634D01*
X131495987Y-90822724D01*
X131252670Y-90985304D01*
X131148000Y-91141953D01*
X131043330Y-90985304D01*
X130800013Y-90822724D01*
X130513000Y-90765634D01*
X130225987Y-90822724D01*
X129982670Y-90985304D01*
X129878000Y-91141953D01*
X129773330Y-90985304D01*
X129530013Y-90822724D01*
X129243000Y-90765634D01*
X128955987Y-90822724D01*
X128712670Y-90985304D01*
X128657947Y-91067202D01*
X128538685Y-90909604D01*
X128252087Y-90741568D01*
X128155123Y-90715741D01*
X128023000Y-90797669D01*
X127923000Y-90797669D01*
X127790877Y-90715741D01*
X127693913Y-90741568D01*
X127407315Y-90909604D01*
X127206837Y-91174525D01*
X127123000Y-91496000D01*
X126719000Y-91496000D01*
X126719000Y-90316000D01*
X160522203Y-90316000D01*
X160510923Y-90371700D01*
X160510923Y-90371700D01*
G37*
X160510923Y-90371700D02*
X160510923Y-91184500D01*
X160531842Y-91295673D01*
X160597545Y-91397779D01*
X160697797Y-91466278D01*
X160816800Y-91490377D01*
X161807400Y-91490377D01*
X161918573Y-91469458D01*
X162020679Y-91403755D01*
X162089178Y-91303503D01*
X162113277Y-91184500D01*
X162113277Y-90371700D01*
X162102796Y-90316000D01*
X167812003Y-90316000D01*
X167800723Y-90371700D01*
X167800723Y-91184500D01*
X167821642Y-91295673D01*
X167887345Y-91397779D01*
X167987597Y-91466278D01*
X168106600Y-91490377D01*
X169097200Y-91490377D01*
X169208373Y-91469458D01*
X169310479Y-91403755D01*
X169378978Y-91303503D01*
X169403077Y-91184500D01*
X169403077Y-90371700D01*
X169392596Y-90316000D01*
X180321000Y-90316000D01*
X180321000Y-112376000D01*
X126719000Y-112376000D01*
X126719000Y-110396000D01*
X127123000Y-110396000D01*
X127123000Y-111196000D01*
X127206837Y-111517475D01*
X127407315Y-111782396D01*
X127693913Y-111950432D01*
X127790877Y-111976259D01*
X127923000Y-111894331D01*
X127923000Y-110396000D01*
X127123000Y-110396000D01*
X126719000Y-110396000D01*
X126719000Y-109496000D01*
X127123000Y-109496000D01*
X127123000Y-110296000D01*
X127923000Y-110296000D01*
X127923000Y-108797669D01*
X128023000Y-108797669D01*
X128023000Y-110296000D01*
X128043000Y-110296000D01*
X128043000Y-110396000D01*
X128023000Y-110396000D01*
X128023000Y-111894331D01*
X128155123Y-111976259D01*
X128252087Y-111950432D01*
X128538685Y-111782396D01*
X128657947Y-111624798D01*
X128712670Y-111706696D01*
X128955987Y-111869276D01*
X129243000Y-111926366D01*
X129530013Y-111869276D01*
X129773330Y-111706696D01*
X129878000Y-111550047D01*
X129982670Y-111706696D01*
X130225987Y-111869276D01*
X130513000Y-111926366D01*
X130800013Y-111869276D01*
X131043330Y-111706696D01*
X131148000Y-111550047D01*
X131252670Y-111706696D01*
X131495987Y-111869276D01*
X131783000Y-111926366D01*
X132070013Y-111869276D01*
X132313330Y-111706696D01*
X132418000Y-111550047D01*
X132522670Y-111706696D01*
X132765987Y-111869276D01*
X133053000Y-111926366D01*
X133340013Y-111869276D01*
X133583330Y-111706696D01*
X133688000Y-111550047D01*
X133792670Y-111706696D01*
X134035987Y-111869276D01*
X134323000Y-111926366D01*
X134610013Y-111869276D01*
X134853330Y-111706696D01*
X134958000Y-111550047D01*
X135062670Y-111706696D01*
X135305987Y-111869276D01*
X135593000Y-111926366D01*
X135880013Y-111869276D01*
X136123330Y-111706696D01*
X136228000Y-111550047D01*
X136332670Y-111706696D01*
X136575987Y-111869276D01*
X136863000Y-111926366D01*
X137150013Y-111869276D01*
X137393330Y-111706696D01*
X137498000Y-111550047D01*
X137602670Y-111706696D01*
X137845987Y-111869276D01*
X138133000Y-111926366D01*
X138420013Y-111869276D01*
X138663330Y-111706696D01*
X138768000Y-111550047D01*
X138872670Y-111706696D01*
X139115987Y-111869276D01*
X139403000Y-111926366D01*
X139690013Y-111869276D01*
X139933330Y-111706696D01*
X140038000Y-111550047D01*
X140142670Y-111706696D01*
X140385987Y-111869276D01*
X140673000Y-111926366D01*
X140960013Y-111869276D01*
X141203330Y-111706696D01*
X141308000Y-111550047D01*
X141412670Y-111706696D01*
X141655987Y-111869276D01*
X141943000Y-111926366D01*
X142230013Y-111869276D01*
X142473330Y-111706696D01*
X142578000Y-111550047D01*
X142682670Y-111706696D01*
X142925987Y-111869276D01*
X143213000Y-111926366D01*
X143500013Y-111869276D01*
X143743330Y-111706696D01*
X143848000Y-111550047D01*
X143952670Y-111706696D01*
X144195987Y-111869276D01*
X144483000Y-111926366D01*
X144770013Y-111869276D01*
X145013330Y-111706696D01*
X145175910Y-111463379D01*
X145233000Y-111176366D01*
X145233000Y-111109900D01*
X146944800Y-111109900D01*
X146944800Y-111414465D01*
X147005696Y-111561482D01*
X147118218Y-111674004D01*
X147265235Y-111734900D01*
X147794800Y-111734900D01*
X147894800Y-111634900D01*
X147894800Y-111009900D01*
X147044800Y-111009900D01*
X146944800Y-111109900D01*
X145233000Y-111109900D01*
X145233000Y-110505335D01*
X146944800Y-110505335D01*
X146944800Y-110809900D01*
X147044800Y-110909900D01*
X147894800Y-110909900D01*
X147894800Y-110284900D01*
X147794800Y-110184900D01*
X147265235Y-110184900D01*
X147118218Y-110245796D01*
X147005696Y-110358318D01*
X146944800Y-110505335D01*
X145233000Y-110505335D01*
X145233000Y-109515634D01*
X145175910Y-109228621D01*
X145049598Y-109039582D01*
X145107000Y-109051000D01*
X145513470Y-109051000D01*
X145596683Y-109134359D01*
X145817129Y-109225896D01*
X146055824Y-109226104D01*
X146276429Y-109134952D01*
X146445359Y-108966317D01*
X146479955Y-108883000D01*
X147124531Y-108883000D01*
X147136042Y-108944173D01*
X147201745Y-109046279D01*
X147301997Y-109114778D01*
X147421000Y-109138877D01*
X148621000Y-109138877D01*
X148732173Y-109117958D01*
X148834279Y-109052255D01*
X148902778Y-108952003D01*
X148921000Y-108862021D01*
X148921000Y-108912565D01*
X148981896Y-109059582D01*
X149094418Y-109172104D01*
X149241435Y-109233000D01*
X149771000Y-109233000D01*
X149871000Y-109133000D01*
X149871000Y-108508000D01*
X149971000Y-108508000D01*
X149971000Y-109133000D01*
X150071000Y-109233000D01*
X150600565Y-109233000D01*
X150747582Y-109172104D01*
X150860104Y-109059582D01*
X150921000Y-108912565D01*
X150921000Y-108608000D01*
X150821000Y-108508000D01*
X149971000Y-108508000D01*
X149871000Y-108508000D01*
X149851000Y-108508000D01*
X149851000Y-108408000D01*
X149871000Y-108408000D01*
X149871000Y-107783000D01*
X149971000Y-107783000D01*
X149971000Y-108408000D01*
X150821000Y-108408000D01*
X150921000Y-108308000D01*
X150921000Y-108003435D01*
X150860104Y-107856418D01*
X150747582Y-107743896D01*
X150600565Y-107683000D01*
X150071000Y-107683000D01*
X149971000Y-107783000D01*
X149871000Y-107783000D01*
X149771000Y-107683000D01*
X149631041Y-107683000D01*
X149790905Y-107523136D01*
X149825745Y-107577279D01*
X149925997Y-107645778D01*
X150045000Y-107669877D01*
X150945000Y-107669877D01*
X151056173Y-107648958D01*
X151158279Y-107583255D01*
X151226778Y-107483003D01*
X151250877Y-107364000D01*
X151250877Y-106164000D01*
X151229958Y-106052827D01*
X151164255Y-105950721D01*
X151143588Y-105936600D01*
X151622200Y-105936600D01*
X151622200Y-107920426D01*
X151558921Y-107961145D01*
X151490422Y-108061397D01*
X151466323Y-108180400D01*
X151466323Y-108737336D01*
X149973050Y-110230610D01*
X149494801Y-109752361D01*
X149494904Y-109634576D01*
X149403752Y-109413971D01*
X149235117Y-109245041D01*
X149014671Y-109153504D01*
X148775976Y-109153296D01*
X148555371Y-109244448D01*
X148386441Y-109413083D01*
X148294904Y-109633529D01*
X148294696Y-109872224D01*
X148385848Y-110092829D01*
X148477758Y-110184900D01*
X148094800Y-110184900D01*
X147994800Y-110284900D01*
X147994800Y-110909900D01*
X148014800Y-110909900D01*
X148014800Y-111009900D01*
X147994800Y-111009900D01*
X147994800Y-111634900D01*
X148094800Y-111734900D01*
X148624365Y-111734900D01*
X148771382Y-111674004D01*
X148883904Y-111561482D01*
X148944800Y-111414465D01*
X148944800Y-111366133D01*
X148959842Y-111446073D01*
X149025545Y-111548179D01*
X149125797Y-111616678D01*
X149244800Y-111640777D01*
X150444800Y-111640777D01*
X150555973Y-111619858D01*
X150658079Y-111554155D01*
X150726578Y-111453903D01*
X150750677Y-111334900D01*
X150750677Y-110655063D01*
X151728345Y-109677396D01*
X151772200Y-109686277D01*
X152672200Y-109686277D01*
X152783373Y-109665358D01*
X152885479Y-109599655D01*
X152953978Y-109499403D01*
X152978077Y-109380400D01*
X152978077Y-109205400D01*
X153356201Y-109205400D01*
X153365642Y-109255573D01*
X153431345Y-109357679D01*
X153531597Y-109426178D01*
X153650600Y-109450277D01*
X154400600Y-109450277D01*
X154511773Y-109429358D01*
X154613879Y-109363655D01*
X154682378Y-109263403D01*
X154706477Y-109144400D01*
X154706477Y-108969400D01*
X155133000Y-108969400D01*
X155268657Y-108942416D01*
X155295641Y-108937049D01*
X155433520Y-108844920D01*
X155891123Y-108387317D01*
X155891123Y-109000836D01*
X154696480Y-110195480D01*
X154604351Y-110333359D01*
X154600837Y-110351025D01*
X154598033Y-110365123D01*
X154397000Y-110365123D01*
X154285827Y-110386042D01*
X154183721Y-110451745D01*
X154115222Y-110551997D01*
X154114533Y-110555400D01*
X152978077Y-110555400D01*
X152978077Y-110380400D01*
X152957158Y-110269227D01*
X152891455Y-110167121D01*
X152791203Y-110098622D01*
X152672200Y-110074523D01*
X151772200Y-110074523D01*
X151661027Y-110095442D01*
X151558921Y-110161145D01*
X151490422Y-110261397D01*
X151466323Y-110380400D01*
X151466323Y-111580400D01*
X151487242Y-111691573D01*
X151552945Y-111793679D01*
X151653197Y-111862178D01*
X151772200Y-111886277D01*
X152672200Y-111886277D01*
X152783373Y-111865358D01*
X152885479Y-111799655D01*
X152953978Y-111699403D01*
X152978077Y-111580400D01*
X152978077Y-111405400D01*
X154091123Y-111405400D01*
X154091123Y-111571000D01*
X154112042Y-111682173D01*
X154177745Y-111784279D01*
X154277997Y-111852778D01*
X154397000Y-111876877D01*
X155597000Y-111876877D01*
X155708173Y-111855958D01*
X155810279Y-111790255D01*
X155878778Y-111690003D01*
X155902877Y-111571000D01*
X155902877Y-111271000D01*
X156197000Y-111271000D01*
X156197000Y-111650565D01*
X156257896Y-111797582D01*
X156370418Y-111910104D01*
X156517435Y-111971000D01*
X157047000Y-111971000D01*
X157147000Y-111871000D01*
X157147000Y-111171000D01*
X157247000Y-111171000D01*
X157247000Y-111871000D01*
X157347000Y-111971000D01*
X157876565Y-111971000D01*
X158023582Y-111910104D01*
X158136104Y-111797582D01*
X158197000Y-111650565D01*
X158197000Y-111271000D01*
X158097000Y-111171000D01*
X157247000Y-111171000D01*
X157147000Y-111171000D01*
X156297000Y-111171000D01*
X156197000Y-111271000D01*
X155902877Y-111271000D01*
X155902877Y-110671000D01*
X155887906Y-110591435D01*
X156197000Y-110591435D01*
X156197000Y-110971000D01*
X156297000Y-111071000D01*
X157147000Y-111071000D01*
X157147000Y-110371000D01*
X157247000Y-110371000D01*
X157247000Y-111071000D01*
X158097000Y-111071000D01*
X158197000Y-110971000D01*
X158197000Y-110591435D01*
X158136104Y-110444418D01*
X158023582Y-110331896D01*
X157876565Y-110271000D01*
X157347000Y-110271000D01*
X157247000Y-110371000D01*
X157147000Y-110371000D01*
X157047000Y-110271000D01*
X156517435Y-110271000D01*
X156370418Y-110331896D01*
X156257896Y-110444418D01*
X156197000Y-110591435D01*
X155887906Y-110591435D01*
X155881958Y-110559827D01*
X155816255Y-110457721D01*
X155716003Y-110389222D01*
X155706702Y-110387338D01*
X156068055Y-110025985D01*
X156077997Y-110032778D01*
X156197000Y-110056877D01*
X156847000Y-110056877D01*
X156958173Y-110035958D01*
X156996529Y-110011277D01*
X157027997Y-110032778D01*
X157147000Y-110056877D01*
X157797000Y-110056877D01*
X157908173Y-110035958D01*
X157946529Y-110011277D01*
X157977997Y-110032778D01*
X158097000Y-110056877D01*
X158747000Y-110056877D01*
X158858173Y-110035958D01*
X158858820Y-110035542D01*
X158835904Y-110090729D01*
X158835696Y-110329424D01*
X158926848Y-110550029D01*
X159095483Y-110718959D01*
X159315929Y-110810496D01*
X159554624Y-110810704D01*
X159775229Y-110719552D01*
X159944159Y-110550917D01*
X160035696Y-110330471D01*
X160035904Y-110091776D01*
X160004414Y-110015565D01*
X160033997Y-110035778D01*
X160153000Y-110059877D01*
X160443927Y-110059877D01*
X161725025Y-111340975D01*
X161952122Y-111492716D01*
X162220000Y-111546000D01*
X162641123Y-111546000D01*
X162641123Y-111846000D01*
X162662042Y-111957173D01*
X162727745Y-112059279D01*
X162827997Y-112127778D01*
X162947000Y-112151877D01*
X165947000Y-112151877D01*
X166058173Y-112130958D01*
X166160279Y-112065255D01*
X166228778Y-111965003D01*
X166252877Y-111846000D01*
X166252877Y-111418973D01*
X166346610Y-111400328D01*
X166541264Y-111270264D01*
X167961264Y-109850264D01*
X168091328Y-109655610D01*
X168137000Y-109426000D01*
X168137000Y-109338824D01*
X168436896Y-109338824D01*
X168528048Y-109559429D01*
X168696683Y-109728359D01*
X168917129Y-109819896D01*
X169035959Y-109820000D01*
X169983923Y-110767964D01*
X169983923Y-111838500D01*
X170004842Y-111949673D01*
X170070545Y-112051779D01*
X170170797Y-112120278D01*
X170289800Y-112144377D01*
X171789800Y-112144377D01*
X171900973Y-112123458D01*
X172003079Y-112057755D01*
X172071578Y-111957503D01*
X172095677Y-111838500D01*
X172095677Y-110538500D01*
X172074758Y-110427327D01*
X172009055Y-110325221D01*
X171908803Y-110256722D01*
X171789800Y-110232623D01*
X170650664Y-110232623D01*
X169637001Y-109218961D01*
X169637104Y-109101176D01*
X169560614Y-108916056D01*
X169615824Y-108916104D01*
X169836429Y-108824952D01*
X170005359Y-108656317D01*
X170050376Y-108547904D01*
X170170360Y-109151105D01*
X170530203Y-109689648D01*
X171068746Y-110049491D01*
X171704000Y-110175851D01*
X172339254Y-110049491D01*
X172877797Y-109689648D01*
X173237640Y-109151105D01*
X173364000Y-108515851D01*
X173364000Y-105606149D01*
X173237640Y-104970895D01*
X172877797Y-104432352D01*
X172339254Y-104072509D01*
X171704000Y-103946149D01*
X171068746Y-104072509D01*
X170530203Y-104432352D01*
X170170360Y-104970895D01*
X170044000Y-105606149D01*
X170044000Y-108068654D01*
X170005952Y-107976571D01*
X169837317Y-107807641D01*
X169639800Y-107725625D01*
X169639800Y-107695277D01*
X169664800Y-107695277D01*
X169775973Y-107674358D01*
X169878079Y-107608655D01*
X169946578Y-107508403D01*
X169970677Y-107389400D01*
X169970677Y-106189400D01*
X169949758Y-106078227D01*
X169884055Y-105976121D01*
X169783803Y-105907622D01*
X169664800Y-105883523D01*
X169400296Y-105883523D01*
X169377440Y-105868251D01*
X169214800Y-105835900D01*
X169052160Y-105868251D01*
X169029304Y-105883523D01*
X168764800Y-105883523D01*
X168653627Y-105904442D01*
X168551521Y-105970145D01*
X168483022Y-106070397D01*
X168458923Y-106189400D01*
X168458923Y-107389400D01*
X168479842Y-107500573D01*
X168545545Y-107602679D01*
X168645797Y-107671178D01*
X168764800Y-107695277D01*
X168789800Y-107695277D01*
X168789800Y-108033800D01*
X168813262Y-108151751D01*
X168822151Y-108196441D01*
X168897006Y-108308468D01*
X168896896Y-108434824D01*
X168973386Y-108619944D01*
X168918176Y-108619896D01*
X168697571Y-108711048D01*
X168528641Y-108879683D01*
X168437104Y-109100129D01*
X168436896Y-109338824D01*
X168137000Y-109338824D01*
X168137000Y-105006000D01*
X168091328Y-104776390D01*
X167961264Y-104581736D01*
X166533452Y-103153924D01*
X168195596Y-103153924D01*
X168286748Y-103374529D01*
X168455383Y-103543459D01*
X168675829Y-103634996D01*
X168789800Y-103635095D01*
X168789800Y-103683523D01*
X168764800Y-103683523D01*
X168653627Y-103704442D01*
X168551521Y-103770145D01*
X168483022Y-103870397D01*
X168458923Y-103989400D01*
X168458923Y-105189400D01*
X168479842Y-105300573D01*
X168545545Y-105402679D01*
X168645797Y-105471178D01*
X168764800Y-105495277D01*
X169664800Y-105495277D01*
X169775973Y-105474358D01*
X169878079Y-105408655D01*
X169946578Y-105308403D01*
X169970677Y-105189400D01*
X169970677Y-103989400D01*
X169949758Y-103878227D01*
X169884055Y-103776121D01*
X169783803Y-103707622D01*
X169664800Y-103683523D01*
X169639800Y-103683523D01*
X169639800Y-103454200D01*
X169623425Y-103371877D01*
X169607449Y-103291559D01*
X169578745Y-103248600D01*
X170312800Y-103248600D01*
X170312800Y-103553165D01*
X170373696Y-103700182D01*
X170486218Y-103812704D01*
X170633235Y-103873600D01*
X171162800Y-103873600D01*
X171262800Y-103773600D01*
X171262800Y-103148600D01*
X170412800Y-103148600D01*
X170312800Y-103248600D01*
X169578745Y-103248600D01*
X169515320Y-103153680D01*
X169395701Y-103034061D01*
X169395804Y-102916276D01*
X169304652Y-102695671D01*
X169253107Y-102644035D01*
X170312800Y-102644035D01*
X170312800Y-102948600D01*
X170412800Y-103048600D01*
X171262800Y-103048600D01*
X171262800Y-102423600D01*
X171162800Y-102323600D01*
X170633235Y-102323600D01*
X170486218Y-102384496D01*
X170373696Y-102497018D01*
X170312800Y-102644035D01*
X169253107Y-102644035D01*
X169136017Y-102526741D01*
X168915571Y-102435204D01*
X168676876Y-102434996D01*
X168456271Y-102526148D01*
X168287341Y-102694783D01*
X168195804Y-102915229D01*
X168195596Y-103153924D01*
X166533452Y-103153924D01*
X165497000Y-102117472D01*
X165497000Y-101504432D01*
X165935621Y-101504432D01*
X166057157Y-101798572D01*
X166282005Y-102023812D01*
X166575932Y-102145861D01*
X166894192Y-102146139D01*
X167188332Y-102024603D01*
X167413572Y-101799755D01*
X167481693Y-101635700D01*
X169131700Y-101635700D01*
X169131700Y-101940265D01*
X169192596Y-102087282D01*
X169305118Y-102199804D01*
X169452135Y-102260700D01*
X169981700Y-102260700D01*
X170081700Y-102160700D01*
X170081700Y-101535700D01*
X169231700Y-101535700D01*
X169131700Y-101635700D01*
X167481693Y-101635700D01*
X167535621Y-101505828D01*
X167535899Y-101187568D01*
X167471263Y-101031135D01*
X169131700Y-101031135D01*
X169131700Y-101335700D01*
X169231700Y-101435700D01*
X170081700Y-101435700D01*
X170081700Y-100810700D01*
X169981700Y-100710700D01*
X169452135Y-100710700D01*
X169305118Y-100771596D01*
X169192596Y-100884118D01*
X169131700Y-101031135D01*
X167471263Y-101031135D01*
X167414363Y-100893428D01*
X167189515Y-100668188D01*
X166895588Y-100546139D01*
X166577328Y-100545861D01*
X166283188Y-100667397D01*
X166057948Y-100892245D01*
X165935899Y-101186172D01*
X165935621Y-101504432D01*
X165497000Y-101504432D01*
X165497000Y-100724528D01*
X166687104Y-99534424D01*
X167598696Y-99534424D01*
X167689848Y-99755029D01*
X167858483Y-99923959D01*
X168078929Y-100015496D01*
X168317624Y-100015704D01*
X168538229Y-99924552D01*
X168643364Y-99819600D01*
X169131700Y-99819600D01*
X169131700Y-100124165D01*
X169192596Y-100271182D01*
X169305118Y-100383704D01*
X169452135Y-100444600D01*
X169981700Y-100444600D01*
X170081700Y-100344600D01*
X170081700Y-99719600D01*
X169231700Y-99719600D01*
X169131700Y-99819600D01*
X168643364Y-99819600D01*
X168707159Y-99755917D01*
X168798696Y-99535471D01*
X168798800Y-99416641D01*
X169000406Y-99215035D01*
X169131700Y-99215035D01*
X169131700Y-99519600D01*
X169231700Y-99619600D01*
X170081700Y-99619600D01*
X170081700Y-98994600D01*
X170181700Y-98994600D01*
X170181700Y-99619600D01*
X170201700Y-99619600D01*
X170201700Y-99719600D01*
X170181700Y-99719600D01*
X170181700Y-100344600D01*
X170281700Y-100444600D01*
X170811265Y-100444600D01*
X170958282Y-100383704D01*
X171070804Y-100271182D01*
X171131700Y-100124165D01*
X171131700Y-100075833D01*
X171146742Y-100155773D01*
X171212445Y-100257879D01*
X171312697Y-100326378D01*
X171431700Y-100350477D01*
X172631700Y-100350477D01*
X172742873Y-100329558D01*
X172844979Y-100263855D01*
X172913478Y-100163603D01*
X172927452Y-100094600D01*
X172988460Y-100094600D01*
X173047099Y-100153239D01*
X173046996Y-100271024D01*
X173138148Y-100491629D01*
X173306783Y-100660559D01*
X173527229Y-100752096D01*
X173646060Y-100752200D01*
X173853832Y-100959972D01*
X173766971Y-100923904D01*
X173528276Y-100923696D01*
X173307671Y-101014848D01*
X173261739Y-101060700D01*
X172928169Y-101060700D01*
X172916658Y-100999527D01*
X172850955Y-100897421D01*
X172750703Y-100828922D01*
X172631700Y-100804823D01*
X171431700Y-100804823D01*
X171320527Y-100825742D01*
X171218421Y-100891445D01*
X171149922Y-100991697D01*
X171131700Y-101081679D01*
X171131700Y-101031135D01*
X171070804Y-100884118D01*
X170958282Y-100771596D01*
X170811265Y-100710700D01*
X170281700Y-100710700D01*
X170181700Y-100810700D01*
X170181700Y-101435700D01*
X170201700Y-101435700D01*
X170201700Y-101535700D01*
X170181700Y-101535700D01*
X170181700Y-102160700D01*
X170281700Y-102260700D01*
X170811265Y-102260700D01*
X170958282Y-102199804D01*
X171070804Y-102087282D01*
X171131700Y-101940265D01*
X171131700Y-101891933D01*
X171146742Y-101971873D01*
X171212445Y-102073979D01*
X171312697Y-102142478D01*
X171431700Y-102166577D01*
X172631700Y-102166577D01*
X172742873Y-102145658D01*
X172844979Y-102079955D01*
X172913478Y-101979703D01*
X172927452Y-101910700D01*
X173185536Y-101910700D01*
X173306783Y-102032159D01*
X173527229Y-102123696D01*
X173646059Y-102123800D01*
X173818780Y-102296521D01*
X173956659Y-102388649D01*
X174119300Y-102421000D01*
X174130060Y-102421000D01*
X174035455Y-102515605D01*
X174032055Y-102510321D01*
X173931803Y-102441822D01*
X173812800Y-102417723D01*
X172612800Y-102417723D01*
X172501627Y-102438642D01*
X172399521Y-102504345D01*
X172331022Y-102604597D01*
X172312800Y-102694579D01*
X172312800Y-102644035D01*
X172251904Y-102497018D01*
X172139382Y-102384496D01*
X171992365Y-102323600D01*
X171462800Y-102323600D01*
X171362800Y-102423600D01*
X171362800Y-103048600D01*
X171382800Y-103048600D01*
X171382800Y-103148600D01*
X171362800Y-103148600D01*
X171362800Y-103773600D01*
X171462800Y-103873600D01*
X171992365Y-103873600D01*
X172139382Y-103812704D01*
X172251904Y-103700182D01*
X172312800Y-103553165D01*
X172312800Y-103504833D01*
X172327842Y-103584773D01*
X172393545Y-103686879D01*
X172493797Y-103755378D01*
X172612800Y-103779477D01*
X173292637Y-103779477D01*
X173565000Y-104051841D01*
X173565000Y-110072659D01*
X173439280Y-110198380D01*
X173416399Y-110232623D01*
X172989800Y-110232623D01*
X172878627Y-110253542D01*
X172776521Y-110319245D01*
X172708022Y-110419497D01*
X172683923Y-110538500D01*
X172683923Y-111838500D01*
X172704842Y-111949673D01*
X172770545Y-112051779D01*
X172870797Y-112120278D01*
X172989800Y-112144377D01*
X174489800Y-112144377D01*
X174600973Y-112123458D01*
X174703079Y-112057755D01*
X174771578Y-111957503D01*
X174795677Y-111838500D01*
X174795677Y-110538500D01*
X174774758Y-110427327D01*
X174709055Y-110325221D01*
X174608803Y-110256722D01*
X174489800Y-110232623D01*
X174415000Y-110232623D01*
X174415000Y-109516550D01*
X174511519Y-109516550D01*
X174933857Y-110538686D01*
X175715201Y-111321395D01*
X176736598Y-111745516D01*
X177842550Y-111746481D01*
X178864686Y-111324143D01*
X179647395Y-110542799D01*
X180071516Y-109521402D01*
X180072481Y-108415450D01*
X179650143Y-107393314D01*
X178868799Y-106610605D01*
X177847402Y-106186484D01*
X176741450Y-106185519D01*
X175719314Y-106607857D01*
X174936605Y-107389201D01*
X174512484Y-108410598D01*
X174511519Y-109516550D01*
X174415000Y-109516550D01*
X174415000Y-103958500D01*
X174481800Y-103958500D01*
X174481800Y-104625565D01*
X174542696Y-104772582D01*
X174655218Y-104885104D01*
X174802235Y-104946000D01*
X175781800Y-104946000D01*
X175881800Y-104846000D01*
X175881800Y-103858500D01*
X174581800Y-103858500D01*
X174481800Y-103958500D01*
X174415000Y-103958500D01*
X174415000Y-103875800D01*
X174404768Y-103824359D01*
X174382649Y-103713159D01*
X174290521Y-103575280D01*
X174208091Y-103492850D01*
X174216141Y-103491249D01*
X174354020Y-103399120D01*
X174481800Y-103271340D01*
X174481800Y-103658500D01*
X174581800Y-103758500D01*
X175881800Y-103758500D01*
X175881800Y-103738500D01*
X175981800Y-103738500D01*
X175981800Y-103758500D01*
X176001800Y-103758500D01*
X176001800Y-103858500D01*
X175981800Y-103858500D01*
X175981800Y-104846000D01*
X176081800Y-104946000D01*
X176881800Y-104946000D01*
X176881800Y-105523065D01*
X176942696Y-105670082D01*
X177055218Y-105782604D01*
X177202235Y-105843500D01*
X178081800Y-105843500D01*
X178181800Y-105743500D01*
X178181800Y-104306000D01*
X178281800Y-104306000D01*
X178281800Y-105743500D01*
X178381800Y-105843500D01*
X179261365Y-105843500D01*
X179408382Y-105782604D01*
X179520904Y-105670082D01*
X179581800Y-105523065D01*
X179581800Y-104406000D01*
X179481800Y-104306000D01*
X178281800Y-104306000D01*
X178181800Y-104306000D01*
X178161800Y-104306000D01*
X178161800Y-104206000D01*
X178181800Y-104206000D01*
X178181800Y-102236000D01*
X178281800Y-102236000D01*
X178281800Y-104206000D01*
X179481800Y-104206000D01*
X179581800Y-104106000D01*
X179581800Y-102988935D01*
X179553661Y-102921000D01*
X179581800Y-102853065D01*
X179581800Y-102336000D01*
X179481800Y-102236000D01*
X178281800Y-102236000D01*
X178181800Y-102236000D01*
X176981800Y-102236000D01*
X176881800Y-102336000D01*
X176881800Y-102671000D01*
X176567677Y-102671000D01*
X176567677Y-102421000D01*
X176548170Y-102317329D01*
X176567677Y-102221000D01*
X176567677Y-101771000D01*
X176548170Y-101667329D01*
X176567677Y-101571000D01*
X176567677Y-101121000D01*
X176548170Y-101017329D01*
X176567677Y-100921000D01*
X176567677Y-100656000D01*
X176881800Y-100656000D01*
X176881800Y-101173065D01*
X176942696Y-101320082D01*
X176968614Y-101346000D01*
X176942696Y-101371918D01*
X176881800Y-101518935D01*
X176881800Y-102036000D01*
X176981800Y-102136000D01*
X178181800Y-102136000D01*
X178181800Y-100556000D01*
X178281800Y-100556000D01*
X178281800Y-102136000D01*
X179481800Y-102136000D01*
X179581800Y-102036000D01*
X179581800Y-101518935D01*
X179520904Y-101371918D01*
X179494986Y-101346000D01*
X179520904Y-101320082D01*
X179581800Y-101173065D01*
X179581800Y-100656000D01*
X179481800Y-100556000D01*
X178281800Y-100556000D01*
X178181800Y-100556000D01*
X176981800Y-100556000D01*
X176881800Y-100656000D01*
X176567677Y-100656000D01*
X176567677Y-100530809D01*
X176600904Y-100497582D01*
X176661800Y-100350565D01*
X176661800Y-100196000D01*
X176561800Y-100096000D01*
X175621800Y-100096000D01*
X175621800Y-100116000D01*
X175521800Y-100116000D01*
X175521800Y-100096000D01*
X174581800Y-100096000D01*
X174481800Y-100196000D01*
X174481800Y-100350565D01*
X174506757Y-100410817D01*
X174247101Y-100151161D01*
X174247204Y-100033376D01*
X174156052Y-99812771D01*
X173987417Y-99643841D01*
X173766971Y-99552304D01*
X173648141Y-99552200D01*
X173465020Y-99369080D01*
X173327141Y-99276951D01*
X173300157Y-99271584D01*
X173164500Y-99244600D01*
X172928169Y-99244600D01*
X172916658Y-99183427D01*
X172850955Y-99081321D01*
X172780967Y-99033500D01*
X174481800Y-99033500D01*
X174481800Y-99700565D01*
X174490264Y-99721000D01*
X174481800Y-99741435D01*
X174481800Y-99896000D01*
X174581800Y-99996000D01*
X174741879Y-99996000D01*
X174802235Y-100021000D01*
X175781800Y-100021000D01*
X175806800Y-99996000D01*
X176056800Y-99996000D01*
X176081800Y-100021000D01*
X176881800Y-100021000D01*
X176881800Y-100356000D01*
X176981800Y-100456000D01*
X178181800Y-100456000D01*
X178181800Y-98486000D01*
X178281800Y-98486000D01*
X178281800Y-100456000D01*
X179481800Y-100456000D01*
X179581800Y-100356000D01*
X179581800Y-99838935D01*
X179553661Y-99771000D01*
X179581800Y-99703065D01*
X179581800Y-98586000D01*
X179481800Y-98486000D01*
X178281800Y-98486000D01*
X178181800Y-98486000D01*
X178161800Y-98486000D01*
X178161800Y-98386000D01*
X178181800Y-98386000D01*
X178181800Y-96948500D01*
X178281800Y-96948500D01*
X178281800Y-98386000D01*
X179481800Y-98386000D01*
X179581800Y-98286000D01*
X179581800Y-97168935D01*
X179520904Y-97021918D01*
X179408382Y-96909396D01*
X179261365Y-96848500D01*
X178381800Y-96848500D01*
X178281800Y-96948500D01*
X178181800Y-96948500D01*
X178081800Y-96848500D01*
X177202235Y-96848500D01*
X177055218Y-96909396D01*
X176942696Y-97021918D01*
X176881800Y-97168935D01*
X176881800Y-97746000D01*
X176081800Y-97746000D01*
X175981800Y-97846000D01*
X175981800Y-98833500D01*
X176001800Y-98833500D01*
X176001800Y-98933500D01*
X175981800Y-98933500D01*
X175981800Y-99421000D01*
X175881800Y-99421000D01*
X175881800Y-98933500D01*
X174581800Y-98933500D01*
X174481800Y-99033500D01*
X172780967Y-99033500D01*
X172750703Y-99012822D01*
X172631700Y-98988723D01*
X171431700Y-98988723D01*
X171320527Y-99009642D01*
X171218421Y-99075345D01*
X171149922Y-99175597D01*
X171131700Y-99265579D01*
X171131700Y-99215035D01*
X171070804Y-99068018D01*
X170958282Y-98955496D01*
X170811265Y-98894600D01*
X170281700Y-98894600D01*
X170181700Y-98994600D01*
X170081700Y-98994600D01*
X169981700Y-98894600D01*
X169452135Y-98894600D01*
X169305118Y-98955496D01*
X169192596Y-99068018D01*
X169131700Y-99215035D01*
X169000406Y-99215035D01*
X169312121Y-98903320D01*
X169404249Y-98765441D01*
X169436600Y-98602800D01*
X169436600Y-98500477D01*
X169461600Y-98500477D01*
X169572773Y-98479558D01*
X169674879Y-98413855D01*
X169743378Y-98313603D01*
X169767477Y-98194600D01*
X169767477Y-96994600D01*
X169746558Y-96883427D01*
X169680855Y-96781321D01*
X169580603Y-96712822D01*
X169461600Y-96688723D01*
X168561600Y-96688723D01*
X168450427Y-96709642D01*
X168348321Y-96775345D01*
X168279822Y-96875597D01*
X168255723Y-96994600D01*
X168255723Y-98194600D01*
X168276642Y-98305773D01*
X168342345Y-98407879D01*
X168442597Y-98476378D01*
X168521087Y-98492273D01*
X168197761Y-98815599D01*
X168079976Y-98815496D01*
X167859371Y-98906648D01*
X167690441Y-99075283D01*
X167598904Y-99295729D01*
X167598696Y-99534424D01*
X166687104Y-99534424D01*
X167616464Y-98605064D01*
X167746528Y-98410410D01*
X167792200Y-98180800D01*
X167792200Y-94672908D01*
X167829578Y-94618203D01*
X167853677Y-94499200D01*
X167853677Y-93301257D01*
X167887345Y-93353579D01*
X167987597Y-93422078D01*
X168106600Y-93446177D01*
X169097200Y-93446177D01*
X169135464Y-93438977D01*
X169068641Y-93505683D01*
X168977104Y-93726129D01*
X168977000Y-93844959D01*
X168711080Y-94110880D01*
X168618951Y-94248759D01*
X168618951Y-94248760D01*
X168586600Y-94411400D01*
X168586600Y-94488723D01*
X168561600Y-94488723D01*
X168450427Y-94509642D01*
X168348321Y-94575345D01*
X168279822Y-94675597D01*
X168255723Y-94794600D01*
X168255723Y-95994600D01*
X168276642Y-96105773D01*
X168342345Y-96207879D01*
X168442597Y-96276378D01*
X168561600Y-96300477D01*
X169461600Y-96300477D01*
X169572773Y-96279558D01*
X169674879Y-96213855D01*
X169743378Y-96113603D01*
X169767477Y-95994600D01*
X169767477Y-95681000D01*
X169944000Y-95681000D01*
X169944000Y-97076000D01*
X170097106Y-97745717D01*
X170494847Y-98305864D01*
X171076671Y-98671163D01*
X171379402Y-98755808D01*
X171654000Y-98685247D01*
X171654000Y-95681000D01*
X171754000Y-95681000D01*
X171754000Y-98685247D01*
X172028598Y-98755808D01*
X172331329Y-98671163D01*
X172913153Y-98305864D01*
X173083163Y-98066435D01*
X174481800Y-98066435D01*
X174481800Y-98733500D01*
X174581800Y-98833500D01*
X175881800Y-98833500D01*
X175881800Y-97846000D01*
X175781800Y-97746000D01*
X174802235Y-97746000D01*
X174655218Y-97806896D01*
X174542696Y-97919418D01*
X174481800Y-98066435D01*
X173083163Y-98066435D01*
X173310894Y-97745717D01*
X173464000Y-97076000D01*
X173464000Y-95681000D01*
X171754000Y-95681000D01*
X171654000Y-95681000D01*
X169944000Y-95681000D01*
X169767477Y-95681000D01*
X169767477Y-94794600D01*
X169746558Y-94683427D01*
X169680855Y-94581321D01*
X169580603Y-94512822D01*
X169522903Y-94501137D01*
X169578039Y-94446001D01*
X169695824Y-94446104D01*
X169916429Y-94354952D01*
X169944000Y-94327429D01*
X169944000Y-95581000D01*
X171654000Y-95581000D01*
X171654000Y-92576753D01*
X171754000Y-92576753D01*
X171754000Y-95581000D01*
X173464000Y-95581000D01*
X173464000Y-94276550D01*
X174511519Y-94276550D01*
X174933857Y-95298686D01*
X175715201Y-96081395D01*
X176736598Y-96505516D01*
X177842550Y-96506481D01*
X178864686Y-96084143D01*
X179647395Y-95302799D01*
X180071516Y-94281402D01*
X180072481Y-93175450D01*
X179650143Y-92153314D01*
X178868799Y-91370605D01*
X177847402Y-90946484D01*
X176741450Y-90945519D01*
X175719314Y-91367857D01*
X174936605Y-92149201D01*
X174512484Y-93170598D01*
X174511519Y-94276550D01*
X173464000Y-94276550D01*
X173464000Y-94186000D01*
X173310894Y-93516283D01*
X172913153Y-92956136D01*
X172331329Y-92590837D01*
X172028598Y-92506192D01*
X171754000Y-92576753D01*
X171654000Y-92576753D01*
X171379402Y-92506192D01*
X171076671Y-92590837D01*
X170494847Y-92956136D01*
X170097106Y-93516283D01*
X170094562Y-93527410D01*
X170085952Y-93506571D01*
X169917317Y-93337641D01*
X169696871Y-93246104D01*
X169458176Y-93245896D01*
X169360587Y-93286219D01*
X169378978Y-93259303D01*
X169403077Y-93140300D01*
X169403077Y-92327500D01*
X169382158Y-92216327D01*
X169316455Y-92114221D01*
X169216203Y-92045722D01*
X169097200Y-92021623D01*
X168106600Y-92021623D01*
X167995427Y-92042542D01*
X167893321Y-92108245D01*
X167824822Y-92208497D01*
X167800723Y-92327500D01*
X167800723Y-92585643D01*
X167767055Y-92533321D01*
X167666803Y-92464822D01*
X167547800Y-92440723D01*
X166836600Y-92440723D01*
X166725427Y-92461642D01*
X166623321Y-92527345D01*
X166554822Y-92627597D01*
X166530723Y-92746600D01*
X166530723Y-94499200D01*
X166551642Y-94610373D01*
X166592200Y-94673402D01*
X166592200Y-97932272D01*
X164472736Y-100051736D01*
X164342672Y-100246390D01*
X164297000Y-100476000D01*
X164297000Y-102366000D01*
X164342672Y-102595610D01*
X164472736Y-102790264D01*
X166937000Y-105254528D01*
X166937000Y-109177472D01*
X166252877Y-109861595D01*
X166252877Y-109846000D01*
X166231958Y-109734827D01*
X166166255Y-109632721D01*
X166066003Y-109564222D01*
X165947000Y-109540123D01*
X162947000Y-109540123D01*
X162835827Y-109561042D01*
X162733721Y-109626745D01*
X162665222Y-109726997D01*
X162641123Y-109846000D01*
X162641123Y-110146000D01*
X162509950Y-110146000D01*
X161208877Y-108844927D01*
X161208877Y-108554000D01*
X161187958Y-108442827D01*
X161122255Y-108340721D01*
X161022003Y-108272222D01*
X160932021Y-108254000D01*
X160982565Y-108254000D01*
X161129582Y-108193104D01*
X161242104Y-108080582D01*
X161303000Y-107933565D01*
X161303000Y-107404000D01*
X161203000Y-107304000D01*
X160578000Y-107304000D01*
X160578000Y-107324000D01*
X160478000Y-107324000D01*
X160478000Y-107304000D01*
X159853000Y-107304000D01*
X159753000Y-107404000D01*
X159753000Y-107933565D01*
X159813896Y-108080582D01*
X159926418Y-108193104D01*
X160073435Y-108254000D01*
X160121767Y-108254000D01*
X160041827Y-108269042D01*
X159939721Y-108334745D01*
X159871222Y-108434997D01*
X159847123Y-108554000D01*
X159052877Y-108554000D01*
X159052877Y-108191000D01*
X159031958Y-108079827D01*
X158966255Y-107977721D01*
X158866003Y-107909222D01*
X158747000Y-107885123D01*
X158097000Y-107885123D01*
X157985827Y-107906042D01*
X157947471Y-107930723D01*
X157916003Y-107909222D01*
X157897000Y-107905374D01*
X157897000Y-107891200D01*
X157885471Y-107833241D01*
X157864649Y-107728559D01*
X157772521Y-107590680D01*
X157632840Y-107451000D01*
X157876565Y-107451000D01*
X158023582Y-107390104D01*
X158063577Y-107350109D01*
X158097000Y-107356877D01*
X158747000Y-107356877D01*
X158858173Y-107335958D01*
X158960279Y-107270255D01*
X159028778Y-107170003D01*
X159052877Y-107051000D01*
X159052877Y-106488651D01*
X159277528Y-106264000D01*
X160049293Y-106264000D01*
X159926418Y-106314896D01*
X159813896Y-106427418D01*
X159753000Y-106574435D01*
X159753000Y-107104000D01*
X159853000Y-107204000D01*
X160478000Y-107204000D01*
X160478000Y-107184000D01*
X160578000Y-107184000D01*
X160578000Y-107204000D01*
X161203000Y-107204000D01*
X161303000Y-107104000D01*
X161303000Y-106574435D01*
X161242104Y-106427418D01*
X161129582Y-106314896D01*
X161006707Y-106264000D01*
X161168472Y-106264000D01*
X162641123Y-107736651D01*
X162641123Y-108846000D01*
X162662042Y-108957173D01*
X162727745Y-109059279D01*
X162827997Y-109127778D01*
X162947000Y-109151877D01*
X165947000Y-109151877D01*
X166058173Y-109130958D01*
X166160279Y-109065255D01*
X166228778Y-108965003D01*
X166252877Y-108846000D01*
X166252877Y-106846000D01*
X166231958Y-106734827D01*
X166166255Y-106632721D01*
X166066003Y-106564222D01*
X165947000Y-106540123D01*
X163141651Y-106540123D01*
X161841264Y-105239736D01*
X161646610Y-105109672D01*
X161417000Y-105064000D01*
X159029000Y-105064000D01*
X158799390Y-105109672D01*
X158686470Y-105185123D01*
X158097000Y-105185123D01*
X158063174Y-105191488D01*
X158023582Y-105151896D01*
X157876565Y-105091000D01*
X157622000Y-105091000D01*
X157522000Y-105191000D01*
X157522000Y-106221000D01*
X157542000Y-106221000D01*
X157542000Y-106321000D01*
X157522000Y-106321000D01*
X157522000Y-106341000D01*
X157422000Y-106341000D01*
X157422000Y-106321000D01*
X157402000Y-106321000D01*
X157402000Y-106221000D01*
X157422000Y-106221000D01*
X157422000Y-105191000D01*
X157322000Y-105091000D01*
X157067435Y-105091000D01*
X156920418Y-105151896D01*
X156880423Y-105191891D01*
X156847000Y-105185123D01*
X156197000Y-105185123D01*
X156085827Y-105206042D01*
X155983721Y-105271745D01*
X155915222Y-105371997D01*
X155891123Y-105491000D01*
X155891123Y-105842782D01*
X155813717Y-105765241D01*
X155593271Y-105673704D01*
X155354576Y-105673496D01*
X155133971Y-105764648D01*
X154965041Y-105933283D01*
X154873504Y-106153729D01*
X154873296Y-106392424D01*
X154964448Y-106613029D01*
X155133083Y-106781959D01*
X155353529Y-106873496D01*
X155592224Y-106873704D01*
X155812829Y-106782552D01*
X155891123Y-106704395D01*
X155891123Y-107051000D01*
X155912042Y-107162173D01*
X155947171Y-107216765D01*
X155894959Y-107227151D01*
X155757080Y-107319280D01*
X154956960Y-108119400D01*
X154706477Y-108119400D01*
X154706477Y-107944400D01*
X154685558Y-107833227D01*
X154619855Y-107731121D01*
X154519603Y-107662622D01*
X154429621Y-107644400D01*
X154480165Y-107644400D01*
X154627182Y-107583504D01*
X154739704Y-107470982D01*
X154800600Y-107323965D01*
X154800600Y-106794400D01*
X154700600Y-106694400D01*
X154075600Y-106694400D01*
X154075600Y-106714400D01*
X153975600Y-106714400D01*
X153975600Y-106694400D01*
X153350600Y-106694400D01*
X153250600Y-106794400D01*
X153250600Y-107323965D01*
X153311496Y-107470982D01*
X153424018Y-107583504D01*
X153571035Y-107644400D01*
X153619367Y-107644400D01*
X153539427Y-107659442D01*
X153437321Y-107725145D01*
X153368822Y-107825397D01*
X153344723Y-107944400D01*
X153344723Y-108355400D01*
X152978077Y-108355400D01*
X152978077Y-108180400D01*
X152957158Y-108069227D01*
X152891455Y-107967121D01*
X152822200Y-107919801D01*
X152822200Y-105964835D01*
X153250600Y-105964835D01*
X153250600Y-106494400D01*
X153350600Y-106594400D01*
X153975600Y-106594400D01*
X153975600Y-105744400D01*
X154075600Y-105744400D01*
X154075600Y-106594400D01*
X154700600Y-106594400D01*
X154800600Y-106494400D01*
X154800600Y-105964835D01*
X154739704Y-105817818D01*
X154627182Y-105705296D01*
X154480165Y-105644400D01*
X154175600Y-105644400D01*
X154075600Y-105744400D01*
X153975600Y-105744400D01*
X153875600Y-105644400D01*
X153571035Y-105644400D01*
X153424018Y-105705296D01*
X153311496Y-105817818D01*
X153250600Y-105964835D01*
X152822200Y-105964835D01*
X152822200Y-105760128D01*
X154096328Y-104486000D01*
X163664328Y-104486000D01*
X163742005Y-104563812D01*
X164035932Y-104685861D01*
X164354192Y-104686139D01*
X164648332Y-104564603D01*
X164873572Y-104339755D01*
X164995621Y-104045828D01*
X164995899Y-103727568D01*
X164874363Y-103433428D01*
X164649515Y-103208188D01*
X164355588Y-103086139D01*
X164037328Y-103085861D01*
X163743188Y-103207397D01*
X163664448Y-103286000D01*
X153847800Y-103286000D01*
X153618190Y-103331672D01*
X153423536Y-103461736D01*
X151798672Y-105086600D01*
X151318641Y-105086600D01*
X151250877Y-105018836D01*
X151250877Y-103964000D01*
X151229958Y-103852827D01*
X151164255Y-103750721D01*
X151064003Y-103682222D01*
X150945000Y-103658123D01*
X150045000Y-103658123D01*
X149933827Y-103679042D01*
X149831721Y-103744745D01*
X149763222Y-103844997D01*
X149739123Y-103964000D01*
X149739123Y-104289000D01*
X149143877Y-104289000D01*
X149143877Y-104114000D01*
X149122958Y-104002827D01*
X149057255Y-103900721D01*
X148957003Y-103832222D01*
X148838000Y-103808123D01*
X148088000Y-103808123D01*
X147976827Y-103829042D01*
X147874721Y-103894745D01*
X147806222Y-103994997D01*
X147782123Y-104114000D01*
X147782123Y-105314000D01*
X147803042Y-105425173D01*
X147868745Y-105527279D01*
X147968997Y-105595778D01*
X148058979Y-105614000D01*
X148008435Y-105614000D01*
X147861418Y-105674896D01*
X147748896Y-105787418D01*
X147688000Y-105934435D01*
X147688000Y-106464000D01*
X147788000Y-106564000D01*
X148413000Y-106564000D01*
X148413000Y-106544000D01*
X148513000Y-106544000D01*
X148513000Y-106564000D01*
X149138000Y-106564000D01*
X149238000Y-106464000D01*
X149238000Y-105934435D01*
X149177104Y-105787418D01*
X149064582Y-105674896D01*
X148917565Y-105614000D01*
X148869233Y-105614000D01*
X148949173Y-105598958D01*
X149051279Y-105533255D01*
X149119778Y-105433003D01*
X149143877Y-105314000D01*
X149143877Y-105139000D01*
X149739123Y-105139000D01*
X149739123Y-105164000D01*
X149760042Y-105275173D01*
X149825745Y-105377279D01*
X149925997Y-105445778D01*
X150045000Y-105469877D01*
X150499836Y-105469877D01*
X150842080Y-105812121D01*
X150910927Y-105858123D01*
X150045000Y-105858123D01*
X149933827Y-105879042D01*
X149831721Y-105944745D01*
X149763222Y-106044997D01*
X149739123Y-106164000D01*
X149739123Y-106402913D01*
X149648480Y-106463479D01*
X149238000Y-106873959D01*
X149238000Y-106764000D01*
X149138000Y-106664000D01*
X148513000Y-106664000D01*
X148513000Y-107514000D01*
X148555480Y-107556480D01*
X148334837Y-107777123D01*
X147421000Y-107777123D01*
X147309827Y-107798042D01*
X147207721Y-107863745D01*
X147139222Y-107963997D01*
X147125248Y-108033000D01*
X146105000Y-108033000D01*
X146083688Y-108037239D01*
X146056871Y-108026104D01*
X145818176Y-108025896D01*
X145597571Y-108117048D01*
X145513472Y-108201000D01*
X145283040Y-108201000D01*
X144796339Y-107714299D01*
X144855621Y-107753910D01*
X145142634Y-107811000D01*
X146803366Y-107811000D01*
X147090379Y-107753910D01*
X147333696Y-107591330D01*
X147496276Y-107348013D01*
X147553366Y-107061000D01*
X147496276Y-106773987D01*
X147489603Y-106764000D01*
X147688000Y-106764000D01*
X147688000Y-107293565D01*
X147748896Y-107440582D01*
X147861418Y-107553104D01*
X148008435Y-107614000D01*
X148313000Y-107614000D01*
X148413000Y-107514000D01*
X148413000Y-106664000D01*
X147788000Y-106664000D01*
X147688000Y-106764000D01*
X147489603Y-106764000D01*
X147333696Y-106530670D01*
X147177047Y-106426000D01*
X147333696Y-106321330D01*
X147496276Y-106078013D01*
X147553366Y-105791000D01*
X147496276Y-105503987D01*
X147333696Y-105260670D01*
X147177047Y-105156000D01*
X147333696Y-105051330D01*
X147496276Y-104808013D01*
X147553366Y-104521000D01*
X147496276Y-104233987D01*
X147333696Y-103990670D01*
X147177047Y-103886000D01*
X147333696Y-103781330D01*
X147496276Y-103538013D01*
X147553366Y-103251000D01*
X147496276Y-102963987D01*
X147333696Y-102720670D01*
X147177047Y-102616000D01*
X147333696Y-102511330D01*
X147496276Y-102268013D01*
X147553366Y-101981000D01*
X147496276Y-101693987D01*
X147333696Y-101450670D01*
X147177047Y-101346000D01*
X147333696Y-101241330D01*
X147496276Y-100998013D01*
X147552000Y-100717867D01*
X147552000Y-101396000D01*
X147574406Y-101508641D01*
X147584351Y-101558641D01*
X147676480Y-101696520D01*
X148489123Y-102509164D01*
X148489123Y-103066000D01*
X148510042Y-103177173D01*
X148575745Y-103279279D01*
X148675997Y-103347778D01*
X148795000Y-103371877D01*
X149995000Y-103371877D01*
X150106173Y-103350958D01*
X150208279Y-103285255D01*
X150276778Y-103185003D01*
X150300877Y-103066000D01*
X150300877Y-102166000D01*
X150279958Y-102054827D01*
X150214255Y-101952721D01*
X150114003Y-101884222D01*
X149995000Y-101860123D01*
X149481083Y-101860123D01*
X149395000Y-101843000D01*
X149308917Y-101860123D01*
X149042164Y-101860123D01*
X148637963Y-101455923D01*
X148845824Y-101456104D01*
X149066429Y-101364952D01*
X149170563Y-101261000D01*
X149234899Y-101261000D01*
X149317997Y-101317778D01*
X149437000Y-101341877D01*
X150937000Y-101341877D01*
X151048173Y-101320958D01*
X151150279Y-101255255D01*
X151218778Y-101155003D01*
X151242877Y-101036000D01*
X151242877Y-100636000D01*
X151221958Y-100524827D01*
X151213846Y-100512221D01*
X151218778Y-100505003D01*
X151242877Y-100386000D01*
X151242877Y-99986000D01*
X151221958Y-99874827D01*
X151213846Y-99862221D01*
X151218778Y-99855003D01*
X151242877Y-99736000D01*
X151242877Y-99383540D01*
X151417129Y-99455896D01*
X151535959Y-99456000D01*
X151791123Y-99711164D01*
X151791123Y-99736000D01*
X151812042Y-99847173D01*
X151820154Y-99859779D01*
X151815222Y-99866997D01*
X151791123Y-99986000D01*
X151791123Y-100386000D01*
X151812042Y-100497173D01*
X151820154Y-100509779D01*
X151815222Y-100516997D01*
X151791123Y-100636000D01*
X151791123Y-101036000D01*
X151812042Y-101147173D01*
X151877745Y-101249279D01*
X151977997Y-101317778D01*
X152097000Y-101341877D01*
X152422000Y-101341877D01*
X152422000Y-101964757D01*
X152414255Y-101952721D01*
X152314003Y-101884222D01*
X152195000Y-101860123D01*
X150995000Y-101860123D01*
X150883827Y-101881042D01*
X150781721Y-101946745D01*
X150713222Y-102046997D01*
X150689123Y-102166000D01*
X150689123Y-103066000D01*
X150710042Y-103177173D01*
X150775745Y-103279279D01*
X150875997Y-103347778D01*
X150995000Y-103371877D01*
X152195000Y-103371877D01*
X152306173Y-103350958D01*
X152408279Y-103285255D01*
X152476778Y-103185003D01*
X152500877Y-103066000D01*
X152500877Y-103020338D01*
X152532657Y-103014016D01*
X152559641Y-103008649D01*
X152697520Y-102916520D01*
X153067000Y-102547040D01*
X153166999Y-102647039D01*
X153166896Y-102764824D01*
X153258048Y-102985429D01*
X153426683Y-103154359D01*
X153647129Y-103245896D01*
X153885824Y-103246104D01*
X154106429Y-103154952D01*
X154275359Y-102986317D01*
X154366896Y-102765871D01*
X154367104Y-102527176D01*
X154275952Y-102306571D01*
X154107317Y-102137641D01*
X153886871Y-102046104D01*
X153768041Y-102046000D01*
X153726041Y-102004000D01*
X154387000Y-102004000D01*
X154387000Y-102308565D01*
X154447896Y-102455582D01*
X154560418Y-102568104D01*
X154707435Y-102629000D01*
X155237000Y-102629000D01*
X155337000Y-102529000D01*
X155337000Y-101904000D01*
X154487000Y-101904000D01*
X154387000Y-102004000D01*
X153726041Y-102004000D01*
X153272000Y-101549960D01*
X153272000Y-101341877D01*
X153597000Y-101341877D01*
X153708173Y-101320958D01*
X153810279Y-101255255D01*
X153878778Y-101155003D01*
X153902877Y-101036000D01*
X153902877Y-100636000D01*
X153898173Y-100611000D01*
X154017000Y-100611000D01*
X154152657Y-100584016D01*
X154179641Y-100578649D01*
X154317520Y-100486520D01*
X154424039Y-100380002D01*
X154486998Y-100380002D01*
X154387000Y-100480000D01*
X154387000Y-100784565D01*
X154447896Y-100931582D01*
X154560418Y-101044104D01*
X154676050Y-101092000D01*
X154560418Y-101139896D01*
X154447896Y-101252418D01*
X154387000Y-101399435D01*
X154387000Y-101704000D01*
X154487000Y-101804000D01*
X155337000Y-101804000D01*
X155337000Y-101179000D01*
X155250000Y-101092000D01*
X155337000Y-101005000D01*
X155337000Y-100380000D01*
X155317000Y-100380000D01*
X155317000Y-100280000D01*
X155337000Y-100280000D01*
X155337000Y-99655000D01*
X155437000Y-99655000D01*
X155437000Y-100280000D01*
X155457000Y-100280000D01*
X155457000Y-100380000D01*
X155437000Y-100380000D01*
X155437000Y-101005000D01*
X155524000Y-101092000D01*
X155437000Y-101179000D01*
X155437000Y-101804000D01*
X155457000Y-101804000D01*
X155457000Y-101904000D01*
X155437000Y-101904000D01*
X155437000Y-102529000D01*
X155537000Y-102629000D01*
X156066565Y-102629000D01*
X156213582Y-102568104D01*
X156326104Y-102455582D01*
X156387000Y-102308565D01*
X156387000Y-102260233D01*
X156402042Y-102340173D01*
X156467745Y-102442279D01*
X156567997Y-102510778D01*
X156687000Y-102534877D01*
X157887000Y-102534877D01*
X157998173Y-102513958D01*
X158100279Y-102448255D01*
X158168778Y-102348003D01*
X158182752Y-102279000D01*
X160441508Y-102279000D01*
X160546683Y-102384359D01*
X160767129Y-102475896D01*
X161005824Y-102476104D01*
X161226429Y-102384952D01*
X161395359Y-102216317D01*
X161486896Y-101995871D01*
X161487104Y-101757176D01*
X161395952Y-101536571D01*
X161227317Y-101367641D01*
X161006871Y-101276104D01*
X160768176Y-101275896D01*
X160547571Y-101367048D01*
X160485511Y-101429000D01*
X158183469Y-101429000D01*
X158171958Y-101367827D01*
X158106255Y-101265721D01*
X158006003Y-101197222D01*
X157887000Y-101173123D01*
X157712000Y-101173123D01*
X157712000Y-101010877D01*
X157887000Y-101010877D01*
X157998173Y-100989958D01*
X158100279Y-100924255D01*
X158168778Y-100824003D01*
X158192877Y-100705000D01*
X158192877Y-99955000D01*
X158171958Y-99843827D01*
X158106255Y-99741721D01*
X158006003Y-99673222D01*
X157887000Y-99649123D01*
X157712000Y-99649123D01*
X157712000Y-96082040D01*
X158042840Y-95751200D01*
X158069644Y-95751200D01*
X158063123Y-95783400D01*
X158063123Y-96189800D01*
X158084042Y-96300973D01*
X158086218Y-96304355D01*
X158063123Y-96418400D01*
X158063123Y-96824800D01*
X158084042Y-96935973D01*
X158093479Y-96950639D01*
X158087222Y-96959797D01*
X158063123Y-97078800D01*
X158063123Y-97485200D01*
X158084042Y-97596373D01*
X158086218Y-97599755D01*
X158063123Y-97713800D01*
X158063123Y-98120200D01*
X158084042Y-98231373D01*
X158149745Y-98333479D01*
X158249997Y-98401978D01*
X158369000Y-98426077D01*
X158896037Y-98426077D01*
X160046999Y-99577039D01*
X160046896Y-99694824D01*
X160138048Y-99915429D01*
X160306683Y-100084359D01*
X160527129Y-100175896D01*
X160765824Y-100176104D01*
X160986429Y-100084952D01*
X161155359Y-99916317D01*
X161246896Y-99695871D01*
X161247104Y-99457176D01*
X161231094Y-99418427D01*
X163654044Y-99418427D01*
X163697641Y-99576666D01*
X164030479Y-99708625D01*
X164388480Y-99703166D01*
X164693879Y-99576666D01*
X164737476Y-99418427D01*
X164195760Y-98876711D01*
X163654044Y-99418427D01*
X161231094Y-99418427D01*
X161155952Y-99236571D01*
X160987317Y-99067641D01*
X160766871Y-98976104D01*
X160648040Y-98976000D01*
X160312759Y-98640719D01*
X163293135Y-98640719D01*
X163298594Y-98998720D01*
X163425094Y-99304119D01*
X163583333Y-99347716D01*
X164125049Y-98806000D01*
X164266471Y-98806000D01*
X164808187Y-99347716D01*
X164966426Y-99304119D01*
X165098385Y-98971281D01*
X165092926Y-98613280D01*
X164966426Y-98307881D01*
X164808187Y-98264284D01*
X164266471Y-98806000D01*
X164125049Y-98806000D01*
X163583333Y-98264284D01*
X163425094Y-98307881D01*
X163293135Y-98640719D01*
X160312759Y-98640719D01*
X159916908Y-98244868D01*
X159920778Y-98239203D01*
X159930018Y-98193573D01*
X163654044Y-98193573D01*
X164195760Y-98735289D01*
X164737476Y-98193573D01*
X164693879Y-98035334D01*
X164361041Y-97903375D01*
X164003040Y-97908834D01*
X163697641Y-98035334D01*
X163654044Y-98193573D01*
X159930018Y-98193573D01*
X159944877Y-98120200D01*
X159944877Y-97713800D01*
X159943597Y-97707000D01*
X161091000Y-97707000D01*
X161226657Y-97680016D01*
X161253641Y-97674649D01*
X161391520Y-97582520D01*
X162468039Y-96506001D01*
X162585824Y-96506104D01*
X162806429Y-96414952D01*
X162975359Y-96246317D01*
X163066896Y-96025871D01*
X163067104Y-95787176D01*
X162975952Y-95566571D01*
X162807317Y-95397641D01*
X162586871Y-95306104D01*
X162348176Y-95305896D01*
X162127571Y-95397048D01*
X161958641Y-95565683D01*
X161867104Y-95786129D01*
X161867000Y-95904960D01*
X160914960Y-96857000D01*
X159938356Y-96857000D01*
X159944877Y-96824800D01*
X159944877Y-96418400D01*
X159943597Y-96411600D01*
X160116400Y-96411600D01*
X160258378Y-96383359D01*
X160279041Y-96379249D01*
X160416920Y-96287120D01*
X160998039Y-95706001D01*
X161115824Y-95706104D01*
X161336429Y-95614952D01*
X161505359Y-95446317D01*
X161596896Y-95225871D01*
X161597104Y-94987176D01*
X161505952Y-94766571D01*
X161337317Y-94597641D01*
X161116871Y-94506104D01*
X160878176Y-94505896D01*
X160657571Y-94597048D01*
X160488641Y-94765683D01*
X160397104Y-94986129D01*
X160397000Y-95104959D01*
X159940360Y-95561600D01*
X159938356Y-95561600D01*
X159944877Y-95529400D01*
X159944877Y-95128809D01*
X159978104Y-95095582D01*
X160039000Y-94948565D01*
X160039000Y-94815800D01*
X159939000Y-94715800D01*
X159054000Y-94715800D01*
X159054000Y-94735800D01*
X158954000Y-94735800D01*
X158954000Y-94715800D01*
X158069000Y-94715800D01*
X157969000Y-94815800D01*
X157969000Y-94901200D01*
X157866800Y-94901200D01*
X157731143Y-94928184D01*
X157704159Y-94933551D01*
X157566280Y-95025680D01*
X156986480Y-95605480D01*
X156894351Y-95743359D01*
X156891840Y-95755982D01*
X156862000Y-95906000D01*
X156862000Y-99649123D01*
X156687000Y-99649123D01*
X156575827Y-99670042D01*
X156473721Y-99735745D01*
X156405222Y-99835997D01*
X156387000Y-99925979D01*
X156387000Y-99875435D01*
X156326104Y-99728418D01*
X156213582Y-99615896D01*
X156066565Y-99555000D01*
X155537000Y-99555000D01*
X155437000Y-99655000D01*
X155337000Y-99655000D01*
X155237000Y-99555000D01*
X154707435Y-99555000D01*
X154612000Y-99594530D01*
X154612000Y-99196000D01*
X154579649Y-99033360D01*
X154527622Y-98955496D01*
X154487520Y-98895479D01*
X154027520Y-98435480D01*
X154013448Y-98426077D01*
X154305000Y-98426077D01*
X154416173Y-98405158D01*
X154518279Y-98339455D01*
X154586778Y-98239203D01*
X154610877Y-98120200D01*
X154610877Y-97713800D01*
X154589958Y-97602627D01*
X154587782Y-97599245D01*
X154610877Y-97485200D01*
X154610877Y-97078800D01*
X154589958Y-96967627D01*
X154580521Y-96952961D01*
X154586778Y-96943803D01*
X154610877Y-96824800D01*
X154610877Y-96418400D01*
X154589958Y-96307227D01*
X154587782Y-96303845D01*
X154610877Y-96189800D01*
X154610877Y-95789209D01*
X154644104Y-95755982D01*
X154705000Y-95608965D01*
X154705000Y-95476200D01*
X154605000Y-95376200D01*
X153720000Y-95376200D01*
X153720000Y-95396200D01*
X153620000Y-95396200D01*
X153620000Y-95376200D01*
X152735000Y-95376200D01*
X152635000Y-95476200D01*
X152635000Y-95608965D01*
X152695896Y-95755982D01*
X152729123Y-95789209D01*
X152729123Y-96189800D01*
X152750042Y-96300973D01*
X152752218Y-96304355D01*
X152729123Y-96418400D01*
X152729123Y-96824800D01*
X152750042Y-96935973D01*
X152759479Y-96950639D01*
X152753222Y-96959797D01*
X152729123Y-97078800D01*
X152729123Y-97485200D01*
X152750042Y-97596373D01*
X152752218Y-97599755D01*
X152729123Y-97713800D01*
X152729123Y-98120200D01*
X152750042Y-98231373D01*
X152801280Y-98311000D01*
X152717040Y-98311000D01*
X152500877Y-98094837D01*
X152500877Y-97340000D01*
X152479958Y-97228827D01*
X152414255Y-97126721D01*
X152314003Y-97058222D01*
X152195000Y-97034123D01*
X150995000Y-97034123D01*
X150883827Y-97055042D01*
X150781721Y-97120745D01*
X150713222Y-97220997D01*
X150689123Y-97340000D01*
X150689123Y-98240000D01*
X150710042Y-98351173D01*
X150775745Y-98453279D01*
X150875997Y-98521778D01*
X150995000Y-98545877D01*
X151016103Y-98545877D01*
X150937104Y-98736129D01*
X150936896Y-98974824D01*
X150961822Y-99035150D01*
X150937000Y-99030123D01*
X150612000Y-99030123D01*
X150612000Y-98582000D01*
X150583786Y-98440159D01*
X150579649Y-98419359D01*
X150487520Y-98281480D01*
X150300877Y-98094837D01*
X150300877Y-97340000D01*
X150279958Y-97228827D01*
X150214255Y-97126721D01*
X150114003Y-97058222D01*
X149995000Y-97034123D01*
X149820000Y-97034123D01*
X149820000Y-96971527D01*
X149905359Y-96886317D01*
X149996896Y-96665871D01*
X149997104Y-96427176D01*
X149905952Y-96206571D01*
X149737317Y-96037641D01*
X149516871Y-95946104D01*
X149278176Y-95945896D01*
X149057571Y-96037048D01*
X148888641Y-96205683D01*
X148797104Y-96426129D01*
X148796896Y-96664824D01*
X148888048Y-96885429D01*
X148970000Y-96967524D01*
X148970000Y-97034123D01*
X148795000Y-97034123D01*
X148683827Y-97055042D01*
X148581721Y-97120745D01*
X148513222Y-97220997D01*
X148489123Y-97340000D01*
X148489123Y-98240000D01*
X148510042Y-98351173D01*
X148575745Y-98453279D01*
X148675997Y-98521778D01*
X148795000Y-98545877D01*
X149549837Y-98545877D01*
X149762000Y-98758040D01*
X149762000Y-99030123D01*
X149437000Y-99030123D01*
X149325827Y-99051042D01*
X149223721Y-99116745D01*
X149155222Y-99216997D01*
X149131123Y-99336000D01*
X149131123Y-99736000D01*
X149135827Y-99761000D01*
X148447000Y-99761000D01*
X148284360Y-99793351D01*
X148284358Y-99793352D01*
X148284359Y-99793352D01*
X148146479Y-99885480D01*
X147676480Y-100355480D01*
X147584351Y-100493359D01*
X147583511Y-100497582D01*
X147552000Y-100656000D01*
X147552000Y-100704133D01*
X147496276Y-100423987D01*
X147333696Y-100180670D01*
X147177047Y-100076000D01*
X147333696Y-99971330D01*
X147496276Y-99728013D01*
X147553366Y-99441000D01*
X147496276Y-99153987D01*
X147333696Y-98910670D01*
X147177047Y-98806000D01*
X147333696Y-98701330D01*
X147496276Y-98458013D01*
X147553366Y-98171000D01*
X147496276Y-97883987D01*
X147333696Y-97640670D01*
X147177047Y-97536000D01*
X147333696Y-97431330D01*
X147496276Y-97188013D01*
X147553366Y-96901000D01*
X147496276Y-96613987D01*
X147333696Y-96370670D01*
X147177047Y-96266000D01*
X147333696Y-96161330D01*
X147496276Y-95918013D01*
X147508844Y-95854824D01*
X150256896Y-95854824D01*
X150348048Y-96075429D01*
X150516683Y-96244359D01*
X150737129Y-96335896D01*
X150975824Y-96336104D01*
X151196429Y-96244952D01*
X151365359Y-96076317D01*
X151456896Y-95855871D01*
X151457104Y-95617176D01*
X151365952Y-95396571D01*
X151302000Y-95332507D01*
X151302000Y-94202040D01*
X152377520Y-93126521D01*
X152446757Y-93022900D01*
X152469649Y-92988640D01*
X152502000Y-92826000D01*
X152502000Y-92702040D01*
X152704041Y-92500000D01*
X152730500Y-92500000D01*
X152729123Y-92506800D01*
X152729123Y-92913200D01*
X152750042Y-93024373D01*
X152759479Y-93039039D01*
X152753222Y-93048197D01*
X152729123Y-93167200D01*
X152729123Y-93573600D01*
X152742195Y-93643072D01*
X152726812Y-93653351D01*
X152611679Y-93730280D01*
X152215961Y-94125999D01*
X152098176Y-94125896D01*
X151877571Y-94217048D01*
X151708641Y-94385683D01*
X151617104Y-94606129D01*
X151616896Y-94844824D01*
X151708048Y-95065429D01*
X151876683Y-95234359D01*
X152097129Y-95325896D01*
X152335824Y-95326104D01*
X152556429Y-95234952D01*
X152635000Y-95156518D01*
X152635000Y-95176200D01*
X152735000Y-95276200D01*
X153620000Y-95276200D01*
X153620000Y-95256200D01*
X153720000Y-95256200D01*
X153720000Y-95276200D01*
X154605000Y-95276200D01*
X154705000Y-95176200D01*
X154705000Y-95043435D01*
X154644104Y-94896418D01*
X154610877Y-94863191D01*
X154610877Y-94462600D01*
X154589958Y-94351427D01*
X154587782Y-94348045D01*
X154610877Y-94234000D01*
X154610877Y-93827600D01*
X154604818Y-93795400D01*
X155117897Y-93795400D01*
X155216683Y-93894359D01*
X155437129Y-93985896D01*
X155675824Y-93986104D01*
X155896429Y-93894952D01*
X156065359Y-93726317D01*
X156156896Y-93505871D01*
X156157104Y-93267176D01*
X156065952Y-93046571D01*
X155920635Y-92901000D01*
X156180960Y-92901000D01*
X156472000Y-93192041D01*
X156472000Y-93439960D01*
X155505961Y-94405999D01*
X155388176Y-94405896D01*
X155167571Y-94497048D01*
X154998641Y-94665683D01*
X154907104Y-94886129D01*
X154906896Y-95124824D01*
X154998048Y-95345429D01*
X155166683Y-95514359D01*
X155387129Y-95605896D01*
X155625824Y-95606104D01*
X155846429Y-95514952D01*
X156015359Y-95346317D01*
X156106896Y-95125871D01*
X156107000Y-95007040D01*
X157197520Y-93916520D01*
X157289649Y-93778641D01*
X157322000Y-93616000D01*
X157322000Y-93016000D01*
X157289649Y-92853360D01*
X157238306Y-92776520D01*
X157197520Y-92715479D01*
X156657520Y-92175480D01*
X156519641Y-92083351D01*
X156492657Y-92077984D01*
X156357000Y-92051000D01*
X155097000Y-92051000D01*
X154961343Y-92077984D01*
X154934359Y-92083351D01*
X154796480Y-92175480D01*
X154686960Y-92285000D01*
X154609500Y-92285000D01*
X154610877Y-92278200D01*
X154610877Y-91871800D01*
X154589958Y-91760627D01*
X154524255Y-91658521D01*
X154424003Y-91590022D01*
X154305000Y-91565923D01*
X153035000Y-91565923D01*
X152923827Y-91586842D01*
X152825676Y-91650000D01*
X152528000Y-91650000D01*
X152365360Y-91682351D01*
X152365358Y-91682352D01*
X152365359Y-91682352D01*
X152227479Y-91774480D01*
X151776480Y-92225480D01*
X151684351Y-92363359D01*
X151684351Y-92363360D01*
X151652000Y-92526000D01*
X151652000Y-92649959D01*
X150576480Y-93725480D01*
X150484351Y-93863359D01*
X150483396Y-93868159D01*
X150452000Y-94026000D01*
X150452000Y-95292504D01*
X150348641Y-95395683D01*
X150257104Y-95616129D01*
X150256896Y-95854824D01*
X147508844Y-95854824D01*
X147553366Y-95631000D01*
X147496276Y-95343987D01*
X147333696Y-95100670D01*
X147090379Y-94938090D01*
X146803366Y-94881000D01*
X145142634Y-94881000D01*
X144855621Y-94938090D01*
X144612304Y-95100670D01*
X144449724Y-95343987D01*
X144392634Y-95631000D01*
X144449724Y-95918013D01*
X144612304Y-96161330D01*
X144768953Y-96266000D01*
X144612304Y-96370670D01*
X144449724Y-96613987D01*
X144392634Y-96901000D01*
X144449724Y-97188013D01*
X144612304Y-97431330D01*
X144768953Y-97536000D01*
X144612304Y-97640670D01*
X144449724Y-97883987D01*
X144392634Y-98171000D01*
X144449724Y-98458013D01*
X144612304Y-98701330D01*
X144768953Y-98806000D01*
X144612304Y-98910670D01*
X144449724Y-99153987D01*
X144392634Y-99441000D01*
X144449724Y-99728013D01*
X144612304Y-99971330D01*
X144768953Y-100076000D01*
X144612304Y-100180670D01*
X144449724Y-100423987D01*
X144392634Y-100711000D01*
X144449724Y-100998013D01*
X144612304Y-101241330D01*
X144768953Y-101346000D01*
X144612304Y-101450670D01*
X144449724Y-101693987D01*
X144392634Y-101981000D01*
X144449724Y-102268013D01*
X144612304Y-102511330D01*
X144768953Y-102616000D01*
X144612304Y-102720670D01*
X144449724Y-102963987D01*
X144392634Y-103251000D01*
X144449724Y-103538013D01*
X144612304Y-103781330D01*
X144768953Y-103886000D01*
X144612304Y-103990670D01*
X144449724Y-104233987D01*
X144392634Y-104521000D01*
X144449724Y-104808013D01*
X144612304Y-105051330D01*
X144768953Y-105156000D01*
X144612304Y-105260670D01*
X144449724Y-105503987D01*
X144392634Y-105791000D01*
X144449724Y-106078013D01*
X144612304Y-106321330D01*
X144768953Y-106426000D01*
X144612304Y-106530670D01*
X144449724Y-106773987D01*
X144392634Y-107061000D01*
X144449724Y-107348013D01*
X144489335Y-107407295D01*
X143982000Y-106899960D01*
X143982000Y-103739530D01*
X144065359Y-103656317D01*
X144156896Y-103435871D01*
X144157104Y-103197176D01*
X144065952Y-102976571D01*
X143897317Y-102807641D01*
X143676871Y-102716104D01*
X143438176Y-102715896D01*
X143217571Y-102807048D01*
X143048641Y-102975683D01*
X142957104Y-103196129D01*
X142956896Y-103434824D01*
X143048048Y-103655429D01*
X143132000Y-103739528D01*
X143132000Y-107076000D01*
X143154477Y-107189000D01*
X143164351Y-107238641D01*
X143256480Y-107376520D01*
X144685966Y-108806006D01*
X144483000Y-108765634D01*
X144195987Y-108822724D01*
X143952670Y-108985304D01*
X143848000Y-109141953D01*
X143743330Y-108985304D01*
X143500013Y-108822724D01*
X143213000Y-108765634D01*
X142925987Y-108822724D01*
X142682670Y-108985304D01*
X142578000Y-109141953D01*
X142473330Y-108985304D01*
X142230013Y-108822724D01*
X141943000Y-108765634D01*
X141655987Y-108822724D01*
X141412670Y-108985304D01*
X141308000Y-109141953D01*
X141203330Y-108985304D01*
X140960013Y-108822724D01*
X140673000Y-108765634D01*
X140385987Y-108822724D01*
X140142670Y-108985304D01*
X140038000Y-109141953D01*
X139933330Y-108985304D01*
X139690013Y-108822724D01*
X139403000Y-108765634D01*
X139115987Y-108822724D01*
X138872670Y-108985304D01*
X138768000Y-109141953D01*
X138663330Y-108985304D01*
X138420013Y-108822724D01*
X138133000Y-108765634D01*
X137845987Y-108822724D01*
X137602670Y-108985304D01*
X137498000Y-109141953D01*
X137393330Y-108985304D01*
X137150013Y-108822724D01*
X136863000Y-108765634D01*
X136575987Y-108822724D01*
X136332670Y-108985304D01*
X136228000Y-109141953D01*
X136123330Y-108985304D01*
X136018000Y-108914924D01*
X136018000Y-108486540D01*
X136233939Y-108270601D01*
X136351724Y-108270704D01*
X136572329Y-108179552D01*
X136741259Y-108010917D01*
X136832796Y-107790471D01*
X136833004Y-107551776D01*
X136741852Y-107331171D01*
X136573217Y-107162241D01*
X136352771Y-107070704D01*
X136114076Y-107070496D01*
X135893471Y-107161648D01*
X135724541Y-107330283D01*
X135633004Y-107550729D01*
X135632900Y-107669559D01*
X135292480Y-108009980D01*
X135200351Y-108147859D01*
X135200351Y-108147860D01*
X135168000Y-108310500D01*
X135168000Y-108914924D01*
X135062670Y-108985304D01*
X134958000Y-109141953D01*
X134853330Y-108985304D01*
X134610013Y-108822724D01*
X134323000Y-108765634D01*
X134035987Y-108822724D01*
X133792670Y-108985304D01*
X133688000Y-109141953D01*
X133583330Y-108985304D01*
X133340013Y-108822724D01*
X133053000Y-108765634D01*
X132765987Y-108822724D01*
X132522670Y-108985304D01*
X132418000Y-109141953D01*
X132313330Y-108985304D01*
X132070013Y-108822724D01*
X131783000Y-108765634D01*
X131495987Y-108822724D01*
X131252670Y-108985304D01*
X131148000Y-109141953D01*
X131043330Y-108985304D01*
X130980631Y-108943409D01*
X131773041Y-108151000D01*
X131983504Y-108151000D01*
X132086683Y-108254359D01*
X132307129Y-108345896D01*
X132545824Y-108346104D01*
X132766429Y-108254952D01*
X132935359Y-108086317D01*
X133026896Y-107865871D01*
X133027104Y-107627176D01*
X132935952Y-107406571D01*
X132767317Y-107237641D01*
X132546871Y-107146104D01*
X132308176Y-107145896D01*
X132087571Y-107237048D01*
X132023507Y-107301000D01*
X131597000Y-107301000D01*
X131434359Y-107333351D01*
X131296480Y-107425479D01*
X130212480Y-108509480D01*
X130120351Y-108647359D01*
X130115752Y-108670479D01*
X130088000Y-108810000D01*
X130088000Y-108914924D01*
X129982670Y-108985304D01*
X129878000Y-109141953D01*
X129773330Y-108985304D01*
X129668000Y-108914924D01*
X129668000Y-108677040D01*
X130125239Y-108219801D01*
X130243024Y-108219904D01*
X130463629Y-108128752D01*
X130632559Y-107960117D01*
X130724096Y-107739671D01*
X130724304Y-107500976D01*
X130633152Y-107280371D01*
X130464517Y-107111441D01*
X130244071Y-107019904D01*
X130005376Y-107019696D01*
X129784771Y-107110848D01*
X129615841Y-107279483D01*
X129524304Y-107499929D01*
X129524200Y-107618760D01*
X128942480Y-108200480D01*
X128850351Y-108338359D01*
X128846961Y-108355401D01*
X128818000Y-108501000D01*
X128818000Y-108914924D01*
X128712670Y-108985304D01*
X128657947Y-109067202D01*
X128538685Y-108909604D01*
X128252087Y-108741568D01*
X128155123Y-108715741D01*
X128023000Y-108797669D01*
X127923000Y-108797669D01*
X127790877Y-108715741D01*
X127693913Y-108741568D01*
X127407315Y-108909604D01*
X127206837Y-109174525D01*
X127123000Y-109496000D01*
X126719000Y-109496000D01*
X126719000Y-101796000D01*
X132273000Y-101796000D01*
X132273000Y-104725565D01*
X132333896Y-104872582D01*
X132446418Y-104985104D01*
X132593435Y-105046000D01*
X135523000Y-105046000D01*
X135623000Y-104946000D01*
X135623000Y-101696000D01*
X135723000Y-101696000D01*
X135723000Y-104946000D01*
X135823000Y-105046000D01*
X138752565Y-105046000D01*
X138899582Y-104985104D01*
X139012104Y-104872582D01*
X139073000Y-104725565D01*
X139073000Y-101796000D01*
X138973000Y-101696000D01*
X135723000Y-101696000D01*
X135623000Y-101696000D01*
X132373000Y-101696000D01*
X132273000Y-101796000D01*
X126719000Y-101796000D01*
X126719000Y-98566435D01*
X132273000Y-98566435D01*
X132273000Y-101496000D01*
X132373000Y-101596000D01*
X135623000Y-101596000D01*
X135623000Y-98346000D01*
X135723000Y-98346000D01*
X135723000Y-101596000D01*
X138973000Y-101596000D01*
X139073000Y-101496000D01*
X139073000Y-98566435D01*
X139012104Y-98419418D01*
X138899582Y-98306896D01*
X138752565Y-98246000D01*
X135823000Y-98246000D01*
X135723000Y-98346000D01*
X135623000Y-98346000D01*
X135523000Y-98246000D01*
X132593435Y-98246000D01*
X132446418Y-98306896D01*
X132333896Y-98419418D01*
X132273000Y-98566435D01*
X126719000Y-98566435D01*
X126719000Y-92396000D01*
X127123000Y-92396000D01*
X127123000Y-93196000D01*
X127206837Y-93517475D01*
X127407315Y-93782396D01*
X127693913Y-93950432D01*
X127790877Y-93976259D01*
X127923000Y-93894331D01*
X127923000Y-92396000D01*
X127123000Y-92396000D01*
X126719000Y-92396000D01*
X126719000Y-91496000D01*
X127123000Y-91496000D01*
X127123000Y-92296000D01*
X127923000Y-92296000D01*
X127923000Y-90797669D01*
X128023000Y-90797669D01*
X128023000Y-92296000D01*
X128043000Y-92296000D01*
X128043000Y-92396000D01*
X128023000Y-92396000D01*
X128023000Y-93894331D01*
X128155123Y-93976259D01*
X128252087Y-93950432D01*
X128538685Y-93782396D01*
X128657947Y-93624798D01*
X128712670Y-93706696D01*
X128955987Y-93869276D01*
X129243000Y-93926366D01*
X129530013Y-93869276D01*
X129773330Y-93706696D01*
X129878000Y-93550047D01*
X129982670Y-93706696D01*
X130225987Y-93869276D01*
X130513000Y-93926366D01*
X130800013Y-93869276D01*
X131043330Y-93706696D01*
X131148000Y-93550047D01*
X131252670Y-93706696D01*
X131358000Y-93777076D01*
X131358000Y-94672000D01*
X131380310Y-94784158D01*
X131390351Y-94834641D01*
X131482480Y-94972520D01*
X133676999Y-97167040D01*
X133676896Y-97284824D01*
X133768048Y-97505429D01*
X133936683Y-97674359D01*
X134157129Y-97765896D01*
X134395824Y-97766104D01*
X134616429Y-97674952D01*
X134785359Y-97506317D01*
X134876896Y-97285871D01*
X134877104Y-97047176D01*
X134785952Y-96826571D01*
X134617317Y-96657641D01*
X134396871Y-96566104D01*
X134278041Y-96566000D01*
X132208000Y-94495960D01*
X132208000Y-93777076D01*
X132313330Y-93706696D01*
X132418000Y-93550047D01*
X132522670Y-93706696D01*
X132765987Y-93869276D01*
X133019703Y-93919743D01*
X135046999Y-95947039D01*
X135046896Y-96064824D01*
X135138048Y-96285429D01*
X135306683Y-96454359D01*
X135527129Y-96545896D01*
X135765824Y-96546104D01*
X135986429Y-96454952D01*
X136155359Y-96286317D01*
X136246896Y-96065871D01*
X136247104Y-95827176D01*
X136155952Y-95606571D01*
X135987317Y-95437641D01*
X135766871Y-95346104D01*
X135648040Y-95346000D01*
X134996864Y-94694824D01*
X140426896Y-94694824D01*
X140518048Y-94915429D01*
X140602000Y-94999528D01*
X140602000Y-97496000D01*
X140623523Y-97604203D01*
X140634351Y-97658641D01*
X140726480Y-97796520D01*
X141256999Y-98327039D01*
X141256896Y-98444824D01*
X141348048Y-98665429D01*
X141516683Y-98834359D01*
X141737129Y-98925896D01*
X141975824Y-98926104D01*
X142196429Y-98834952D01*
X142365359Y-98666317D01*
X142456896Y-98445871D01*
X142457104Y-98207176D01*
X142365952Y-97986571D01*
X142197317Y-97817641D01*
X141976871Y-97726104D01*
X141858041Y-97726000D01*
X141452000Y-97319960D01*
X141452000Y-94999530D01*
X141535359Y-94916317D01*
X141626896Y-94695871D01*
X141627104Y-94457176D01*
X141535952Y-94236571D01*
X141367317Y-94067641D01*
X141146871Y-93976104D01*
X140908176Y-93975896D01*
X140687571Y-94067048D01*
X140518641Y-94235683D01*
X140427104Y-94456129D01*
X140426896Y-94694824D01*
X134996864Y-94694824D01*
X134204918Y-93902878D01*
X134323000Y-93926366D01*
X134610013Y-93869276D01*
X134853330Y-93706696D01*
X134958000Y-93550047D01*
X135062670Y-93706696D01*
X135305987Y-93869276D01*
X135593000Y-93926366D01*
X135880013Y-93869276D01*
X136123330Y-93706696D01*
X136228000Y-93550047D01*
X136332670Y-93706696D01*
X136575987Y-93869276D01*
X136863000Y-93926366D01*
X137150013Y-93869276D01*
X137393330Y-93706696D01*
X137498000Y-93550047D01*
X137602670Y-93706696D01*
X137845987Y-93869276D01*
X138133000Y-93926366D01*
X138420013Y-93869276D01*
X138663330Y-93706696D01*
X138768000Y-93550047D01*
X138872670Y-93706696D01*
X139115987Y-93869276D01*
X139403000Y-93926366D01*
X139690013Y-93869276D01*
X139933330Y-93706696D01*
X140038000Y-93550047D01*
X140142670Y-93706696D01*
X140385987Y-93869276D01*
X140673000Y-93926366D01*
X140960013Y-93869276D01*
X141203330Y-93706696D01*
X141308000Y-93550047D01*
X141412670Y-93706696D01*
X141655987Y-93869276D01*
X141943000Y-93926366D01*
X142230013Y-93869276D01*
X142473330Y-93706696D01*
X142578000Y-93550047D01*
X142682670Y-93706696D01*
X142788000Y-93777076D01*
X142788000Y-93912000D01*
X142802799Y-93986400D01*
X142820351Y-94074641D01*
X142912480Y-94212520D01*
X143346480Y-94646521D01*
X143484359Y-94738649D01*
X143647000Y-94771000D01*
X146557000Y-94771000D01*
X146692657Y-94744016D01*
X146719641Y-94738649D01*
X146857520Y-94646520D01*
X146858039Y-94646001D01*
X146975824Y-94646104D01*
X147196429Y-94554952D01*
X147265501Y-94486000D01*
X148182000Y-94486000D01*
X148182000Y-95015565D01*
X148242896Y-95162582D01*
X148355418Y-95275104D01*
X148502435Y-95336000D01*
X148807000Y-95336000D01*
X148907000Y-95236000D01*
X148907000Y-94386000D01*
X149007000Y-94386000D01*
X149007000Y-95236000D01*
X149107000Y-95336000D01*
X149411565Y-95336000D01*
X149558582Y-95275104D01*
X149671104Y-95162582D01*
X149732000Y-95015565D01*
X149732000Y-94486000D01*
X149632000Y-94386000D01*
X149007000Y-94386000D01*
X148907000Y-94386000D01*
X148282000Y-94386000D01*
X148182000Y-94486000D01*
X147265501Y-94486000D01*
X147365359Y-94386317D01*
X147456896Y-94165871D01*
X147457104Y-93927176D01*
X147365952Y-93706571D01*
X147197317Y-93537641D01*
X146976871Y-93446104D01*
X146738176Y-93445896D01*
X146517571Y-93537048D01*
X146348641Y-93705683D01*
X146259234Y-93921000D01*
X144509977Y-93921000D01*
X144770013Y-93869276D01*
X145013330Y-93706696D01*
X145175910Y-93463379D01*
X145233000Y-93176366D01*
X145233000Y-92676268D01*
X145277520Y-92646520D01*
X146278039Y-91646001D01*
X146395824Y-91646104D01*
X146616429Y-91554952D01*
X146785359Y-91386317D01*
X146835807Y-91264824D01*
X147536896Y-91264824D01*
X147628048Y-91485429D01*
X147796683Y-91654359D01*
X148017129Y-91745896D01*
X148255824Y-91746104D01*
X148297844Y-91728742D01*
X148276123Y-91836000D01*
X148276123Y-93036000D01*
X148297042Y-93147173D01*
X148362745Y-93249279D01*
X148462997Y-93317778D01*
X148552979Y-93336000D01*
X148502435Y-93336000D01*
X148355418Y-93396896D01*
X148242896Y-93509418D01*
X148182000Y-93656435D01*
X148182000Y-94186000D01*
X148282000Y-94286000D01*
X148907000Y-94286000D01*
X148907000Y-94266000D01*
X149007000Y-94266000D01*
X149007000Y-94286000D01*
X149632000Y-94286000D01*
X149732000Y-94186000D01*
X149732000Y-93656435D01*
X149671104Y-93509418D01*
X149558582Y-93396896D01*
X149411565Y-93336000D01*
X149363233Y-93336000D01*
X149443173Y-93320958D01*
X149545279Y-93255255D01*
X149613778Y-93155003D01*
X149637877Y-93036000D01*
X149637877Y-92861000D01*
X150133382Y-92861000D01*
X150166683Y-92894359D01*
X150387129Y-92985896D01*
X150625824Y-92986104D01*
X150846429Y-92894952D01*
X151015359Y-92726317D01*
X151106896Y-92505871D01*
X151107104Y-92267176D01*
X151015952Y-92046571D01*
X150847317Y-91877641D01*
X150626871Y-91786104D01*
X150388176Y-91785896D01*
X150167571Y-91877048D01*
X150033385Y-92011000D01*
X149637877Y-92011000D01*
X149637877Y-91836000D01*
X149616958Y-91724827D01*
X149551255Y-91622721D01*
X149451003Y-91554222D01*
X149332000Y-91530123D01*
X148601476Y-91530123D01*
X148645359Y-91486317D01*
X148672481Y-91421000D01*
X158460960Y-91421000D01*
X158579000Y-91539041D01*
X158579000Y-91565923D01*
X158369000Y-91565923D01*
X158257827Y-91586842D01*
X158155721Y-91652545D01*
X158087222Y-91752797D01*
X158063123Y-91871800D01*
X158063123Y-92278200D01*
X158084042Y-92389373D01*
X158086218Y-92392755D01*
X158063123Y-92506800D01*
X158063123Y-92913200D01*
X158084042Y-93024373D01*
X158093479Y-93039039D01*
X158087222Y-93048197D01*
X158063123Y-93167200D01*
X158063123Y-93573600D01*
X158084042Y-93684773D01*
X158093479Y-93699439D01*
X158087222Y-93708597D01*
X158063123Y-93827600D01*
X158063123Y-94202791D01*
X158029896Y-94236018D01*
X157969000Y-94383035D01*
X157969000Y-94515800D01*
X158069000Y-94615800D01*
X158954000Y-94615800D01*
X158954000Y-94595800D01*
X159054000Y-94595800D01*
X159054000Y-94615800D01*
X159939000Y-94615800D01*
X160039000Y-94515800D01*
X160039000Y-94383035D01*
X159978104Y-94236018D01*
X159944877Y-94202791D01*
X159944877Y-93827600D01*
X159923958Y-93716427D01*
X159914521Y-93701761D01*
X159920778Y-93692603D01*
X159944877Y-93573600D01*
X159944877Y-93167200D01*
X159923958Y-93056027D01*
X159914521Y-93041361D01*
X159920778Y-93032203D01*
X159944877Y-92913200D01*
X159944877Y-92506800D01*
X159923958Y-92395627D01*
X159921782Y-92392245D01*
X159934893Y-92327500D01*
X160510923Y-92327500D01*
X160510923Y-93140300D01*
X160531842Y-93251473D01*
X160597545Y-93353579D01*
X160697797Y-93422078D01*
X160816800Y-93446177D01*
X161807400Y-93446177D01*
X161918573Y-93425258D01*
X162020679Y-93359555D01*
X162034923Y-93338708D01*
X162034923Y-94499200D01*
X162055842Y-94610373D01*
X162121545Y-94712479D01*
X162221797Y-94780978D01*
X162340800Y-94805077D01*
X163052000Y-94805077D01*
X163163173Y-94784158D01*
X163265279Y-94718455D01*
X163333778Y-94618203D01*
X163357877Y-94499200D01*
X163357877Y-94047900D01*
X163533523Y-94047900D01*
X163533523Y-94499200D01*
X163554442Y-94610373D01*
X163595000Y-94673402D01*
X163595000Y-95854000D01*
X163596993Y-95864017D01*
X163596896Y-95974824D01*
X163639583Y-96078134D01*
X163640672Y-96083610D01*
X163643747Y-96088212D01*
X163688048Y-96195429D01*
X163770731Y-96278257D01*
X163770736Y-96278264D01*
X163772030Y-96279558D01*
X163856683Y-96364359D01*
X164077129Y-96455896D01*
X164315824Y-96456104D01*
X164536429Y-96364952D01*
X164705359Y-96196317D01*
X164796896Y-95975871D01*
X164797104Y-95737176D01*
X164795000Y-95732084D01*
X164795000Y-94672908D01*
X164832378Y-94618203D01*
X164856477Y-94499200D01*
X164856477Y-92746600D01*
X164835558Y-92635427D01*
X164769855Y-92533321D01*
X164669603Y-92464822D01*
X164550600Y-92440723D01*
X163839400Y-92440723D01*
X163728227Y-92461642D01*
X163626121Y-92527345D01*
X163557622Y-92627597D01*
X163533523Y-92746600D01*
X163533523Y-93197900D01*
X163357877Y-93197900D01*
X163357877Y-92746600D01*
X163336958Y-92635427D01*
X163271255Y-92533321D01*
X163171003Y-92464822D01*
X163052000Y-92440723D01*
X162340800Y-92440723D01*
X162229627Y-92461642D01*
X162127521Y-92527345D01*
X162113277Y-92548192D01*
X162113277Y-92327500D01*
X162092358Y-92216327D01*
X162026655Y-92114221D01*
X161926403Y-92045722D01*
X161807400Y-92021623D01*
X160816800Y-92021623D01*
X160705627Y-92042542D01*
X160603521Y-92108245D01*
X160535022Y-92208497D01*
X160510923Y-92327500D01*
X159934893Y-92327500D01*
X159944877Y-92278200D01*
X159944877Y-91903441D01*
X162713771Y-91903441D01*
X162826875Y-92177175D01*
X163036124Y-92386789D01*
X163309660Y-92500371D01*
X163605841Y-92500629D01*
X163879575Y-92387525D01*
X164089189Y-92178276D01*
X164202771Y-91904740D01*
X164202772Y-91903441D01*
X165710971Y-91903441D01*
X165824075Y-92177175D01*
X166033324Y-92386789D01*
X166306860Y-92500371D01*
X166603041Y-92500629D01*
X166876775Y-92387525D01*
X167086389Y-92178276D01*
X167199971Y-91904740D01*
X167200229Y-91608559D01*
X167087125Y-91334825D01*
X166877876Y-91125211D01*
X166604340Y-91011629D01*
X166308159Y-91011371D01*
X166034425Y-91124475D01*
X165824811Y-91333724D01*
X165711229Y-91607260D01*
X165710971Y-91903441D01*
X164202772Y-91903441D01*
X164203029Y-91608559D01*
X164089925Y-91334825D01*
X163880676Y-91125211D01*
X163607140Y-91011629D01*
X163310959Y-91011371D01*
X163037225Y-91124475D01*
X162827611Y-91333724D01*
X162714029Y-91607260D01*
X162713771Y-91903441D01*
X159944877Y-91903441D01*
X159944877Y-91871800D01*
X159923958Y-91760627D01*
X159858255Y-91658521D01*
X159758003Y-91590022D01*
X159639000Y-91565923D01*
X159429000Y-91565923D01*
X159429000Y-91363000D01*
X159396649Y-91200360D01*
X159345944Y-91124475D01*
X159304520Y-91062479D01*
X158937520Y-90695480D01*
X158799641Y-90603351D01*
X158772657Y-90597984D01*
X158637000Y-90571000D01*
X148316827Y-90571000D01*
X148256871Y-90546104D01*
X148018176Y-90545896D01*
X147797571Y-90637048D01*
X147628641Y-90805683D01*
X147537104Y-91026129D01*
X147536896Y-91264824D01*
X146835807Y-91264824D01*
X146876896Y-91165871D01*
X146877104Y-90927176D01*
X146785952Y-90706571D01*
X146617317Y-90537641D01*
X146396871Y-90446104D01*
X146158176Y-90445896D01*
X145937571Y-90537048D01*
X145768641Y-90705683D01*
X145677104Y-90926129D01*
X145677000Y-91044959D01*
X145228574Y-91493385D01*
X145175910Y-91228621D01*
X145013330Y-90985304D01*
X144770013Y-90822724D01*
X144483000Y-90765634D01*
X144195987Y-90822724D01*
X143952670Y-90985304D01*
X143848000Y-91141953D01*
X143743330Y-90985304D01*
X143500013Y-90822724D01*
X143213000Y-90765634D01*
X142925987Y-90822724D01*
X142682670Y-90985304D01*
X142578000Y-91141953D01*
X142473330Y-90985304D01*
X142230013Y-90822724D01*
X141943000Y-90765634D01*
X141655987Y-90822724D01*
X141412670Y-90985304D01*
X141308000Y-91141953D01*
X141203330Y-90985304D01*
X140960013Y-90822724D01*
X140673000Y-90765634D01*
X140385987Y-90822724D01*
X140142670Y-90985304D01*
X140038000Y-91141953D01*
X139933330Y-90985304D01*
X139690013Y-90822724D01*
X139403000Y-90765634D01*
X139115987Y-90822724D01*
X138872670Y-90985304D01*
X138768000Y-91141953D01*
X138663330Y-90985304D01*
X138420013Y-90822724D01*
X138133000Y-90765634D01*
X137845987Y-90822724D01*
X137602670Y-90985304D01*
X137498000Y-91141953D01*
X137393330Y-90985304D01*
X137150013Y-90822724D01*
X136863000Y-90765634D01*
X136575987Y-90822724D01*
X136332670Y-90985304D01*
X136228000Y-91141953D01*
X136123330Y-90985304D01*
X135880013Y-90822724D01*
X135593000Y-90765634D01*
X135305987Y-90822724D01*
X135062670Y-90985304D01*
X134958000Y-91141953D01*
X134853330Y-90985304D01*
X134610013Y-90822724D01*
X134323000Y-90765634D01*
X134035987Y-90822724D01*
X133792670Y-90985304D01*
X133688000Y-91141953D01*
X133583330Y-90985304D01*
X133340013Y-90822724D01*
X133053000Y-90765634D01*
X132765987Y-90822724D01*
X132522670Y-90985304D01*
X132418000Y-91141953D01*
X132313330Y-90985304D01*
X132070013Y-90822724D01*
X131783000Y-90765634D01*
X131495987Y-90822724D01*
X131252670Y-90985304D01*
X131148000Y-91141953D01*
X131043330Y-90985304D01*
X130800013Y-90822724D01*
X130513000Y-90765634D01*
X130225987Y-90822724D01*
X129982670Y-90985304D01*
X129878000Y-91141953D01*
X129773330Y-90985304D01*
X129530013Y-90822724D01*
X129243000Y-90765634D01*
X128955987Y-90822724D01*
X128712670Y-90985304D01*
X128657947Y-91067202D01*
X128538685Y-90909604D01*
X128252087Y-90741568D01*
X128155123Y-90715741D01*
X128023000Y-90797669D01*
X127923000Y-90797669D01*
X127790877Y-90715741D01*
X127693913Y-90741568D01*
X127407315Y-90909604D01*
X127206837Y-91174525D01*
X127123000Y-91496000D01*
X126719000Y-91496000D01*
X126719000Y-90316000D01*
X160522203Y-90316000D01*
X160510923Y-90371700D01*
M02*
