G04 #@! TF.FileFunction,Legend,Top*
%FSLAX46Y46*%
G04 Gerber Fmt 4.6, Leading zero omitted, Abs format (unit mm)*
G04 Created by KiCad (PCBNEW 4.0.7-e2-6376~58~ubuntu16.04.1) date Thu Oct 19 04:39:58 2017*
%MOMM*%
%LPD*%
G01*
G04 APERTURE LIST*
%ADD10C,0.100000*%
%ADD11C,0.275000*%
%ADD12C,0.300000*%
%ADD13C,0.120000*%
%ADD14C,0.150000*%
%ADD15C,0.500000*%
%ADD16C,0.127000*%
G04 APERTURE END LIST*
D10*
D11*
X121859858Y-91728857D02*
X121459858Y-91157429D01*
X121174143Y-91728857D02*
X121174143Y-90528857D01*
X121631286Y-90528857D01*
X121745572Y-90586000D01*
X121802715Y-90643143D01*
X121859858Y-90757429D01*
X121859858Y-90928857D01*
X121802715Y-91043143D01*
X121745572Y-91100286D01*
X121631286Y-91157429D01*
X121174143Y-91157429D01*
X122831286Y-91671714D02*
X122717000Y-91728857D01*
X122488429Y-91728857D01*
X122374143Y-91671714D01*
X122317000Y-91557429D01*
X122317000Y-91100286D01*
X122374143Y-90986000D01*
X122488429Y-90928857D01*
X122717000Y-90928857D01*
X122831286Y-90986000D01*
X122888429Y-91100286D01*
X122888429Y-91214571D01*
X122317000Y-91328857D01*
X123288429Y-90928857D02*
X123574143Y-91728857D01*
X123859857Y-90928857D01*
X124317000Y-91614571D02*
X124374143Y-91671714D01*
X124317000Y-91728857D01*
X124259857Y-91671714D01*
X124317000Y-91614571D01*
X124317000Y-91728857D01*
X124317000Y-90986000D02*
X124374143Y-91043143D01*
X124317000Y-91100286D01*
X124259857Y-91043143D01*
X124317000Y-90986000D01*
X124317000Y-91100286D01*
X125117001Y-90528857D02*
X125231286Y-90528857D01*
X125345572Y-90586000D01*
X125402715Y-90643143D01*
X125459858Y-90757429D01*
X125517001Y-90986000D01*
X125517001Y-91271714D01*
X125459858Y-91500286D01*
X125402715Y-91614571D01*
X125345572Y-91671714D01*
X125231286Y-91728857D01*
X125117001Y-91728857D01*
X125002715Y-91671714D01*
X124945572Y-91614571D01*
X124888429Y-91500286D01*
X124831286Y-91271714D01*
X124831286Y-90986000D01*
X124888429Y-90757429D01*
X124945572Y-90643143D01*
X125002715Y-90586000D01*
X125117001Y-90528857D01*
D12*
X119574333Y-105276953D02*
X119512429Y-105338857D01*
X119326714Y-105462667D01*
X119202905Y-105524572D01*
X119017190Y-105586476D01*
X118707667Y-105648381D01*
X118460048Y-105648381D01*
X118150524Y-105586476D01*
X117964810Y-105524572D01*
X117841000Y-105462667D01*
X117655286Y-105338857D01*
X117593381Y-105276953D01*
X119017190Y-104224571D02*
X119079095Y-104348381D01*
X119079095Y-104596000D01*
X119017190Y-104719809D01*
X118955286Y-104781714D01*
X118831476Y-104843619D01*
X118460048Y-104843619D01*
X118336238Y-104781714D01*
X118274333Y-104719809D01*
X118212429Y-104596000D01*
X118212429Y-104348381D01*
X118274333Y-104224571D01*
X119574333Y-103791238D02*
X119512429Y-103729333D01*
X119326714Y-103605523D01*
X119202905Y-103543619D01*
X119017190Y-103481714D01*
X118707667Y-103419809D01*
X118460048Y-103419809D01*
X118150524Y-103481714D01*
X117964810Y-103543619D01*
X117841000Y-103605523D01*
X117655286Y-103729333D01*
X117593381Y-103791238D01*
X117779095Y-101438857D02*
X118707667Y-101438857D01*
X118893381Y-101500761D01*
X119017190Y-101624571D01*
X119079095Y-101810285D01*
X119079095Y-101934095D01*
X119017190Y-100324571D02*
X119079095Y-100448381D01*
X119079095Y-100696000D01*
X119017190Y-100819809D01*
X118893381Y-100881714D01*
X118398143Y-100881714D01*
X118274333Y-100819809D01*
X118212429Y-100696000D01*
X118212429Y-100448381D01*
X118274333Y-100324571D01*
X118398143Y-100262666D01*
X118521952Y-100262666D01*
X118645762Y-100881714D01*
X119017190Y-99767428D02*
X119079095Y-99643618D01*
X119079095Y-99395999D01*
X119017190Y-99272190D01*
X118893381Y-99210285D01*
X118831476Y-99210285D01*
X118707667Y-99272190D01*
X118645762Y-99395999D01*
X118645762Y-99581714D01*
X118583857Y-99705523D01*
X118460048Y-99767428D01*
X118398143Y-99767428D01*
X118274333Y-99705523D01*
X118212429Y-99581714D01*
X118212429Y-99395999D01*
X118274333Y-99272190D01*
X118212429Y-98095999D02*
X119079095Y-98095999D01*
X118212429Y-98653142D02*
X118893381Y-98653142D01*
X119017190Y-98591237D01*
X119079095Y-98467428D01*
X119079095Y-98281714D01*
X119017190Y-98157904D01*
X118955286Y-98095999D01*
X119017190Y-97538857D02*
X119079095Y-97415047D01*
X119079095Y-97167428D01*
X119017190Y-97043619D01*
X118893381Y-96981714D01*
X118831476Y-96981714D01*
X118707667Y-97043619D01*
X118645762Y-97167428D01*
X118645762Y-97353143D01*
X118583857Y-97476952D01*
X118460048Y-97538857D01*
X118398143Y-97538857D01*
X118274333Y-97476952D01*
X118212429Y-97353143D01*
X118212429Y-97167428D01*
X118274333Y-97043619D01*
X114855762Y-105155524D02*
X116855762Y-104679333D01*
X115427190Y-104298381D01*
X116855762Y-103917428D01*
X114855762Y-103441238D01*
X116855762Y-102679334D02*
X115522429Y-102679334D01*
X114855762Y-102679334D02*
X114951000Y-102774572D01*
X115046238Y-102679334D01*
X114951000Y-102584095D01*
X114855762Y-102679334D01*
X115046238Y-102679334D01*
X116855762Y-101726953D02*
X114855762Y-101726953D01*
X114855762Y-100965048D01*
X114951000Y-100774572D01*
X115046238Y-100679333D01*
X115236714Y-100584095D01*
X115522429Y-100584095D01*
X115712905Y-100679333D01*
X115808143Y-100774572D01*
X115903381Y-100965048D01*
X115903381Y-101726953D01*
X116855762Y-99726953D02*
X114855762Y-99726953D01*
X116855762Y-97631714D02*
X115903381Y-98298381D01*
X116855762Y-98774572D02*
X114855762Y-98774572D01*
X114855762Y-98012667D01*
X114951000Y-97822191D01*
X115046238Y-97726952D01*
X115236714Y-97631714D01*
X115522429Y-97631714D01*
X115712905Y-97726952D01*
X115808143Y-97822191D01*
X115903381Y-98012667D01*
X115903381Y-98774572D01*
D13*
X119888000Y-93726000D02*
G75*
G03X119888000Y-93726000I-2286000J0D01*
G01*
X119888000Y-108966000D02*
G75*
G03X119888000Y-108966000I-2286000J0D01*
G01*
X179578000Y-108966000D02*
G75*
G03X179578000Y-108966000I-2286000J0D01*
G01*
X159928000Y-108554000D02*
X159928000Y-107854000D01*
X161128000Y-107854000D02*
X161128000Y-108554000D01*
X172612800Y-103698600D02*
X171912800Y-103698600D01*
X171912800Y-102498600D02*
X172612800Y-102498600D01*
X153425600Y-107944400D02*
X153425600Y-107244400D01*
X154625600Y-107244400D02*
X154625600Y-107944400D01*
X171431700Y-100269600D02*
X170731700Y-100269600D01*
X170731700Y-99069600D02*
X171431700Y-99069600D01*
X171431700Y-102085700D02*
X170731700Y-102085700D01*
X170731700Y-100885700D02*
X171431700Y-100885700D01*
X156687000Y-100930000D02*
X155987000Y-100930000D01*
X155987000Y-99730000D02*
X156687000Y-99730000D01*
X156687000Y-102454000D02*
X155987000Y-102454000D01*
X155987000Y-101254000D02*
X156687000Y-101254000D01*
X149557000Y-93036000D02*
X149557000Y-93736000D01*
X148357000Y-93736000D02*
X148357000Y-93036000D01*
X148621000Y-107858000D02*
X149321000Y-107858000D01*
X149321000Y-109058000D02*
X148621000Y-109058000D01*
X149063000Y-105314000D02*
X149063000Y-106014000D01*
X147863000Y-106014000D02*
X147863000Y-105314000D01*
X149244800Y-111559900D02*
X148544800Y-111559900D01*
X148544800Y-110359900D02*
X149244800Y-110359900D01*
X175321800Y-97536000D02*
X175321800Y-97916000D01*
X179371800Y-97536000D02*
X179631800Y-97536000D01*
X175321800Y-97536000D02*
X177091800Y-97536000D01*
X175321800Y-105156000D02*
X175321800Y-104776000D01*
X177091800Y-105156000D02*
X175321800Y-105156000D01*
X179631800Y-105156000D02*
X179371800Y-105156000D01*
D14*
X166447000Y-106346000D02*
X166447000Y-112346000D01*
X166447000Y-112346000D02*
X162447000Y-112346000D01*
X162447000Y-112346000D02*
X162447000Y-106346000D01*
X162447000Y-106346000D02*
X166447000Y-106346000D01*
D13*
X171789800Y-110308500D02*
X172989800Y-110308500D01*
X172989800Y-112068500D02*
X171789800Y-112068500D01*
D15*
X126902981Y-111252000D02*
G75*
G03X126902981Y-111252000I-283981J0D01*
G01*
D14*
X126473000Y-92346000D02*
X126473000Y-110346000D01*
X120473000Y-110346000D02*
X145973000Y-110346000D01*
X120473000Y-92346000D02*
X145973000Y-92346000D01*
X145973000Y-92346000D02*
X145973000Y-110346000D01*
X120473000Y-92346000D02*
X120473000Y-110346000D01*
D13*
X149815000Y-106164000D02*
X149815000Y-105164000D01*
X151175000Y-105164000D02*
X151175000Y-106164000D01*
X168331600Y-96994600D02*
X168331600Y-95994600D01*
X169691600Y-95994600D02*
X169691600Y-96994600D01*
X169894800Y-105189400D02*
X169894800Y-106189400D01*
X168534800Y-106189400D02*
X168534800Y-105189400D01*
X150995000Y-103296000D02*
X149995000Y-103296000D01*
X149995000Y-101936000D02*
X150995000Y-101936000D01*
X149995000Y-97110000D02*
X150995000Y-97110000D01*
X150995000Y-98470000D02*
X149995000Y-98470000D01*
X151542200Y-110380400D02*
X151542200Y-109380400D01*
X152902200Y-109380400D02*
X152902200Y-110380400D01*
X156597000Y-111801000D02*
X155597000Y-111801000D01*
X155597000Y-110441000D02*
X156597000Y-110441000D01*
D14*
X167945760Y-105096000D02*
X168245760Y-104796000D01*
X168245760Y-104796000D02*
X167745760Y-104296000D01*
X167945760Y-105096000D02*
X167645760Y-105396000D01*
X167645760Y-105396000D02*
X167145760Y-104896000D01*
X168795760Y-101346000D02*
G75*
G03X168795760Y-101346000I-4600000J0D01*
G01*
D13*
X155862000Y-106721000D02*
X155862000Y-108521000D01*
X159082000Y-108521000D02*
X159082000Y-105571000D01*
D14*
X158115000Y-98806000D02*
X158115000Y-91186000D01*
X154559000Y-91186000D02*
X154559000Y-98806000D01*
X158115000Y-98806000D02*
X154559000Y-98806000D01*
X154559000Y-91186000D02*
X158115000Y-91186000D01*
X155426210Y-91694000D02*
G75*
G03X155426210Y-91694000I-359210J0D01*
G01*
X156972000Y-91186000D02*
X156972000Y-91948000D01*
X156972000Y-91948000D02*
X155702000Y-91948000D01*
X155702000Y-91948000D02*
X155702000Y-91186000D01*
D13*
X179578000Y-93726000D02*
G75*
G03X179578000Y-93726000I-2286000J0D01*
G01*
X150817000Y-101346000D02*
X152717000Y-101346000D01*
X152217000Y-99026000D02*
X150817000Y-99026000D01*
D14*
X167598600Y-90460600D02*
X162315400Y-90460600D01*
D16*
X159459429Y-108288667D02*
X159483619Y-108312857D01*
X159507810Y-108385429D01*
X159507810Y-108433810D01*
X159483619Y-108506381D01*
X159435238Y-108554762D01*
X159386857Y-108578953D01*
X159290095Y-108603143D01*
X159217524Y-108603143D01*
X159120762Y-108578953D01*
X159072381Y-108554762D01*
X159024000Y-108506381D01*
X158999810Y-108433810D01*
X158999810Y-108385429D01*
X159024000Y-108312857D01*
X159048190Y-108288667D01*
X159507810Y-107804857D02*
X159507810Y-108095143D01*
X159507810Y-107950000D02*
X158999810Y-107950000D01*
X159072381Y-107998381D01*
X159120762Y-108046762D01*
X159144952Y-108095143D01*
X172178133Y-104530029D02*
X172153943Y-104554219D01*
X172081371Y-104578410D01*
X172032990Y-104578410D01*
X171960419Y-104554219D01*
X171912038Y-104505838D01*
X171887847Y-104457457D01*
X171863657Y-104360695D01*
X171863657Y-104288124D01*
X171887847Y-104191362D01*
X171912038Y-104142981D01*
X171960419Y-104094600D01*
X172032990Y-104070410D01*
X172081371Y-104070410D01*
X172153943Y-104094600D01*
X172178133Y-104118790D01*
X172371657Y-104118790D02*
X172395847Y-104094600D01*
X172444228Y-104070410D01*
X172565181Y-104070410D01*
X172613562Y-104094600D01*
X172637752Y-104118790D01*
X172661943Y-104167171D01*
X172661943Y-104215552D01*
X172637752Y-104288124D01*
X172347466Y-104578410D01*
X172661943Y-104578410D01*
X153216429Y-107780667D02*
X153240619Y-107804857D01*
X153264810Y-107877429D01*
X153264810Y-107925810D01*
X153240619Y-107998381D01*
X153192238Y-108046762D01*
X153143857Y-108070953D01*
X153047095Y-108095143D01*
X152974524Y-108095143D01*
X152877762Y-108070953D01*
X152829381Y-108046762D01*
X152781000Y-107998381D01*
X152756810Y-107925810D01*
X152756810Y-107877429D01*
X152781000Y-107804857D01*
X152805190Y-107780667D01*
X152756810Y-107611334D02*
X152756810Y-107296857D01*
X152950333Y-107466191D01*
X152950333Y-107393619D01*
X152974524Y-107345238D01*
X152998714Y-107321048D01*
X153047095Y-107296857D01*
X153168048Y-107296857D01*
X153216429Y-107321048D01*
X153240619Y-107345238D01*
X153264810Y-107393619D01*
X153264810Y-107538762D01*
X153240619Y-107587143D01*
X153216429Y-107611334D01*
X169592333Y-102877429D02*
X169568143Y-102901619D01*
X169495571Y-102925810D01*
X169447190Y-102925810D01*
X169374619Y-102901619D01*
X169326238Y-102853238D01*
X169302047Y-102804857D01*
X169277857Y-102708095D01*
X169277857Y-102635524D01*
X169302047Y-102538762D01*
X169326238Y-102490381D01*
X169374619Y-102442000D01*
X169447190Y-102417810D01*
X169495571Y-102417810D01*
X169568143Y-102442000D01*
X169592333Y-102466190D01*
X170027762Y-102587143D02*
X170027762Y-102925810D01*
X169906809Y-102393619D02*
X169785857Y-102756476D01*
X170100333Y-102756476D01*
X170997033Y-102917129D02*
X170972843Y-102941319D01*
X170900271Y-102965510D01*
X170851890Y-102965510D01*
X170779319Y-102941319D01*
X170730938Y-102892938D01*
X170706747Y-102844557D01*
X170682557Y-102747795D01*
X170682557Y-102675224D01*
X170706747Y-102578462D01*
X170730938Y-102530081D01*
X170779319Y-102481700D01*
X170851890Y-102457510D01*
X170900271Y-102457510D01*
X170972843Y-102481700D01*
X170997033Y-102505890D01*
X171456652Y-102457510D02*
X171214747Y-102457510D01*
X171190557Y-102699414D01*
X171214747Y-102675224D01*
X171263128Y-102651033D01*
X171384081Y-102651033D01*
X171432462Y-102675224D01*
X171456652Y-102699414D01*
X171480843Y-102747795D01*
X171480843Y-102868748D01*
X171456652Y-102917129D01*
X171432462Y-102941319D01*
X171384081Y-102965510D01*
X171263128Y-102965510D01*
X171214747Y-102941319D01*
X171190557Y-102917129D01*
X156252333Y-99495429D02*
X156228143Y-99519619D01*
X156155571Y-99543810D01*
X156107190Y-99543810D01*
X156034619Y-99519619D01*
X155986238Y-99471238D01*
X155962047Y-99422857D01*
X155937857Y-99326095D01*
X155937857Y-99253524D01*
X155962047Y-99156762D01*
X155986238Y-99108381D01*
X156034619Y-99060000D01*
X156107190Y-99035810D01*
X156155571Y-99035810D01*
X156228143Y-99060000D01*
X156252333Y-99084190D01*
X156687762Y-99035810D02*
X156591000Y-99035810D01*
X156542619Y-99060000D01*
X156518428Y-99084190D01*
X156470047Y-99156762D01*
X156445857Y-99253524D01*
X156445857Y-99447048D01*
X156470047Y-99495429D01*
X156494238Y-99519619D01*
X156542619Y-99543810D01*
X156639381Y-99543810D01*
X156687762Y-99519619D01*
X156711952Y-99495429D01*
X156736143Y-99447048D01*
X156736143Y-99326095D01*
X156711952Y-99277714D01*
X156687762Y-99253524D01*
X156639381Y-99229333D01*
X156542619Y-99229333D01*
X156494238Y-99253524D01*
X156470047Y-99277714D01*
X156445857Y-99326095D01*
X156252333Y-103305429D02*
X156228143Y-103329619D01*
X156155571Y-103353810D01*
X156107190Y-103353810D01*
X156034619Y-103329619D01*
X155986238Y-103281238D01*
X155962047Y-103232857D01*
X155937857Y-103136095D01*
X155937857Y-103063524D01*
X155962047Y-102966762D01*
X155986238Y-102918381D01*
X156034619Y-102870000D01*
X156107190Y-102845810D01*
X156155571Y-102845810D01*
X156228143Y-102870000D01*
X156252333Y-102894190D01*
X156421666Y-102845810D02*
X156760333Y-102845810D01*
X156542619Y-103353810D01*
X147882429Y-93556667D02*
X147906619Y-93580857D01*
X147930810Y-93653429D01*
X147930810Y-93701810D01*
X147906619Y-93774381D01*
X147858238Y-93822762D01*
X147809857Y-93846953D01*
X147713095Y-93871143D01*
X147640524Y-93871143D01*
X147543762Y-93846953D01*
X147495381Y-93822762D01*
X147447000Y-93774381D01*
X147422810Y-93701810D01*
X147422810Y-93653429D01*
X147447000Y-93580857D01*
X147471190Y-93556667D01*
X147640524Y-93266381D02*
X147616333Y-93314762D01*
X147592143Y-93338953D01*
X147543762Y-93363143D01*
X147519571Y-93363143D01*
X147471190Y-93338953D01*
X147447000Y-93314762D01*
X147422810Y-93266381D01*
X147422810Y-93169619D01*
X147447000Y-93121238D01*
X147471190Y-93097048D01*
X147519571Y-93072857D01*
X147543762Y-93072857D01*
X147592143Y-93097048D01*
X147616333Y-93121238D01*
X147640524Y-93169619D01*
X147640524Y-93266381D01*
X147664714Y-93314762D01*
X147688905Y-93338953D01*
X147737286Y-93363143D01*
X147834048Y-93363143D01*
X147882429Y-93338953D01*
X147906619Y-93314762D01*
X147930810Y-93266381D01*
X147930810Y-93169619D01*
X147906619Y-93121238D01*
X147882429Y-93097048D01*
X147834048Y-93072857D01*
X147737286Y-93072857D01*
X147688905Y-93097048D01*
X147664714Y-93121238D01*
X147640524Y-93169619D01*
X147616333Y-109655429D02*
X147592143Y-109679619D01*
X147519571Y-109703810D01*
X147471190Y-109703810D01*
X147398619Y-109679619D01*
X147350238Y-109631238D01*
X147326047Y-109582857D01*
X147301857Y-109486095D01*
X147301857Y-109413524D01*
X147326047Y-109316762D01*
X147350238Y-109268381D01*
X147398619Y-109220000D01*
X147471190Y-109195810D01*
X147519571Y-109195810D01*
X147592143Y-109220000D01*
X147616333Y-109244190D01*
X147858238Y-109703810D02*
X147955000Y-109703810D01*
X148003381Y-109679619D01*
X148027571Y-109655429D01*
X148075952Y-109582857D01*
X148100143Y-109486095D01*
X148100143Y-109292571D01*
X148075952Y-109244190D01*
X148051762Y-109220000D01*
X148003381Y-109195810D01*
X147906619Y-109195810D01*
X147858238Y-109220000D01*
X147834047Y-109244190D01*
X147809857Y-109292571D01*
X147809857Y-109413524D01*
X147834047Y-109461905D01*
X147858238Y-109486095D01*
X147906619Y-109510286D01*
X148003381Y-109510286D01*
X148051762Y-109486095D01*
X148075952Y-109461905D01*
X148100143Y-109413524D01*
X149658429Y-106062572D02*
X149682619Y-106086762D01*
X149706810Y-106159334D01*
X149706810Y-106207715D01*
X149682619Y-106280286D01*
X149634238Y-106328667D01*
X149585857Y-106352858D01*
X149489095Y-106377048D01*
X149416524Y-106377048D01*
X149319762Y-106352858D01*
X149271381Y-106328667D01*
X149223000Y-106280286D01*
X149198810Y-106207715D01*
X149198810Y-106159334D01*
X149223000Y-106086762D01*
X149247190Y-106062572D01*
X149706810Y-105578762D02*
X149706810Y-105869048D01*
X149706810Y-105723905D02*
X149198810Y-105723905D01*
X149271381Y-105772286D01*
X149319762Y-105820667D01*
X149343952Y-105869048D01*
X149198810Y-105264286D02*
X149198810Y-105215905D01*
X149223000Y-105167524D01*
X149247190Y-105143333D01*
X149295571Y-105119143D01*
X149392333Y-105094952D01*
X149513286Y-105094952D01*
X149610048Y-105119143D01*
X149658429Y-105143333D01*
X149682619Y-105167524D01*
X149706810Y-105215905D01*
X149706810Y-105264286D01*
X149682619Y-105312667D01*
X149658429Y-105336857D01*
X149610048Y-105361048D01*
X149513286Y-105385238D01*
X149392333Y-105385238D01*
X149295571Y-105361048D01*
X149247190Y-105336857D01*
X149223000Y-105312667D01*
X149198810Y-105264286D01*
X151288429Y-111302572D02*
X151312619Y-111326762D01*
X151336810Y-111399334D01*
X151336810Y-111447715D01*
X151312619Y-111520286D01*
X151264238Y-111568667D01*
X151215857Y-111592858D01*
X151119095Y-111617048D01*
X151046524Y-111617048D01*
X150949762Y-111592858D01*
X150901381Y-111568667D01*
X150853000Y-111520286D01*
X150828810Y-111447715D01*
X150828810Y-111399334D01*
X150853000Y-111326762D01*
X150877190Y-111302572D01*
X151336810Y-110818762D02*
X151336810Y-111109048D01*
X151336810Y-110963905D02*
X150828810Y-110963905D01*
X150901381Y-111012286D01*
X150949762Y-111060667D01*
X150973952Y-111109048D01*
X151336810Y-110334952D02*
X151336810Y-110625238D01*
X151336810Y-110480095D02*
X150828810Y-110480095D01*
X150901381Y-110528476D01*
X150949762Y-110576857D01*
X150973952Y-110625238D01*
X179388810Y-106685334D02*
X179751667Y-106685334D01*
X179824238Y-106709524D01*
X179872619Y-106757905D01*
X179896810Y-106830477D01*
X179896810Y-106878858D01*
X179896810Y-106177333D02*
X179896810Y-106467619D01*
X179896810Y-106322476D02*
X179388810Y-106322476D01*
X179461381Y-106370857D01*
X179509762Y-106419238D01*
X179533952Y-106467619D01*
X167256810Y-112000667D02*
X167256810Y-112242572D01*
X166748810Y-112242572D01*
X167256810Y-111565238D02*
X167256810Y-111855524D01*
X167256810Y-111710381D02*
X166748810Y-111710381D01*
X166821381Y-111758762D01*
X166869762Y-111807143D01*
X166893952Y-111855524D01*
X173792333Y-110035810D02*
X173550428Y-110035810D01*
X173550428Y-109527810D01*
X173937476Y-109576190D02*
X173961666Y-109552000D01*
X174010047Y-109527810D01*
X174131000Y-109527810D01*
X174179381Y-109552000D01*
X174203571Y-109576190D01*
X174227762Y-109624571D01*
X174227762Y-109672952D01*
X174203571Y-109745524D01*
X173913285Y-110035810D01*
X174227762Y-110035810D01*
X145826810Y-112107238D02*
X145318810Y-112107238D01*
X145681667Y-111937904D01*
X145318810Y-111768571D01*
X145826810Y-111768571D01*
X145826810Y-111260571D02*
X145826810Y-111550857D01*
X145826810Y-111405714D02*
X145318810Y-111405714D01*
X145391381Y-111454095D01*
X145439762Y-111502476D01*
X145463952Y-111550857D01*
X127410714Y-108184287D02*
X127410714Y-108014953D01*
X127676810Y-107942382D02*
X127676810Y-108184287D01*
X127168810Y-108184287D01*
X127168810Y-107942382D01*
X127652619Y-107748858D02*
X127676810Y-107700477D01*
X127676810Y-107603715D01*
X127652619Y-107555334D01*
X127604238Y-107531144D01*
X127580048Y-107531144D01*
X127531667Y-107555334D01*
X127507476Y-107603715D01*
X127507476Y-107676287D01*
X127483286Y-107724668D01*
X127434905Y-107748858D01*
X127410714Y-107748858D01*
X127362333Y-107724668D01*
X127338143Y-107676287D01*
X127338143Y-107603715D01*
X127362333Y-107555334D01*
X127338143Y-107313430D02*
X127846143Y-107313430D01*
X127362333Y-107313430D02*
X127338143Y-107265049D01*
X127338143Y-107168287D01*
X127362333Y-107119906D01*
X127386524Y-107095715D01*
X127434905Y-107071525D01*
X127580048Y-107071525D01*
X127628429Y-107095715D01*
X127652619Y-107119906D01*
X127676810Y-107168287D01*
X127676810Y-107265049D01*
X127652619Y-107313430D01*
X127676810Y-106853811D02*
X127338143Y-106853811D01*
X127434905Y-106853811D02*
X127386524Y-106829620D01*
X127362333Y-106805430D01*
X127338143Y-106757049D01*
X127338143Y-106708668D01*
X127652619Y-106345811D02*
X127676810Y-106394192D01*
X127676810Y-106490954D01*
X127652619Y-106539335D01*
X127604238Y-106563525D01*
X127410714Y-106563525D01*
X127362333Y-106539335D01*
X127338143Y-106490954D01*
X127338143Y-106394192D01*
X127362333Y-106345811D01*
X127410714Y-106321620D01*
X127459095Y-106321620D01*
X127507476Y-106563525D01*
X127652619Y-106128096D02*
X127676810Y-106079715D01*
X127676810Y-105982953D01*
X127652619Y-105934572D01*
X127604238Y-105910382D01*
X127580048Y-105910382D01*
X127531667Y-105934572D01*
X127507476Y-105982953D01*
X127507476Y-106055525D01*
X127483286Y-106103906D01*
X127434905Y-106128096D01*
X127410714Y-106128096D01*
X127362333Y-106103906D01*
X127338143Y-106055525D01*
X127338143Y-105982953D01*
X127362333Y-105934572D01*
X127652619Y-105716858D02*
X127676810Y-105668477D01*
X127676810Y-105571715D01*
X127652619Y-105523334D01*
X127604238Y-105499144D01*
X127580048Y-105499144D01*
X127531667Y-105523334D01*
X127507476Y-105571715D01*
X127507476Y-105644287D01*
X127483286Y-105692668D01*
X127434905Y-105716858D01*
X127410714Y-105716858D01*
X127362333Y-105692668D01*
X127338143Y-105644287D01*
X127338143Y-105571715D01*
X127362333Y-105523334D01*
X127676810Y-105281430D02*
X127338143Y-105281430D01*
X127168810Y-105281430D02*
X127193000Y-105305620D01*
X127217190Y-105281430D01*
X127193000Y-105257239D01*
X127168810Y-105281430D01*
X127217190Y-105281430D01*
X127338143Y-105112096D02*
X127338143Y-104918572D01*
X127676810Y-105039525D02*
X127241381Y-105039525D01*
X127193000Y-105015334D01*
X127168810Y-104966953D01*
X127168810Y-104918572D01*
X127652619Y-104386381D02*
X127676810Y-104313810D01*
X127676810Y-104192857D01*
X127652619Y-104144476D01*
X127628429Y-104120286D01*
X127580048Y-104096095D01*
X127531667Y-104096095D01*
X127483286Y-104120286D01*
X127459095Y-104144476D01*
X127434905Y-104192857D01*
X127410714Y-104289619D01*
X127386524Y-104338000D01*
X127362333Y-104362191D01*
X127313952Y-104386381D01*
X127265571Y-104386381D01*
X127217190Y-104362191D01*
X127193000Y-104338000D01*
X127168810Y-104289619D01*
X127168810Y-104168667D01*
X127193000Y-104096095D01*
X127338143Y-103926762D02*
X127676810Y-103805809D01*
X127338143Y-103684857D02*
X127676810Y-103805809D01*
X127797762Y-103854190D01*
X127821952Y-103878381D01*
X127846143Y-103926762D01*
X127652619Y-103515523D02*
X127676810Y-103467142D01*
X127676810Y-103370380D01*
X127652619Y-103321999D01*
X127604238Y-103297809D01*
X127580048Y-103297809D01*
X127531667Y-103321999D01*
X127507476Y-103370380D01*
X127507476Y-103442952D01*
X127483286Y-103491333D01*
X127434905Y-103515523D01*
X127410714Y-103515523D01*
X127362333Y-103491333D01*
X127338143Y-103442952D01*
X127338143Y-103370380D01*
X127362333Y-103321999D01*
X127338143Y-103152666D02*
X127338143Y-102959142D01*
X127168810Y-103080095D02*
X127604238Y-103080095D01*
X127652619Y-103055904D01*
X127676810Y-103007523D01*
X127676810Y-102959142D01*
X127652619Y-102596285D02*
X127676810Y-102644666D01*
X127676810Y-102741428D01*
X127652619Y-102789809D01*
X127604238Y-102813999D01*
X127410714Y-102813999D01*
X127362333Y-102789809D01*
X127338143Y-102741428D01*
X127338143Y-102644666D01*
X127362333Y-102596285D01*
X127410714Y-102572094D01*
X127459095Y-102572094D01*
X127507476Y-102813999D01*
X127676810Y-102354380D02*
X127338143Y-102354380D01*
X127386524Y-102354380D02*
X127362333Y-102330189D01*
X127338143Y-102281808D01*
X127338143Y-102209237D01*
X127362333Y-102160856D01*
X127410714Y-102136665D01*
X127676810Y-102136665D01*
X127410714Y-102136665D02*
X127362333Y-102112475D01*
X127338143Y-102064094D01*
X127338143Y-101991522D01*
X127362333Y-101943142D01*
X127410714Y-101918951D01*
X127676810Y-101918951D01*
X127652619Y-101701237D02*
X127676810Y-101652856D01*
X127676810Y-101556094D01*
X127652619Y-101507713D01*
X127604238Y-101483523D01*
X127580048Y-101483523D01*
X127531667Y-101507713D01*
X127507476Y-101556094D01*
X127507476Y-101628666D01*
X127483286Y-101677047D01*
X127434905Y-101701237D01*
X127410714Y-101701237D01*
X127362333Y-101677047D01*
X127338143Y-101628666D01*
X127338143Y-101556094D01*
X127362333Y-101507713D01*
X128610714Y-107815809D02*
X128610714Y-107646475D01*
X128876810Y-107573904D02*
X128876810Y-107815809D01*
X128368810Y-107815809D01*
X128368810Y-107573904D01*
X128852619Y-107380380D02*
X128876810Y-107307809D01*
X128876810Y-107186856D01*
X128852619Y-107138475D01*
X128828429Y-107114285D01*
X128780048Y-107090094D01*
X128731667Y-107090094D01*
X128683286Y-107114285D01*
X128659095Y-107138475D01*
X128634905Y-107186856D01*
X128610714Y-107283618D01*
X128586524Y-107331999D01*
X128562333Y-107356190D01*
X128513952Y-107380380D01*
X128465571Y-107380380D01*
X128417190Y-107356190D01*
X128393000Y-107331999D01*
X128368810Y-107283618D01*
X128368810Y-107162666D01*
X128393000Y-107090094D01*
X128876810Y-106872380D02*
X128368810Y-106872380D01*
X128368810Y-106678856D01*
X128393000Y-106630475D01*
X128417190Y-106606284D01*
X128465571Y-106582094D01*
X128538143Y-106582094D01*
X128586524Y-106606284D01*
X128610714Y-106630475D01*
X128634905Y-106678856D01*
X128634905Y-106872380D01*
X128368810Y-106412761D02*
X128368810Y-106098284D01*
X128562333Y-106267618D01*
X128562333Y-106195046D01*
X128586524Y-106146665D01*
X128610714Y-106122475D01*
X128659095Y-106098284D01*
X128780048Y-106098284D01*
X128828429Y-106122475D01*
X128852619Y-106146665D01*
X128876810Y-106195046D01*
X128876810Y-106340189D01*
X128852619Y-106388570D01*
X128828429Y-106412761D01*
X128417190Y-105904760D02*
X128393000Y-105880570D01*
X128368810Y-105832189D01*
X128368810Y-105711236D01*
X128393000Y-105662855D01*
X128417190Y-105638665D01*
X128465571Y-105614474D01*
X128513952Y-105614474D01*
X128586524Y-105638665D01*
X128876810Y-105928951D01*
X128876810Y-105614474D01*
X128683286Y-105396760D02*
X128683286Y-105009712D01*
X128368810Y-104816189D02*
X128876810Y-104695236D01*
X128513952Y-104598474D01*
X128876810Y-104501712D01*
X128368810Y-104380760D01*
X128876810Y-103896951D02*
X128634905Y-104066284D01*
X128876810Y-104187237D02*
X128368810Y-104187237D01*
X128368810Y-103993713D01*
X128393000Y-103945332D01*
X128417190Y-103921141D01*
X128465571Y-103896951D01*
X128538143Y-103896951D01*
X128586524Y-103921141D01*
X128610714Y-103945332D01*
X128634905Y-103993713D01*
X128634905Y-104187237D01*
X128368810Y-103582475D02*
X128368810Y-103485713D01*
X128393000Y-103437332D01*
X128441381Y-103388951D01*
X128538143Y-103364760D01*
X128707476Y-103364760D01*
X128804238Y-103388951D01*
X128852619Y-103437332D01*
X128876810Y-103485713D01*
X128876810Y-103582475D01*
X128852619Y-103630856D01*
X128804238Y-103679237D01*
X128707476Y-103703427D01*
X128538143Y-103703427D01*
X128441381Y-103679237D01*
X128393000Y-103630856D01*
X128368810Y-103582475D01*
X128368810Y-103050285D02*
X128368810Y-102953523D01*
X128393000Y-102905142D01*
X128441381Y-102856761D01*
X128538143Y-102832570D01*
X128707476Y-102832570D01*
X128804238Y-102856761D01*
X128852619Y-102905142D01*
X128876810Y-102953523D01*
X128876810Y-103050285D01*
X128852619Y-103098666D01*
X128804238Y-103147047D01*
X128707476Y-103171237D01*
X128538143Y-103171237D01*
X128441381Y-103147047D01*
X128393000Y-103098666D01*
X128368810Y-103050285D01*
X128876810Y-102614857D02*
X128368810Y-102614857D01*
X128731667Y-102445523D01*
X128368810Y-102276190D01*
X128876810Y-102276190D01*
X151994810Y-105748667D02*
X151752905Y-105918000D01*
X151994810Y-106038953D02*
X151486810Y-106038953D01*
X151486810Y-105845429D01*
X151511000Y-105797048D01*
X151535190Y-105772857D01*
X151583571Y-105748667D01*
X151656143Y-105748667D01*
X151704524Y-105772857D01*
X151728714Y-105797048D01*
X151752905Y-105845429D01*
X151752905Y-106038953D01*
X151994810Y-105264857D02*
X151994810Y-105555143D01*
X151994810Y-105410000D02*
X151486810Y-105410000D01*
X151559381Y-105458381D01*
X151607762Y-105506762D01*
X151631952Y-105555143D01*
X167996810Y-96350667D02*
X167754905Y-96520000D01*
X167996810Y-96640953D02*
X167488810Y-96640953D01*
X167488810Y-96447429D01*
X167513000Y-96399048D01*
X167537190Y-96374857D01*
X167585571Y-96350667D01*
X167658143Y-96350667D01*
X167706524Y-96374857D01*
X167730714Y-96399048D01*
X167754905Y-96447429D01*
X167754905Y-96640953D01*
X167537190Y-96157143D02*
X167513000Y-96132953D01*
X167488810Y-96084572D01*
X167488810Y-95963619D01*
X167513000Y-95915238D01*
X167537190Y-95891048D01*
X167585571Y-95866857D01*
X167633952Y-95866857D01*
X167706524Y-95891048D01*
X167996810Y-96181334D01*
X167996810Y-95866857D01*
X168356810Y-107230667D02*
X168114905Y-107400000D01*
X168356810Y-107520953D02*
X167848810Y-107520953D01*
X167848810Y-107327429D01*
X167873000Y-107279048D01*
X167897190Y-107254857D01*
X167945571Y-107230667D01*
X168018143Y-107230667D01*
X168066524Y-107254857D01*
X168090714Y-107279048D01*
X168114905Y-107327429D01*
X168114905Y-107520953D01*
X167848810Y-107061334D02*
X167848810Y-106746857D01*
X168042333Y-106916191D01*
X168042333Y-106843619D01*
X168066524Y-106795238D01*
X168090714Y-106771048D01*
X168139095Y-106746857D01*
X168260048Y-106746857D01*
X168308429Y-106771048D01*
X168332619Y-106795238D01*
X168356810Y-106843619D01*
X168356810Y-106988762D01*
X168332619Y-107037143D01*
X168308429Y-107061334D01*
X148438810Y-102700667D02*
X148196905Y-102870000D01*
X148438810Y-102990953D02*
X147930810Y-102990953D01*
X147930810Y-102797429D01*
X147955000Y-102749048D01*
X147979190Y-102724857D01*
X148027571Y-102700667D01*
X148100143Y-102700667D01*
X148148524Y-102724857D01*
X148172714Y-102749048D01*
X148196905Y-102797429D01*
X148196905Y-102990953D01*
X148100143Y-102265238D02*
X148438810Y-102265238D01*
X147906619Y-102386191D02*
X148269476Y-102507143D01*
X148269476Y-102192667D01*
X150410333Y-96749810D02*
X150241000Y-96507905D01*
X150120047Y-96749810D02*
X150120047Y-96241810D01*
X150313571Y-96241810D01*
X150361952Y-96266000D01*
X150386143Y-96290190D01*
X150410333Y-96338571D01*
X150410333Y-96411143D01*
X150386143Y-96459524D01*
X150361952Y-96483714D01*
X150313571Y-96507905D01*
X150120047Y-96507905D01*
X150869952Y-96241810D02*
X150628047Y-96241810D01*
X150603857Y-96483714D01*
X150628047Y-96459524D01*
X150676428Y-96435333D01*
X150797381Y-96435333D01*
X150845762Y-96459524D01*
X150869952Y-96483714D01*
X150894143Y-96532095D01*
X150894143Y-96653048D01*
X150869952Y-96701429D01*
X150845762Y-96725619D01*
X150797381Y-96749810D01*
X150676428Y-96749810D01*
X150628047Y-96725619D01*
X150603857Y-96701429D01*
X153518810Y-110320667D02*
X153276905Y-110490000D01*
X153518810Y-110610953D02*
X153010810Y-110610953D01*
X153010810Y-110417429D01*
X153035000Y-110369048D01*
X153059190Y-110344857D01*
X153107571Y-110320667D01*
X153180143Y-110320667D01*
X153228524Y-110344857D01*
X153252714Y-110369048D01*
X153276905Y-110417429D01*
X153276905Y-110610953D01*
X153010810Y-109885238D02*
X153010810Y-109982000D01*
X153035000Y-110030381D01*
X153059190Y-110054572D01*
X153131762Y-110102953D01*
X153228524Y-110127143D01*
X153422048Y-110127143D01*
X153470429Y-110102953D01*
X153494619Y-110078762D01*
X153518810Y-110030381D01*
X153518810Y-109933619D01*
X153494619Y-109885238D01*
X153470429Y-109861048D01*
X153422048Y-109836857D01*
X153301095Y-109836857D01*
X153252714Y-109861048D01*
X153228524Y-109885238D01*
X153204333Y-109933619D01*
X153204333Y-110030381D01*
X153228524Y-110078762D01*
X153252714Y-110102953D01*
X153301095Y-110127143D01*
X154026810Y-111590667D02*
X153784905Y-111760000D01*
X154026810Y-111880953D02*
X153518810Y-111880953D01*
X153518810Y-111687429D01*
X153543000Y-111639048D01*
X153567190Y-111614857D01*
X153615571Y-111590667D01*
X153688143Y-111590667D01*
X153736524Y-111614857D01*
X153760714Y-111639048D01*
X153784905Y-111687429D01*
X153784905Y-111880953D01*
X153518810Y-111421334D02*
X153518810Y-111082667D01*
X154026810Y-111300381D01*
X166819952Y-105891619D02*
X166892523Y-105915810D01*
X167013476Y-105915810D01*
X167061857Y-105891619D01*
X167086047Y-105867429D01*
X167110238Y-105819048D01*
X167110238Y-105770667D01*
X167086047Y-105722286D01*
X167061857Y-105698095D01*
X167013476Y-105673905D01*
X166916714Y-105649714D01*
X166868333Y-105625524D01*
X166844142Y-105601333D01*
X166819952Y-105552952D01*
X166819952Y-105504571D01*
X166844142Y-105456190D01*
X166868333Y-105432000D01*
X166916714Y-105407810D01*
X167037666Y-105407810D01*
X167110238Y-105432000D01*
X167594048Y-105915810D02*
X167303762Y-105915810D01*
X167448905Y-105915810D02*
X167448905Y-105407810D01*
X167400524Y-105480381D01*
X167352143Y-105528762D01*
X167303762Y-105552952D01*
X159614810Y-106305048D02*
X160026048Y-106305048D01*
X160074429Y-106280857D01*
X160098619Y-106256667D01*
X160122810Y-106208286D01*
X160122810Y-106111524D01*
X160098619Y-106063143D01*
X160074429Y-106038952D01*
X160026048Y-106014762D01*
X159614810Y-106014762D01*
X159663190Y-105797048D02*
X159639000Y-105772858D01*
X159614810Y-105724477D01*
X159614810Y-105603524D01*
X159639000Y-105555143D01*
X159663190Y-105530953D01*
X159711571Y-105506762D01*
X159759952Y-105506762D01*
X159832524Y-105530953D01*
X160122810Y-105821239D01*
X160122810Y-105506762D01*
X157269952Y-90457810D02*
X157269952Y-90869048D01*
X157294143Y-90917429D01*
X157318333Y-90941619D01*
X157366714Y-90965810D01*
X157463476Y-90965810D01*
X157511857Y-90941619D01*
X157536048Y-90917429D01*
X157560238Y-90869048D01*
X157560238Y-90457810D01*
X157753761Y-90457810D02*
X158068238Y-90457810D01*
X157898904Y-90651333D01*
X157971476Y-90651333D01*
X158019857Y-90675524D01*
X158044047Y-90699714D01*
X158068238Y-90748095D01*
X158068238Y-90869048D01*
X158044047Y-90917429D01*
X158019857Y-90941619D01*
X157971476Y-90965810D01*
X157826333Y-90965810D01*
X157777952Y-90941619D01*
X157753761Y-90917429D01*
X173572714Y-107333143D02*
X173596905Y-107260572D01*
X173621095Y-107236381D01*
X173669476Y-107212191D01*
X173742048Y-107212191D01*
X173790429Y-107236381D01*
X173814619Y-107260572D01*
X173838810Y-107308953D01*
X173838810Y-107502477D01*
X173330810Y-107502477D01*
X173330810Y-107333143D01*
X173355000Y-107284762D01*
X173379190Y-107260572D01*
X173427571Y-107236381D01*
X173475952Y-107236381D01*
X173524333Y-107260572D01*
X173548524Y-107284762D01*
X173572714Y-107333143D01*
X173572714Y-107502477D01*
X173330810Y-107067048D02*
X173330810Y-106776762D01*
X173838810Y-106921905D02*
X173330810Y-106921905D01*
X173838810Y-106341333D02*
X173838810Y-106631619D01*
X173838810Y-106486476D02*
X173330810Y-106486476D01*
X173403381Y-106534857D01*
X173451762Y-106583238D01*
X173475952Y-106631619D01*
X148438810Y-99701048D02*
X148850048Y-99701048D01*
X148898429Y-99676857D01*
X148922619Y-99652667D01*
X148946810Y-99604286D01*
X148946810Y-99507524D01*
X148922619Y-99459143D01*
X148898429Y-99434952D01*
X148850048Y-99410762D01*
X148438810Y-99410762D01*
X148946810Y-98902762D02*
X148946810Y-99193048D01*
X148946810Y-99047905D02*
X148438810Y-99047905D01*
X148511381Y-99096286D01*
X148559762Y-99144667D01*
X148583952Y-99193048D01*
X170258619Y-92269733D02*
X170282810Y-92197162D01*
X170282810Y-92076209D01*
X170258619Y-92027828D01*
X170234429Y-92003638D01*
X170186048Y-91979447D01*
X170137667Y-91979447D01*
X170089286Y-92003638D01*
X170065095Y-92027828D01*
X170040905Y-92076209D01*
X170016714Y-92172971D01*
X169992524Y-92221352D01*
X169968333Y-92245543D01*
X169919952Y-92269733D01*
X169871571Y-92269733D01*
X169823190Y-92245543D01*
X169799000Y-92221352D01*
X169774810Y-92172971D01*
X169774810Y-92052019D01*
X169799000Y-91979447D01*
X169774810Y-91810114D02*
X170282810Y-91689161D01*
X169919952Y-91592399D01*
X170282810Y-91495637D01*
X169774810Y-91374685D01*
X170282810Y-90915066D02*
X170282810Y-91205352D01*
X170282810Y-91060209D02*
X169774810Y-91060209D01*
X169847381Y-91108590D01*
X169895762Y-91156971D01*
X169919952Y-91205352D01*
M02*
