G04 #@! TF.FileFunction,Copper,L2,Bot,Signal*
%FSLAX46Y46*%
G04 Gerber Fmt 4.6, Leading zero omitted, Abs format (unit mm)*
G04 Created by KiCad (PCBNEW 4.0.7-e2-6376~58~ubuntu16.04.1) date Thu Oct 19 04:39:58 2017*
%MOMM*%
%LPD*%
G01*
G04 APERTURE LIST*
%ADD10C,0.100000*%
%ADD11C,0.600000*%
%ADD12C,1.000000*%
%ADD13O,2.720000X5.510000*%
%ADD14C,0.250000*%
%ADD15C,0.600000*%
%ADD16C,0.200000*%
G04 APERTURE END LIST*
D10*
D11*
X168315300Y-111143300D03*
X173847000Y-92871000D03*
X172747000Y-91746000D03*
X171147000Y-91421000D03*
X141147000Y-105346000D03*
X130347000Y-95846000D03*
X130647000Y-97946000D03*
X160515300Y-111493300D03*
X139446000Y-107569000D03*
X140652500Y-101447600D03*
X131047000Y-105946000D03*
X130708400Y-104013000D03*
X131047000Y-101946000D03*
X129147000Y-99746000D03*
X128247000Y-97146000D03*
X136817100Y-100711000D03*
X136791700Y-102768400D03*
X137896600Y-103797100D03*
X135699500Y-103771700D03*
X137858500Y-101676200D03*
X137833100Y-99606100D03*
X135686800Y-101650800D03*
X135661400Y-99606100D03*
D12*
X164195760Y-98806000D03*
X164195760Y-103886000D03*
X166735760Y-101346000D03*
D13*
X171704000Y-107061000D03*
X171704000Y-95631000D03*
D11*
X158750000Y-111252000D03*
X136232900Y-107670600D03*
X159435800Y-110210600D03*
X155473400Y-106273600D03*
X130124200Y-107619800D03*
X148894800Y-109753400D03*
X173647100Y-100152200D03*
X168198800Y-99415600D03*
X173647100Y-101523800D03*
X168795700Y-103035100D03*
X160887000Y-101876000D03*
X169037000Y-109220000D03*
X160997000Y-95106000D03*
X150507000Y-92386000D03*
X155557000Y-93386000D03*
X143557000Y-103316000D03*
X148727000Y-100856000D03*
X132427000Y-107746000D03*
X145937000Y-108626000D03*
X134277000Y-97166000D03*
X152217000Y-94726000D03*
X135647000Y-95946000D03*
X148137000Y-91146000D03*
X146857000Y-94046000D03*
X141027000Y-94576000D03*
X146277000Y-91046000D03*
X151537000Y-98856000D03*
X141857000Y-98326000D03*
X149397000Y-96546000D03*
X150857000Y-95736000D03*
X155507000Y-95006000D03*
X153767000Y-102646000D03*
X169577000Y-93846000D03*
X162467000Y-95906000D03*
X160647000Y-99576000D03*
X169497000Y-108316000D03*
X164197000Y-95856000D03*
D14*
X155473400Y-106273600D02*
X137655300Y-106273600D01*
X136258300Y-107670600D02*
X136232900Y-107670600D01*
X137655300Y-106273600D02*
X136258300Y-107670600D01*
X159410400Y-110210600D02*
X159435800Y-110210600D01*
X155473400Y-106273600D02*
X159410400Y-110210600D01*
X132321300Y-109816900D02*
X130124200Y-107619800D01*
X148831300Y-109816900D02*
X132321300Y-109816900D01*
X148894800Y-109753400D02*
X148831300Y-109816900D01*
X168935400Y-100152200D02*
X173647100Y-100152200D01*
X168198800Y-99415600D02*
X168935400Y-100152200D01*
X170307000Y-101523800D02*
X173647100Y-101523800D01*
X168795700Y-103035100D02*
X170307000Y-101523800D01*
X162337000Y-104076000D02*
X163671000Y-105410000D01*
X162337000Y-103326000D02*
X162337000Y-104076000D01*
X160887000Y-101876000D02*
X162337000Y-103326000D01*
X166751000Y-105410000D02*
X163671000Y-105410000D01*
X167513000Y-106172000D02*
X166751000Y-105410000D01*
X167513000Y-107696000D02*
X167513000Y-106172000D01*
X169037000Y-109220000D02*
X167513000Y-107696000D01*
X160997000Y-95106000D02*
X159247000Y-93356000D01*
X155587000Y-93356000D02*
X155557000Y-93386000D01*
X159247000Y-93356000D02*
X155587000Y-93356000D01*
X150507000Y-92386000D02*
X151507000Y-93386000D01*
X151507000Y-93386000D02*
X155557000Y-93386000D01*
X148017000Y-101966000D02*
X148187000Y-101966000D01*
X144907000Y-101966000D02*
X147997000Y-101966000D01*
X147997000Y-101966000D02*
X148017000Y-101966000D01*
X143557000Y-103316000D02*
X144907000Y-101966000D01*
X148727000Y-101426000D02*
X148727000Y-100856000D01*
X148187000Y-101966000D02*
X148727000Y-101426000D01*
X133457000Y-108776000D02*
X132427000Y-107746000D01*
X145787000Y-108776000D02*
X133457000Y-108776000D01*
X145937000Y-108626000D02*
X145787000Y-108776000D01*
X134277000Y-97166000D02*
X146837000Y-97166000D01*
X150067000Y-95416000D02*
X150707000Y-94776000D01*
X148587000Y-95416000D02*
X150067000Y-95416000D01*
X146837000Y-97166000D02*
X148587000Y-95416000D01*
X150707000Y-94776000D02*
X151477000Y-94776000D01*
X152167000Y-94776000D02*
X152217000Y-94726000D01*
X151477000Y-94776000D02*
X152167000Y-94776000D01*
X143337000Y-95946000D02*
X135647000Y-95946000D01*
X148137000Y-91146000D02*
X143337000Y-95946000D01*
X162087000Y-97236000D02*
X162311012Y-97019460D01*
X162087000Y-97236000D02*
X161347000Y-97976000D01*
X161347000Y-97976000D02*
X158217000Y-97976000D01*
X158217000Y-97976000D02*
X156527000Y-96286000D01*
X156527000Y-96286000D02*
X156527000Y-94646000D01*
X156527000Y-94646000D02*
X155977000Y-94096000D01*
X155977000Y-94096000D02*
X146907000Y-94096000D01*
X146907000Y-94096000D02*
X146857000Y-94046000D01*
X166735760Y-99374760D02*
X166735760Y-101346000D01*
X166735760Y-98344760D02*
X166735760Y-99374760D01*
X165407000Y-97016000D02*
X166735760Y-98344760D01*
X163127000Y-97016000D02*
X165407000Y-97016000D01*
X162311012Y-97019460D02*
X163127000Y-97016000D01*
X166735760Y-101346000D02*
X166735760Y-101386640D01*
X141027000Y-94576000D02*
X144557000Y-91046000D01*
X144557000Y-91046000D02*
X146277000Y-91046000D01*
X151537000Y-98856000D02*
X151007000Y-98326000D01*
X151007000Y-98326000D02*
X141857000Y-98326000D01*
X149397000Y-96546000D02*
X150047000Y-96546000D01*
X150047000Y-96546000D02*
X150857000Y-95736000D01*
X155507000Y-100906000D02*
X155507000Y-95006000D01*
X153767000Y-102646000D02*
X155507000Y-100906000D01*
X162467000Y-95906000D02*
X162477000Y-95906000D01*
X169577000Y-93846000D02*
X168647000Y-94776000D01*
X168647000Y-94776000D02*
X163607000Y-94776000D01*
X162477000Y-95906000D02*
X163607000Y-94776000D01*
X162367000Y-99576000D02*
X160647000Y-99576000D01*
X168467000Y-105676000D02*
X162367000Y-99576000D01*
X168467000Y-107286000D02*
X168467000Y-105676000D01*
X169497000Y-108316000D02*
X168467000Y-107286000D01*
D15*
X171704000Y-107061000D02*
X172062000Y-107061000D01*
X172062000Y-107061000D02*
X175407000Y-103716000D01*
X166197000Y-95856000D02*
X164197000Y-95856000D01*
X169647000Y-99306000D02*
X166197000Y-95856000D01*
X174607000Y-99306000D02*
X169647000Y-99306000D01*
X175407000Y-100106000D02*
X174607000Y-99306000D01*
X175407000Y-103716000D02*
X175407000Y-100106000D01*
X171704000Y-107061000D02*
X171232000Y-107061000D01*
X171704000Y-107061000D02*
X171282000Y-107061000D01*
D14*
X171704000Y-107061000D02*
X171482000Y-107061000D01*
D16*
G36*
X180321000Y-112376000D02*
X126719000Y-112376000D01*
X126719000Y-107738624D01*
X129524096Y-107738624D01*
X129615248Y-107959229D01*
X129783883Y-108128159D01*
X130004329Y-108219696D01*
X130123159Y-108219800D01*
X132020780Y-110117421D01*
X132158659Y-110209549D01*
X132321300Y-110241900D01*
X148534659Y-110241900D01*
X148554483Y-110261759D01*
X148774929Y-110353296D01*
X149013624Y-110353504D01*
X149234229Y-110262352D01*
X149403159Y-110093717D01*
X149494696Y-109873271D01*
X149494904Y-109634576D01*
X149403752Y-109413971D01*
X149235117Y-109245041D01*
X149014671Y-109153504D01*
X148775976Y-109153296D01*
X148555371Y-109244448D01*
X148407661Y-109391900D01*
X132497341Y-109391900D01*
X130970265Y-107864824D01*
X131826896Y-107864824D01*
X131918048Y-108085429D01*
X132086683Y-108254359D01*
X132307129Y-108345896D01*
X132425960Y-108346000D01*
X133156480Y-109076520D01*
X133294359Y-109168649D01*
X133321343Y-109174016D01*
X133457000Y-109201000D01*
X145757173Y-109201000D01*
X145817129Y-109225896D01*
X146055824Y-109226104D01*
X146276429Y-109134952D01*
X146445359Y-108966317D01*
X146536896Y-108745871D01*
X146537104Y-108507176D01*
X146445952Y-108286571D01*
X146277317Y-108117641D01*
X146056871Y-108026104D01*
X145818176Y-108025896D01*
X145597571Y-108117048D01*
X145428641Y-108285683D01*
X145401519Y-108351000D01*
X133633040Y-108351000D01*
X133071464Y-107789424D01*
X135632796Y-107789424D01*
X135723948Y-108010029D01*
X135892583Y-108178959D01*
X136113029Y-108270496D01*
X136351724Y-108270704D01*
X136572329Y-108179552D01*
X136741259Y-108010917D01*
X136832796Y-107790471D01*
X136832877Y-107697063D01*
X137831341Y-106698600D01*
X155049870Y-106698600D01*
X155133083Y-106781959D01*
X155353529Y-106873496D01*
X155472359Y-106873600D01*
X158835777Y-110237017D01*
X158835696Y-110329424D01*
X158926848Y-110550029D01*
X159095483Y-110718959D01*
X159315929Y-110810496D01*
X159554624Y-110810704D01*
X159775229Y-110719552D01*
X159944159Y-110550917D01*
X160035696Y-110330471D01*
X160035904Y-110091776D01*
X159944752Y-109871171D01*
X159776117Y-109702241D01*
X159555671Y-109610704D01*
X159411419Y-109610578D01*
X156073401Y-106272561D01*
X156073504Y-106154776D01*
X155982352Y-105934171D01*
X155813717Y-105765241D01*
X155593271Y-105673704D01*
X155354576Y-105673496D01*
X155133971Y-105764648D01*
X155049872Y-105848600D01*
X137655300Y-105848600D01*
X137492660Y-105880951D01*
X137492658Y-105880952D01*
X137492659Y-105880952D01*
X137354779Y-105973080D01*
X136257239Y-107070621D01*
X136114076Y-107070496D01*
X135893471Y-107161648D01*
X135724541Y-107330283D01*
X135633004Y-107550729D01*
X135632796Y-107789424D01*
X133071464Y-107789424D01*
X133027001Y-107744961D01*
X133027104Y-107627176D01*
X132935952Y-107406571D01*
X132767317Y-107237641D01*
X132546871Y-107146104D01*
X132308176Y-107145896D01*
X132087571Y-107237048D01*
X131918641Y-107405683D01*
X131827104Y-107626129D01*
X131826896Y-107864824D01*
X130970265Y-107864824D01*
X130724201Y-107618761D01*
X130724304Y-107500976D01*
X130633152Y-107280371D01*
X130464517Y-107111441D01*
X130244071Y-107019904D01*
X130005376Y-107019696D01*
X129784771Y-107110848D01*
X129615841Y-107279483D01*
X129524304Y-107499929D01*
X129524096Y-107738624D01*
X126719000Y-107738624D01*
X126719000Y-103434824D01*
X142956896Y-103434824D01*
X143048048Y-103655429D01*
X143216683Y-103824359D01*
X143437129Y-103915896D01*
X143675824Y-103916104D01*
X143896429Y-103824952D01*
X144065359Y-103656317D01*
X144156896Y-103435871D01*
X144157000Y-103317041D01*
X145083041Y-102391000D01*
X148187000Y-102391000D01*
X148322657Y-102364016D01*
X148349641Y-102358649D01*
X148487520Y-102266520D01*
X149027520Y-101726521D01*
X149119648Y-101588641D01*
X149119649Y-101588640D01*
X149152000Y-101426000D01*
X149152000Y-101279530D01*
X149235359Y-101196317D01*
X149326896Y-100975871D01*
X149327104Y-100737176D01*
X149235952Y-100516571D01*
X149067317Y-100347641D01*
X148846871Y-100256104D01*
X148608176Y-100255896D01*
X148387571Y-100347048D01*
X148218641Y-100515683D01*
X148127104Y-100736129D01*
X148126896Y-100974824D01*
X148218048Y-101195429D01*
X148287229Y-101264731D01*
X148010960Y-101541000D01*
X144907000Y-101541000D01*
X144744360Y-101573351D01*
X144744358Y-101573352D01*
X144744359Y-101573352D01*
X144606479Y-101665480D01*
X143555961Y-102715999D01*
X143438176Y-102715896D01*
X143217571Y-102807048D01*
X143048641Y-102975683D01*
X142957104Y-103196129D01*
X142956896Y-103434824D01*
X126719000Y-103434824D01*
X126719000Y-98444824D01*
X141256896Y-98444824D01*
X141348048Y-98665429D01*
X141516683Y-98834359D01*
X141737129Y-98925896D01*
X141975824Y-98926104D01*
X142196429Y-98834952D01*
X142280528Y-98751000D01*
X150830960Y-98751000D01*
X150936999Y-98857039D01*
X150936896Y-98974824D01*
X151028048Y-99195429D01*
X151196683Y-99364359D01*
X151417129Y-99455896D01*
X151655824Y-99456104D01*
X151876429Y-99364952D01*
X152045359Y-99196317D01*
X152136896Y-98975871D01*
X152137104Y-98737176D01*
X152045952Y-98516571D01*
X151877317Y-98347641D01*
X151656871Y-98256104D01*
X151538041Y-98256000D01*
X151307520Y-98025480D01*
X151169641Y-97933351D01*
X151142657Y-97927984D01*
X151007000Y-97901000D01*
X142280530Y-97901000D01*
X142197317Y-97817641D01*
X141976871Y-97726104D01*
X141738176Y-97725896D01*
X141517571Y-97817048D01*
X141348641Y-97985683D01*
X141257104Y-98206129D01*
X141256896Y-98444824D01*
X126719000Y-98444824D01*
X126719000Y-97284824D01*
X133676896Y-97284824D01*
X133768048Y-97505429D01*
X133936683Y-97674359D01*
X134157129Y-97765896D01*
X134395824Y-97766104D01*
X134616429Y-97674952D01*
X134700528Y-97591000D01*
X146837000Y-97591000D01*
X146972657Y-97564016D01*
X146999641Y-97558649D01*
X147137520Y-97466520D01*
X148763041Y-95841000D01*
X150067000Y-95841000D01*
X150171807Y-95820153D01*
X149870960Y-96121000D01*
X149820530Y-96121000D01*
X149737317Y-96037641D01*
X149516871Y-95946104D01*
X149278176Y-95945896D01*
X149057571Y-96037048D01*
X148888641Y-96205683D01*
X148797104Y-96426129D01*
X148796896Y-96664824D01*
X148888048Y-96885429D01*
X149056683Y-97054359D01*
X149277129Y-97145896D01*
X149515824Y-97146104D01*
X149736429Y-97054952D01*
X149820528Y-96971000D01*
X150047000Y-96971000D01*
X150182657Y-96944016D01*
X150209641Y-96938649D01*
X150347520Y-96846520D01*
X150858039Y-96336001D01*
X150975824Y-96336104D01*
X151196429Y-96244952D01*
X151365359Y-96076317D01*
X151456896Y-95855871D01*
X151457104Y-95617176D01*
X151365952Y-95396571D01*
X151197317Y-95227641D01*
X151133158Y-95201000D01*
X151843382Y-95201000D01*
X151876683Y-95234359D01*
X152097129Y-95325896D01*
X152335824Y-95326104D01*
X152556429Y-95234952D01*
X152725359Y-95066317D01*
X152816896Y-94845871D01*
X152817104Y-94607176D01*
X152781497Y-94521000D01*
X155143577Y-94521000D01*
X154998641Y-94665683D01*
X154907104Y-94886129D01*
X154906896Y-95124824D01*
X154998048Y-95345429D01*
X155082000Y-95429528D01*
X155082000Y-100729959D01*
X153765961Y-102045999D01*
X153648176Y-102045896D01*
X153427571Y-102137048D01*
X153258641Y-102305683D01*
X153167104Y-102526129D01*
X153166896Y-102764824D01*
X153258048Y-102985429D01*
X153426683Y-103154359D01*
X153647129Y-103245896D01*
X153885824Y-103246104D01*
X154106429Y-103154952D01*
X154275359Y-102986317D01*
X154366896Y-102765871D01*
X154367000Y-102647041D01*
X155807521Y-101206520D01*
X155899649Y-101068641D01*
X155932000Y-100906000D01*
X155932000Y-99694824D01*
X160046896Y-99694824D01*
X160138048Y-99915429D01*
X160306683Y-100084359D01*
X160527129Y-100175896D01*
X160765824Y-100176104D01*
X160986429Y-100084952D01*
X161070528Y-100001000D01*
X162190960Y-100001000D01*
X168042000Y-105852041D01*
X168042000Y-107286000D01*
X168062528Y-107389201D01*
X168074351Y-107448641D01*
X168166480Y-107586520D01*
X168896999Y-108317039D01*
X168896896Y-108434824D01*
X168927900Y-108509859D01*
X167938000Y-107519960D01*
X167938000Y-106172000D01*
X167934366Y-106153729D01*
X167905649Y-106009359D01*
X167813521Y-105871480D01*
X167051520Y-105109480D01*
X166913641Y-105017351D01*
X166886657Y-105011984D01*
X166751000Y-104985000D01*
X163847040Y-104985000D01*
X162906472Y-104044432D01*
X163395621Y-104044432D01*
X163517157Y-104338572D01*
X163742005Y-104563812D01*
X164035932Y-104685861D01*
X164354192Y-104686139D01*
X164648332Y-104564603D01*
X164873572Y-104339755D01*
X164995621Y-104045828D01*
X164995899Y-103727568D01*
X164874363Y-103433428D01*
X164649515Y-103208188D01*
X164355588Y-103086139D01*
X164037328Y-103085861D01*
X163743188Y-103207397D01*
X163517948Y-103432245D01*
X163395899Y-103726172D01*
X163395621Y-104044432D01*
X162906472Y-104044432D01*
X162762000Y-103899960D01*
X162762000Y-103326000D01*
X162760011Y-103316000D01*
X162729649Y-103163359D01*
X162637521Y-103025480D01*
X161487001Y-101874961D01*
X161487104Y-101757176D01*
X161395952Y-101536571D01*
X161227317Y-101367641D01*
X161006871Y-101276104D01*
X160768176Y-101275896D01*
X160547571Y-101367048D01*
X160378641Y-101535683D01*
X160287104Y-101756129D01*
X160286896Y-101994824D01*
X160378048Y-102215429D01*
X160546683Y-102384359D01*
X160767129Y-102475896D01*
X160885959Y-102476000D01*
X161912000Y-103502041D01*
X161912000Y-104076000D01*
X161924783Y-104140264D01*
X161944351Y-104238641D01*
X162036480Y-104376520D01*
X163370480Y-105710520D01*
X163508359Y-105802649D01*
X163671000Y-105835000D01*
X166574960Y-105835000D01*
X167088000Y-106348041D01*
X167088000Y-107696000D01*
X167110089Y-107807048D01*
X167120351Y-107858641D01*
X167212480Y-107996520D01*
X168436999Y-109221039D01*
X168436896Y-109338824D01*
X168528048Y-109559429D01*
X168696683Y-109728359D01*
X168917129Y-109819896D01*
X169155824Y-109820104D01*
X169376429Y-109728952D01*
X169545359Y-109560317D01*
X169636896Y-109339871D01*
X169637104Y-109101176D01*
X169560614Y-108916056D01*
X169615824Y-108916104D01*
X169836429Y-108824952D01*
X170005359Y-108656317D01*
X170050376Y-108547904D01*
X170170360Y-109151105D01*
X170530203Y-109689648D01*
X171068746Y-110049491D01*
X171704000Y-110175851D01*
X172339254Y-110049491D01*
X172877797Y-109689648D01*
X172993457Y-109516550D01*
X174511519Y-109516550D01*
X174933857Y-110538686D01*
X175715201Y-111321395D01*
X176736598Y-111745516D01*
X177842550Y-111746481D01*
X178864686Y-111324143D01*
X179647395Y-110542799D01*
X180071516Y-109521402D01*
X180072481Y-108415450D01*
X179650143Y-107393314D01*
X178868799Y-106610605D01*
X177847402Y-106186484D01*
X176741450Y-106185519D01*
X175719314Y-106607857D01*
X174936605Y-107389201D01*
X174512484Y-108410598D01*
X174511519Y-109516550D01*
X172993457Y-109516550D01*
X173237640Y-109151105D01*
X173364000Y-108515851D01*
X173364000Y-106607528D01*
X175831264Y-104140264D01*
X175961328Y-103945611D01*
X176007000Y-103716000D01*
X176007000Y-100106000D01*
X175961328Y-99876390D01*
X175831264Y-99681736D01*
X175031264Y-98881736D01*
X174836610Y-98751672D01*
X174607000Y-98706000D01*
X172666472Y-98706000D01*
X172986692Y-98526480D01*
X173463262Y-97921398D01*
X173672000Y-97180000D01*
X173672000Y-95785000D01*
X171858000Y-95785000D01*
X171858000Y-95805000D01*
X171550000Y-95805000D01*
X171550000Y-95785000D01*
X169736000Y-95785000D01*
X169736000Y-97180000D01*
X169944738Y-97921398D01*
X170421308Y-98526480D01*
X170741528Y-98706000D01*
X169895528Y-98706000D01*
X166621264Y-95431736D01*
X166426610Y-95301672D01*
X166197000Y-95256000D01*
X164197523Y-95256000D01*
X164078176Y-95255896D01*
X163857571Y-95347048D01*
X163688641Y-95515683D01*
X163597104Y-95736129D01*
X163596896Y-95974824D01*
X163688048Y-96195429D01*
X163856683Y-96364359D01*
X164077129Y-96455896D01*
X164315824Y-96456104D01*
X164316076Y-96456000D01*
X165948472Y-96456000D01*
X168308167Y-98815695D01*
X168079976Y-98815496D01*
X167859371Y-98906648D01*
X167690441Y-99075283D01*
X167598904Y-99295729D01*
X167598696Y-99534424D01*
X167689848Y-99755029D01*
X167858483Y-99923959D01*
X168078929Y-100015496D01*
X168197759Y-100015600D01*
X168634880Y-100452721D01*
X168772759Y-100544849D01*
X168935400Y-100577200D01*
X173223570Y-100577200D01*
X173306783Y-100660559D01*
X173527229Y-100752096D01*
X173765924Y-100752304D01*
X173986529Y-100661152D01*
X174155459Y-100492517D01*
X174246996Y-100272071D01*
X174247204Y-100033376D01*
X174194573Y-99906000D01*
X174358472Y-99906000D01*
X174807000Y-100354528D01*
X174807000Y-103467472D01*
X173248580Y-105025892D01*
X173237640Y-104970895D01*
X172877797Y-104432352D01*
X172339254Y-104072509D01*
X171704000Y-103946149D01*
X171068746Y-104072509D01*
X170530203Y-104432352D01*
X170170360Y-104970895D01*
X170044000Y-105606149D01*
X170044000Y-108068654D01*
X170005952Y-107976571D01*
X169837317Y-107807641D01*
X169616871Y-107716104D01*
X169498040Y-107716000D01*
X168892000Y-107109960D01*
X168892000Y-105676000D01*
X168871441Y-105572641D01*
X168859649Y-105513359D01*
X168767521Y-105375480D01*
X166545965Y-103153924D01*
X168195596Y-103153924D01*
X168286748Y-103374529D01*
X168455383Y-103543459D01*
X168675829Y-103634996D01*
X168914524Y-103635204D01*
X169135129Y-103544052D01*
X169304059Y-103375417D01*
X169395596Y-103154971D01*
X169395700Y-103036140D01*
X170483040Y-101948800D01*
X173223570Y-101948800D01*
X173306783Y-102032159D01*
X173527229Y-102123696D01*
X173765924Y-102123904D01*
X173986529Y-102032752D01*
X174155459Y-101864117D01*
X174246996Y-101643671D01*
X174247204Y-101404976D01*
X174156052Y-101184371D01*
X173987417Y-101015441D01*
X173766971Y-100923904D01*
X173528276Y-100923696D01*
X173307671Y-101014848D01*
X173223572Y-101098800D01*
X170307000Y-101098800D01*
X170172870Y-101125480D01*
X170144359Y-101131151D01*
X170006480Y-101223280D01*
X168794661Y-102435099D01*
X168676876Y-102434996D01*
X168456271Y-102526148D01*
X168287341Y-102694783D01*
X168195804Y-102915229D01*
X168195596Y-103153924D01*
X166545965Y-103153924D01*
X162989648Y-99597607D01*
X163621941Y-99597607D01*
X163662522Y-99801939D01*
X164084241Y-99930189D01*
X164522939Y-99887291D01*
X164728998Y-99801939D01*
X164769579Y-99597607D01*
X164195760Y-99023789D01*
X163621941Y-99597607D01*
X162989648Y-99597607D01*
X162667520Y-99275480D01*
X162529641Y-99183351D01*
X162502657Y-99177984D01*
X162367000Y-99151000D01*
X161070530Y-99151000D01*
X160987317Y-99067641D01*
X160766871Y-98976104D01*
X160528176Y-98975896D01*
X160307571Y-99067048D01*
X160138641Y-99235683D01*
X160047104Y-99456129D01*
X160046896Y-99694824D01*
X155932000Y-99694824D01*
X155932000Y-98694481D01*
X163071571Y-98694481D01*
X163114469Y-99133179D01*
X163199821Y-99339238D01*
X163404153Y-99379819D01*
X163977971Y-98806000D01*
X164413549Y-98806000D01*
X164987367Y-99379819D01*
X165191699Y-99339238D01*
X165319949Y-98917519D01*
X165277051Y-98478821D01*
X165191699Y-98272762D01*
X164987367Y-98232181D01*
X164413549Y-98806000D01*
X163977971Y-98806000D01*
X163404153Y-98232181D01*
X163199821Y-98272762D01*
X163071571Y-98694481D01*
X155932000Y-98694481D01*
X155932000Y-95429530D01*
X156015359Y-95346317D01*
X156102000Y-95137662D01*
X156102000Y-96286000D01*
X156121366Y-96383359D01*
X156134351Y-96448641D01*
X156226480Y-96586520D01*
X157916480Y-98276520D01*
X158054359Y-98368649D01*
X158217000Y-98401000D01*
X161347000Y-98401000D01*
X161482657Y-98374016D01*
X161509641Y-98368649D01*
X161647520Y-98276520D01*
X161909647Y-98014393D01*
X163621941Y-98014393D01*
X164195760Y-98588211D01*
X164769579Y-98014393D01*
X164728998Y-97810061D01*
X164307279Y-97681811D01*
X163868581Y-97724709D01*
X163662522Y-97810061D01*
X163621941Y-98014393D01*
X161909647Y-98014393D01*
X162384959Y-97539081D01*
X162483598Y-97443732D01*
X163127859Y-97441000D01*
X165230960Y-97441000D01*
X166310760Y-98520801D01*
X166310760Y-100656004D01*
X166283188Y-100667397D01*
X166057948Y-100892245D01*
X165935899Y-101186172D01*
X165935621Y-101504432D01*
X166057157Y-101798572D01*
X166282005Y-102023812D01*
X166575932Y-102145861D01*
X166894192Y-102146139D01*
X167188332Y-102024603D01*
X167413572Y-101799755D01*
X167535621Y-101505828D01*
X167535899Y-101187568D01*
X167414363Y-100893428D01*
X167189515Y-100668188D01*
X167160760Y-100656248D01*
X167160760Y-98344760D01*
X167128409Y-98182120D01*
X167097838Y-98136368D01*
X167036280Y-98044239D01*
X165707520Y-96715480D01*
X165569641Y-96623351D01*
X165542657Y-96617984D01*
X165407000Y-96591000D01*
X163127000Y-96591000D01*
X163126099Y-96591179D01*
X163125198Y-96591004D01*
X162309210Y-96594464D01*
X162232264Y-96610109D01*
X162155053Y-96624110D01*
X162151200Y-96626591D01*
X162146709Y-96627504D01*
X162081630Y-96671389D01*
X162015631Y-96713887D01*
X161791619Y-96930427D01*
X161789529Y-96933443D01*
X161786480Y-96935480D01*
X161170960Y-97551000D01*
X158393040Y-97551000D01*
X156952000Y-96109960D01*
X156952000Y-96024824D01*
X161866896Y-96024824D01*
X161958048Y-96245429D01*
X162126683Y-96414359D01*
X162347129Y-96505896D01*
X162585824Y-96506104D01*
X162806429Y-96414952D01*
X162975359Y-96246317D01*
X163066896Y-96025871D01*
X163066991Y-95917049D01*
X163783041Y-95201000D01*
X168647000Y-95201000D01*
X168782657Y-95174016D01*
X168809641Y-95168649D01*
X168947520Y-95076520D01*
X169578039Y-94446001D01*
X169695824Y-94446104D01*
X169736000Y-94429504D01*
X169736000Y-95477000D01*
X171550000Y-95477000D01*
X171550000Y-92426542D01*
X171858000Y-92426542D01*
X171858000Y-95477000D01*
X173672000Y-95477000D01*
X173672000Y-94276550D01*
X174511519Y-94276550D01*
X174933857Y-95298686D01*
X175715201Y-96081395D01*
X176736598Y-96505516D01*
X177842550Y-96506481D01*
X178864686Y-96084143D01*
X179647395Y-95302799D01*
X180071516Y-94281402D01*
X180072481Y-93175450D01*
X179650143Y-92153314D01*
X178868799Y-91370605D01*
X177847402Y-90946484D01*
X176741450Y-90945519D01*
X175719314Y-91367857D01*
X174936605Y-92149201D01*
X174512484Y-93170598D01*
X174511519Y-94276550D01*
X173672000Y-94276550D01*
X173672000Y-94082000D01*
X173463262Y-93340602D01*
X172986692Y-92735520D01*
X172314844Y-92358872D01*
X172163023Y-92322281D01*
X171858000Y-92426542D01*
X171550000Y-92426542D01*
X171244977Y-92322281D01*
X171093156Y-92358872D01*
X170421308Y-92735520D01*
X169944738Y-93340602D01*
X169939356Y-93359718D01*
X169917317Y-93337641D01*
X169696871Y-93246104D01*
X169458176Y-93245896D01*
X169237571Y-93337048D01*
X169068641Y-93505683D01*
X168977104Y-93726129D01*
X168977000Y-93844959D01*
X168470960Y-94351000D01*
X163607000Y-94351000D01*
X163444360Y-94383351D01*
X163424650Y-94396521D01*
X163306479Y-94475480D01*
X162475952Y-95306007D01*
X162348176Y-95305896D01*
X162127571Y-95397048D01*
X161958641Y-95565683D01*
X161867104Y-95786129D01*
X161866896Y-96024824D01*
X156952000Y-96024824D01*
X156952000Y-94646000D01*
X156919649Y-94483360D01*
X156861624Y-94396520D01*
X156827520Y-94345479D01*
X156277520Y-93795480D01*
X156255849Y-93781000D01*
X159070960Y-93781000D01*
X160396999Y-95107039D01*
X160396896Y-95224824D01*
X160488048Y-95445429D01*
X160656683Y-95614359D01*
X160877129Y-95705896D01*
X161115824Y-95706104D01*
X161336429Y-95614952D01*
X161505359Y-95446317D01*
X161596896Y-95225871D01*
X161597104Y-94987176D01*
X161505952Y-94766571D01*
X161337317Y-94597641D01*
X161116871Y-94506104D01*
X160998041Y-94506000D01*
X159547520Y-93055480D01*
X159409641Y-92963351D01*
X159382657Y-92957984D01*
X159247000Y-92931000D01*
X155950583Y-92931000D01*
X155897317Y-92877641D01*
X155676871Y-92786104D01*
X155438176Y-92785896D01*
X155217571Y-92877048D01*
X155133472Y-92961000D01*
X151683041Y-92961000D01*
X151107001Y-92384961D01*
X151107104Y-92267176D01*
X151015952Y-92046571D01*
X150873072Y-91903441D01*
X162713771Y-91903441D01*
X162826875Y-92177175D01*
X163036124Y-92386789D01*
X163309660Y-92500371D01*
X163605841Y-92500629D01*
X163879575Y-92387525D01*
X164089189Y-92178276D01*
X164202771Y-91904740D01*
X164202772Y-91903441D01*
X165710971Y-91903441D01*
X165824075Y-92177175D01*
X166033324Y-92386789D01*
X166306860Y-92500371D01*
X166603041Y-92500629D01*
X166876775Y-92387525D01*
X167086389Y-92178276D01*
X167199971Y-91904740D01*
X167200229Y-91608559D01*
X167087125Y-91334825D01*
X166877876Y-91125211D01*
X166604340Y-91011629D01*
X166308159Y-91011371D01*
X166034425Y-91124475D01*
X165824811Y-91333724D01*
X165711229Y-91607260D01*
X165710971Y-91903441D01*
X164202772Y-91903441D01*
X164203029Y-91608559D01*
X164089925Y-91334825D01*
X163880676Y-91125211D01*
X163607140Y-91011629D01*
X163310959Y-91011371D01*
X163037225Y-91124475D01*
X162827611Y-91333724D01*
X162714029Y-91607260D01*
X162713771Y-91903441D01*
X150873072Y-91903441D01*
X150847317Y-91877641D01*
X150626871Y-91786104D01*
X150388176Y-91785896D01*
X150167571Y-91877048D01*
X149998641Y-92045683D01*
X149907104Y-92266129D01*
X149906896Y-92504824D01*
X149998048Y-92725429D01*
X150166683Y-92894359D01*
X150387129Y-92985896D01*
X150505959Y-92986000D01*
X151190959Y-93671000D01*
X147330443Y-93671000D01*
X147197317Y-93537641D01*
X146976871Y-93446104D01*
X146738176Y-93445896D01*
X146517571Y-93537048D01*
X146348641Y-93705683D01*
X146257104Y-93926129D01*
X146256896Y-94164824D01*
X146348048Y-94385429D01*
X146516683Y-94554359D01*
X146737129Y-94645896D01*
X146975824Y-94646104D01*
X147196429Y-94554952D01*
X147230440Y-94521000D01*
X150360959Y-94521000D01*
X149890960Y-94991000D01*
X148587000Y-94991000D01*
X148424359Y-95023351D01*
X148286480Y-95115479D01*
X146660960Y-96741000D01*
X134700530Y-96741000D01*
X134617317Y-96657641D01*
X134396871Y-96566104D01*
X134158176Y-96565896D01*
X133937571Y-96657048D01*
X133768641Y-96825683D01*
X133677104Y-97046129D01*
X133676896Y-97284824D01*
X126719000Y-97284824D01*
X126719000Y-96064824D01*
X135046896Y-96064824D01*
X135138048Y-96285429D01*
X135306683Y-96454359D01*
X135527129Y-96545896D01*
X135765824Y-96546104D01*
X135986429Y-96454952D01*
X136070528Y-96371000D01*
X143337000Y-96371000D01*
X143472657Y-96344016D01*
X143499641Y-96338649D01*
X143637520Y-96246520D01*
X148138039Y-91746001D01*
X148255824Y-91746104D01*
X148476429Y-91654952D01*
X148645359Y-91486317D01*
X148736896Y-91265871D01*
X148737104Y-91027176D01*
X148645952Y-90806571D01*
X148477317Y-90637641D01*
X148256871Y-90546104D01*
X148018176Y-90545896D01*
X147797571Y-90637048D01*
X147628641Y-90805683D01*
X147537104Y-91026129D01*
X147537000Y-91144960D01*
X143160960Y-95521000D01*
X136070530Y-95521000D01*
X135987317Y-95437641D01*
X135766871Y-95346104D01*
X135528176Y-95345896D01*
X135307571Y-95437048D01*
X135138641Y-95605683D01*
X135047104Y-95826129D01*
X135046896Y-96064824D01*
X126719000Y-96064824D01*
X126719000Y-94694824D01*
X140426896Y-94694824D01*
X140518048Y-94915429D01*
X140686683Y-95084359D01*
X140907129Y-95175896D01*
X141145824Y-95176104D01*
X141366429Y-95084952D01*
X141535359Y-94916317D01*
X141626896Y-94695871D01*
X141627000Y-94577040D01*
X144733040Y-91471000D01*
X145853470Y-91471000D01*
X145936683Y-91554359D01*
X146157129Y-91645896D01*
X146395824Y-91646104D01*
X146616429Y-91554952D01*
X146785359Y-91386317D01*
X146876896Y-91165871D01*
X146877104Y-90927176D01*
X146785952Y-90706571D01*
X146617317Y-90537641D01*
X146396871Y-90446104D01*
X146158176Y-90445896D01*
X145937571Y-90537048D01*
X145853472Y-90621000D01*
X144557000Y-90621000D01*
X144394359Y-90653351D01*
X144256480Y-90745480D01*
X141025961Y-93975999D01*
X140908176Y-93975896D01*
X140687571Y-94067048D01*
X140518641Y-94235683D01*
X140427104Y-94456129D01*
X140426896Y-94694824D01*
X126719000Y-94694824D01*
X126719000Y-90316000D01*
X180321000Y-90316000D01*
X180321000Y-112376000D01*
X180321000Y-112376000D01*
G37*
X180321000Y-112376000D02*
X126719000Y-112376000D01*
X126719000Y-107738624D01*
X129524096Y-107738624D01*
X129615248Y-107959229D01*
X129783883Y-108128159D01*
X130004329Y-108219696D01*
X130123159Y-108219800D01*
X132020780Y-110117421D01*
X132158659Y-110209549D01*
X132321300Y-110241900D01*
X148534659Y-110241900D01*
X148554483Y-110261759D01*
X148774929Y-110353296D01*
X149013624Y-110353504D01*
X149234229Y-110262352D01*
X149403159Y-110093717D01*
X149494696Y-109873271D01*
X149494904Y-109634576D01*
X149403752Y-109413971D01*
X149235117Y-109245041D01*
X149014671Y-109153504D01*
X148775976Y-109153296D01*
X148555371Y-109244448D01*
X148407661Y-109391900D01*
X132497341Y-109391900D01*
X130970265Y-107864824D01*
X131826896Y-107864824D01*
X131918048Y-108085429D01*
X132086683Y-108254359D01*
X132307129Y-108345896D01*
X132425960Y-108346000D01*
X133156480Y-109076520D01*
X133294359Y-109168649D01*
X133321343Y-109174016D01*
X133457000Y-109201000D01*
X145757173Y-109201000D01*
X145817129Y-109225896D01*
X146055824Y-109226104D01*
X146276429Y-109134952D01*
X146445359Y-108966317D01*
X146536896Y-108745871D01*
X146537104Y-108507176D01*
X146445952Y-108286571D01*
X146277317Y-108117641D01*
X146056871Y-108026104D01*
X145818176Y-108025896D01*
X145597571Y-108117048D01*
X145428641Y-108285683D01*
X145401519Y-108351000D01*
X133633040Y-108351000D01*
X133071464Y-107789424D01*
X135632796Y-107789424D01*
X135723948Y-108010029D01*
X135892583Y-108178959D01*
X136113029Y-108270496D01*
X136351724Y-108270704D01*
X136572329Y-108179552D01*
X136741259Y-108010917D01*
X136832796Y-107790471D01*
X136832877Y-107697063D01*
X137831341Y-106698600D01*
X155049870Y-106698600D01*
X155133083Y-106781959D01*
X155353529Y-106873496D01*
X155472359Y-106873600D01*
X158835777Y-110237017D01*
X158835696Y-110329424D01*
X158926848Y-110550029D01*
X159095483Y-110718959D01*
X159315929Y-110810496D01*
X159554624Y-110810704D01*
X159775229Y-110719552D01*
X159944159Y-110550917D01*
X160035696Y-110330471D01*
X160035904Y-110091776D01*
X159944752Y-109871171D01*
X159776117Y-109702241D01*
X159555671Y-109610704D01*
X159411419Y-109610578D01*
X156073401Y-106272561D01*
X156073504Y-106154776D01*
X155982352Y-105934171D01*
X155813717Y-105765241D01*
X155593271Y-105673704D01*
X155354576Y-105673496D01*
X155133971Y-105764648D01*
X155049872Y-105848600D01*
X137655300Y-105848600D01*
X137492660Y-105880951D01*
X137492658Y-105880952D01*
X137492659Y-105880952D01*
X137354779Y-105973080D01*
X136257239Y-107070621D01*
X136114076Y-107070496D01*
X135893471Y-107161648D01*
X135724541Y-107330283D01*
X135633004Y-107550729D01*
X135632796Y-107789424D01*
X133071464Y-107789424D01*
X133027001Y-107744961D01*
X133027104Y-107627176D01*
X132935952Y-107406571D01*
X132767317Y-107237641D01*
X132546871Y-107146104D01*
X132308176Y-107145896D01*
X132087571Y-107237048D01*
X131918641Y-107405683D01*
X131827104Y-107626129D01*
X131826896Y-107864824D01*
X130970265Y-107864824D01*
X130724201Y-107618761D01*
X130724304Y-107500976D01*
X130633152Y-107280371D01*
X130464517Y-107111441D01*
X130244071Y-107019904D01*
X130005376Y-107019696D01*
X129784771Y-107110848D01*
X129615841Y-107279483D01*
X129524304Y-107499929D01*
X129524096Y-107738624D01*
X126719000Y-107738624D01*
X126719000Y-103434824D01*
X142956896Y-103434824D01*
X143048048Y-103655429D01*
X143216683Y-103824359D01*
X143437129Y-103915896D01*
X143675824Y-103916104D01*
X143896429Y-103824952D01*
X144065359Y-103656317D01*
X144156896Y-103435871D01*
X144157000Y-103317041D01*
X145083041Y-102391000D01*
X148187000Y-102391000D01*
X148322657Y-102364016D01*
X148349641Y-102358649D01*
X148487520Y-102266520D01*
X149027520Y-101726521D01*
X149119648Y-101588641D01*
X149119649Y-101588640D01*
X149152000Y-101426000D01*
X149152000Y-101279530D01*
X149235359Y-101196317D01*
X149326896Y-100975871D01*
X149327104Y-100737176D01*
X149235952Y-100516571D01*
X149067317Y-100347641D01*
X148846871Y-100256104D01*
X148608176Y-100255896D01*
X148387571Y-100347048D01*
X148218641Y-100515683D01*
X148127104Y-100736129D01*
X148126896Y-100974824D01*
X148218048Y-101195429D01*
X148287229Y-101264731D01*
X148010960Y-101541000D01*
X144907000Y-101541000D01*
X144744360Y-101573351D01*
X144744358Y-101573352D01*
X144744359Y-101573352D01*
X144606479Y-101665480D01*
X143555961Y-102715999D01*
X143438176Y-102715896D01*
X143217571Y-102807048D01*
X143048641Y-102975683D01*
X142957104Y-103196129D01*
X142956896Y-103434824D01*
X126719000Y-103434824D01*
X126719000Y-98444824D01*
X141256896Y-98444824D01*
X141348048Y-98665429D01*
X141516683Y-98834359D01*
X141737129Y-98925896D01*
X141975824Y-98926104D01*
X142196429Y-98834952D01*
X142280528Y-98751000D01*
X150830960Y-98751000D01*
X150936999Y-98857039D01*
X150936896Y-98974824D01*
X151028048Y-99195429D01*
X151196683Y-99364359D01*
X151417129Y-99455896D01*
X151655824Y-99456104D01*
X151876429Y-99364952D01*
X152045359Y-99196317D01*
X152136896Y-98975871D01*
X152137104Y-98737176D01*
X152045952Y-98516571D01*
X151877317Y-98347641D01*
X151656871Y-98256104D01*
X151538041Y-98256000D01*
X151307520Y-98025480D01*
X151169641Y-97933351D01*
X151142657Y-97927984D01*
X151007000Y-97901000D01*
X142280530Y-97901000D01*
X142197317Y-97817641D01*
X141976871Y-97726104D01*
X141738176Y-97725896D01*
X141517571Y-97817048D01*
X141348641Y-97985683D01*
X141257104Y-98206129D01*
X141256896Y-98444824D01*
X126719000Y-98444824D01*
X126719000Y-97284824D01*
X133676896Y-97284824D01*
X133768048Y-97505429D01*
X133936683Y-97674359D01*
X134157129Y-97765896D01*
X134395824Y-97766104D01*
X134616429Y-97674952D01*
X134700528Y-97591000D01*
X146837000Y-97591000D01*
X146972657Y-97564016D01*
X146999641Y-97558649D01*
X147137520Y-97466520D01*
X148763041Y-95841000D01*
X150067000Y-95841000D01*
X150171807Y-95820153D01*
X149870960Y-96121000D01*
X149820530Y-96121000D01*
X149737317Y-96037641D01*
X149516871Y-95946104D01*
X149278176Y-95945896D01*
X149057571Y-96037048D01*
X148888641Y-96205683D01*
X148797104Y-96426129D01*
X148796896Y-96664824D01*
X148888048Y-96885429D01*
X149056683Y-97054359D01*
X149277129Y-97145896D01*
X149515824Y-97146104D01*
X149736429Y-97054952D01*
X149820528Y-96971000D01*
X150047000Y-96971000D01*
X150182657Y-96944016D01*
X150209641Y-96938649D01*
X150347520Y-96846520D01*
X150858039Y-96336001D01*
X150975824Y-96336104D01*
X151196429Y-96244952D01*
X151365359Y-96076317D01*
X151456896Y-95855871D01*
X151457104Y-95617176D01*
X151365952Y-95396571D01*
X151197317Y-95227641D01*
X151133158Y-95201000D01*
X151843382Y-95201000D01*
X151876683Y-95234359D01*
X152097129Y-95325896D01*
X152335824Y-95326104D01*
X152556429Y-95234952D01*
X152725359Y-95066317D01*
X152816896Y-94845871D01*
X152817104Y-94607176D01*
X152781497Y-94521000D01*
X155143577Y-94521000D01*
X154998641Y-94665683D01*
X154907104Y-94886129D01*
X154906896Y-95124824D01*
X154998048Y-95345429D01*
X155082000Y-95429528D01*
X155082000Y-100729959D01*
X153765961Y-102045999D01*
X153648176Y-102045896D01*
X153427571Y-102137048D01*
X153258641Y-102305683D01*
X153167104Y-102526129D01*
X153166896Y-102764824D01*
X153258048Y-102985429D01*
X153426683Y-103154359D01*
X153647129Y-103245896D01*
X153885824Y-103246104D01*
X154106429Y-103154952D01*
X154275359Y-102986317D01*
X154366896Y-102765871D01*
X154367000Y-102647041D01*
X155807521Y-101206520D01*
X155899649Y-101068641D01*
X155932000Y-100906000D01*
X155932000Y-99694824D01*
X160046896Y-99694824D01*
X160138048Y-99915429D01*
X160306683Y-100084359D01*
X160527129Y-100175896D01*
X160765824Y-100176104D01*
X160986429Y-100084952D01*
X161070528Y-100001000D01*
X162190960Y-100001000D01*
X168042000Y-105852041D01*
X168042000Y-107286000D01*
X168062528Y-107389201D01*
X168074351Y-107448641D01*
X168166480Y-107586520D01*
X168896999Y-108317039D01*
X168896896Y-108434824D01*
X168927900Y-108509859D01*
X167938000Y-107519960D01*
X167938000Y-106172000D01*
X167934366Y-106153729D01*
X167905649Y-106009359D01*
X167813521Y-105871480D01*
X167051520Y-105109480D01*
X166913641Y-105017351D01*
X166886657Y-105011984D01*
X166751000Y-104985000D01*
X163847040Y-104985000D01*
X162906472Y-104044432D01*
X163395621Y-104044432D01*
X163517157Y-104338572D01*
X163742005Y-104563812D01*
X164035932Y-104685861D01*
X164354192Y-104686139D01*
X164648332Y-104564603D01*
X164873572Y-104339755D01*
X164995621Y-104045828D01*
X164995899Y-103727568D01*
X164874363Y-103433428D01*
X164649515Y-103208188D01*
X164355588Y-103086139D01*
X164037328Y-103085861D01*
X163743188Y-103207397D01*
X163517948Y-103432245D01*
X163395899Y-103726172D01*
X163395621Y-104044432D01*
X162906472Y-104044432D01*
X162762000Y-103899960D01*
X162762000Y-103326000D01*
X162760011Y-103316000D01*
X162729649Y-103163359D01*
X162637521Y-103025480D01*
X161487001Y-101874961D01*
X161487104Y-101757176D01*
X161395952Y-101536571D01*
X161227317Y-101367641D01*
X161006871Y-101276104D01*
X160768176Y-101275896D01*
X160547571Y-101367048D01*
X160378641Y-101535683D01*
X160287104Y-101756129D01*
X160286896Y-101994824D01*
X160378048Y-102215429D01*
X160546683Y-102384359D01*
X160767129Y-102475896D01*
X160885959Y-102476000D01*
X161912000Y-103502041D01*
X161912000Y-104076000D01*
X161924783Y-104140264D01*
X161944351Y-104238641D01*
X162036480Y-104376520D01*
X163370480Y-105710520D01*
X163508359Y-105802649D01*
X163671000Y-105835000D01*
X166574960Y-105835000D01*
X167088000Y-106348041D01*
X167088000Y-107696000D01*
X167110089Y-107807048D01*
X167120351Y-107858641D01*
X167212480Y-107996520D01*
X168436999Y-109221039D01*
X168436896Y-109338824D01*
X168528048Y-109559429D01*
X168696683Y-109728359D01*
X168917129Y-109819896D01*
X169155824Y-109820104D01*
X169376429Y-109728952D01*
X169545359Y-109560317D01*
X169636896Y-109339871D01*
X169637104Y-109101176D01*
X169560614Y-108916056D01*
X169615824Y-108916104D01*
X169836429Y-108824952D01*
X170005359Y-108656317D01*
X170050376Y-108547904D01*
X170170360Y-109151105D01*
X170530203Y-109689648D01*
X171068746Y-110049491D01*
X171704000Y-110175851D01*
X172339254Y-110049491D01*
X172877797Y-109689648D01*
X172993457Y-109516550D01*
X174511519Y-109516550D01*
X174933857Y-110538686D01*
X175715201Y-111321395D01*
X176736598Y-111745516D01*
X177842550Y-111746481D01*
X178864686Y-111324143D01*
X179647395Y-110542799D01*
X180071516Y-109521402D01*
X180072481Y-108415450D01*
X179650143Y-107393314D01*
X178868799Y-106610605D01*
X177847402Y-106186484D01*
X176741450Y-106185519D01*
X175719314Y-106607857D01*
X174936605Y-107389201D01*
X174512484Y-108410598D01*
X174511519Y-109516550D01*
X172993457Y-109516550D01*
X173237640Y-109151105D01*
X173364000Y-108515851D01*
X173364000Y-106607528D01*
X175831264Y-104140264D01*
X175961328Y-103945611D01*
X176007000Y-103716000D01*
X176007000Y-100106000D01*
X175961328Y-99876390D01*
X175831264Y-99681736D01*
X175031264Y-98881736D01*
X174836610Y-98751672D01*
X174607000Y-98706000D01*
X172666472Y-98706000D01*
X172986692Y-98526480D01*
X173463262Y-97921398D01*
X173672000Y-97180000D01*
X173672000Y-95785000D01*
X171858000Y-95785000D01*
X171858000Y-95805000D01*
X171550000Y-95805000D01*
X171550000Y-95785000D01*
X169736000Y-95785000D01*
X169736000Y-97180000D01*
X169944738Y-97921398D01*
X170421308Y-98526480D01*
X170741528Y-98706000D01*
X169895528Y-98706000D01*
X166621264Y-95431736D01*
X166426610Y-95301672D01*
X166197000Y-95256000D01*
X164197523Y-95256000D01*
X164078176Y-95255896D01*
X163857571Y-95347048D01*
X163688641Y-95515683D01*
X163597104Y-95736129D01*
X163596896Y-95974824D01*
X163688048Y-96195429D01*
X163856683Y-96364359D01*
X164077129Y-96455896D01*
X164315824Y-96456104D01*
X164316076Y-96456000D01*
X165948472Y-96456000D01*
X168308167Y-98815695D01*
X168079976Y-98815496D01*
X167859371Y-98906648D01*
X167690441Y-99075283D01*
X167598904Y-99295729D01*
X167598696Y-99534424D01*
X167689848Y-99755029D01*
X167858483Y-99923959D01*
X168078929Y-100015496D01*
X168197759Y-100015600D01*
X168634880Y-100452721D01*
X168772759Y-100544849D01*
X168935400Y-100577200D01*
X173223570Y-100577200D01*
X173306783Y-100660559D01*
X173527229Y-100752096D01*
X173765924Y-100752304D01*
X173986529Y-100661152D01*
X174155459Y-100492517D01*
X174246996Y-100272071D01*
X174247204Y-100033376D01*
X174194573Y-99906000D01*
X174358472Y-99906000D01*
X174807000Y-100354528D01*
X174807000Y-103467472D01*
X173248580Y-105025892D01*
X173237640Y-104970895D01*
X172877797Y-104432352D01*
X172339254Y-104072509D01*
X171704000Y-103946149D01*
X171068746Y-104072509D01*
X170530203Y-104432352D01*
X170170360Y-104970895D01*
X170044000Y-105606149D01*
X170044000Y-108068654D01*
X170005952Y-107976571D01*
X169837317Y-107807641D01*
X169616871Y-107716104D01*
X169498040Y-107716000D01*
X168892000Y-107109960D01*
X168892000Y-105676000D01*
X168871441Y-105572641D01*
X168859649Y-105513359D01*
X168767521Y-105375480D01*
X166545965Y-103153924D01*
X168195596Y-103153924D01*
X168286748Y-103374529D01*
X168455383Y-103543459D01*
X168675829Y-103634996D01*
X168914524Y-103635204D01*
X169135129Y-103544052D01*
X169304059Y-103375417D01*
X169395596Y-103154971D01*
X169395700Y-103036140D01*
X170483040Y-101948800D01*
X173223570Y-101948800D01*
X173306783Y-102032159D01*
X173527229Y-102123696D01*
X173765924Y-102123904D01*
X173986529Y-102032752D01*
X174155459Y-101864117D01*
X174246996Y-101643671D01*
X174247204Y-101404976D01*
X174156052Y-101184371D01*
X173987417Y-101015441D01*
X173766971Y-100923904D01*
X173528276Y-100923696D01*
X173307671Y-101014848D01*
X173223572Y-101098800D01*
X170307000Y-101098800D01*
X170172870Y-101125480D01*
X170144359Y-101131151D01*
X170006480Y-101223280D01*
X168794661Y-102435099D01*
X168676876Y-102434996D01*
X168456271Y-102526148D01*
X168287341Y-102694783D01*
X168195804Y-102915229D01*
X168195596Y-103153924D01*
X166545965Y-103153924D01*
X162989648Y-99597607D01*
X163621941Y-99597607D01*
X163662522Y-99801939D01*
X164084241Y-99930189D01*
X164522939Y-99887291D01*
X164728998Y-99801939D01*
X164769579Y-99597607D01*
X164195760Y-99023789D01*
X163621941Y-99597607D01*
X162989648Y-99597607D01*
X162667520Y-99275480D01*
X162529641Y-99183351D01*
X162502657Y-99177984D01*
X162367000Y-99151000D01*
X161070530Y-99151000D01*
X160987317Y-99067641D01*
X160766871Y-98976104D01*
X160528176Y-98975896D01*
X160307571Y-99067048D01*
X160138641Y-99235683D01*
X160047104Y-99456129D01*
X160046896Y-99694824D01*
X155932000Y-99694824D01*
X155932000Y-98694481D01*
X163071571Y-98694481D01*
X163114469Y-99133179D01*
X163199821Y-99339238D01*
X163404153Y-99379819D01*
X163977971Y-98806000D01*
X164413549Y-98806000D01*
X164987367Y-99379819D01*
X165191699Y-99339238D01*
X165319949Y-98917519D01*
X165277051Y-98478821D01*
X165191699Y-98272762D01*
X164987367Y-98232181D01*
X164413549Y-98806000D01*
X163977971Y-98806000D01*
X163404153Y-98232181D01*
X163199821Y-98272762D01*
X163071571Y-98694481D01*
X155932000Y-98694481D01*
X155932000Y-95429530D01*
X156015359Y-95346317D01*
X156102000Y-95137662D01*
X156102000Y-96286000D01*
X156121366Y-96383359D01*
X156134351Y-96448641D01*
X156226480Y-96586520D01*
X157916480Y-98276520D01*
X158054359Y-98368649D01*
X158217000Y-98401000D01*
X161347000Y-98401000D01*
X161482657Y-98374016D01*
X161509641Y-98368649D01*
X161647520Y-98276520D01*
X161909647Y-98014393D01*
X163621941Y-98014393D01*
X164195760Y-98588211D01*
X164769579Y-98014393D01*
X164728998Y-97810061D01*
X164307279Y-97681811D01*
X163868581Y-97724709D01*
X163662522Y-97810061D01*
X163621941Y-98014393D01*
X161909647Y-98014393D01*
X162384959Y-97539081D01*
X162483598Y-97443732D01*
X163127859Y-97441000D01*
X165230960Y-97441000D01*
X166310760Y-98520801D01*
X166310760Y-100656004D01*
X166283188Y-100667397D01*
X166057948Y-100892245D01*
X165935899Y-101186172D01*
X165935621Y-101504432D01*
X166057157Y-101798572D01*
X166282005Y-102023812D01*
X166575932Y-102145861D01*
X166894192Y-102146139D01*
X167188332Y-102024603D01*
X167413572Y-101799755D01*
X167535621Y-101505828D01*
X167535899Y-101187568D01*
X167414363Y-100893428D01*
X167189515Y-100668188D01*
X167160760Y-100656248D01*
X167160760Y-98344760D01*
X167128409Y-98182120D01*
X167097838Y-98136368D01*
X167036280Y-98044239D01*
X165707520Y-96715480D01*
X165569641Y-96623351D01*
X165542657Y-96617984D01*
X165407000Y-96591000D01*
X163127000Y-96591000D01*
X163126099Y-96591179D01*
X163125198Y-96591004D01*
X162309210Y-96594464D01*
X162232264Y-96610109D01*
X162155053Y-96624110D01*
X162151200Y-96626591D01*
X162146709Y-96627504D01*
X162081630Y-96671389D01*
X162015631Y-96713887D01*
X161791619Y-96930427D01*
X161789529Y-96933443D01*
X161786480Y-96935480D01*
X161170960Y-97551000D01*
X158393040Y-97551000D01*
X156952000Y-96109960D01*
X156952000Y-96024824D01*
X161866896Y-96024824D01*
X161958048Y-96245429D01*
X162126683Y-96414359D01*
X162347129Y-96505896D01*
X162585824Y-96506104D01*
X162806429Y-96414952D01*
X162975359Y-96246317D01*
X163066896Y-96025871D01*
X163066991Y-95917049D01*
X163783041Y-95201000D01*
X168647000Y-95201000D01*
X168782657Y-95174016D01*
X168809641Y-95168649D01*
X168947520Y-95076520D01*
X169578039Y-94446001D01*
X169695824Y-94446104D01*
X169736000Y-94429504D01*
X169736000Y-95477000D01*
X171550000Y-95477000D01*
X171550000Y-92426542D01*
X171858000Y-92426542D01*
X171858000Y-95477000D01*
X173672000Y-95477000D01*
X173672000Y-94276550D01*
X174511519Y-94276550D01*
X174933857Y-95298686D01*
X175715201Y-96081395D01*
X176736598Y-96505516D01*
X177842550Y-96506481D01*
X178864686Y-96084143D01*
X179647395Y-95302799D01*
X180071516Y-94281402D01*
X180072481Y-93175450D01*
X179650143Y-92153314D01*
X178868799Y-91370605D01*
X177847402Y-90946484D01*
X176741450Y-90945519D01*
X175719314Y-91367857D01*
X174936605Y-92149201D01*
X174512484Y-93170598D01*
X174511519Y-94276550D01*
X173672000Y-94276550D01*
X173672000Y-94082000D01*
X173463262Y-93340602D01*
X172986692Y-92735520D01*
X172314844Y-92358872D01*
X172163023Y-92322281D01*
X171858000Y-92426542D01*
X171550000Y-92426542D01*
X171244977Y-92322281D01*
X171093156Y-92358872D01*
X170421308Y-92735520D01*
X169944738Y-93340602D01*
X169939356Y-93359718D01*
X169917317Y-93337641D01*
X169696871Y-93246104D01*
X169458176Y-93245896D01*
X169237571Y-93337048D01*
X169068641Y-93505683D01*
X168977104Y-93726129D01*
X168977000Y-93844959D01*
X168470960Y-94351000D01*
X163607000Y-94351000D01*
X163444360Y-94383351D01*
X163424650Y-94396521D01*
X163306479Y-94475480D01*
X162475952Y-95306007D01*
X162348176Y-95305896D01*
X162127571Y-95397048D01*
X161958641Y-95565683D01*
X161867104Y-95786129D01*
X161866896Y-96024824D01*
X156952000Y-96024824D01*
X156952000Y-94646000D01*
X156919649Y-94483360D01*
X156861624Y-94396520D01*
X156827520Y-94345479D01*
X156277520Y-93795480D01*
X156255849Y-93781000D01*
X159070960Y-93781000D01*
X160396999Y-95107039D01*
X160396896Y-95224824D01*
X160488048Y-95445429D01*
X160656683Y-95614359D01*
X160877129Y-95705896D01*
X161115824Y-95706104D01*
X161336429Y-95614952D01*
X161505359Y-95446317D01*
X161596896Y-95225871D01*
X161597104Y-94987176D01*
X161505952Y-94766571D01*
X161337317Y-94597641D01*
X161116871Y-94506104D01*
X160998041Y-94506000D01*
X159547520Y-93055480D01*
X159409641Y-92963351D01*
X159382657Y-92957984D01*
X159247000Y-92931000D01*
X155950583Y-92931000D01*
X155897317Y-92877641D01*
X155676871Y-92786104D01*
X155438176Y-92785896D01*
X155217571Y-92877048D01*
X155133472Y-92961000D01*
X151683041Y-92961000D01*
X151107001Y-92384961D01*
X151107104Y-92267176D01*
X151015952Y-92046571D01*
X150873072Y-91903441D01*
X162713771Y-91903441D01*
X162826875Y-92177175D01*
X163036124Y-92386789D01*
X163309660Y-92500371D01*
X163605841Y-92500629D01*
X163879575Y-92387525D01*
X164089189Y-92178276D01*
X164202771Y-91904740D01*
X164202772Y-91903441D01*
X165710971Y-91903441D01*
X165824075Y-92177175D01*
X166033324Y-92386789D01*
X166306860Y-92500371D01*
X166603041Y-92500629D01*
X166876775Y-92387525D01*
X167086389Y-92178276D01*
X167199971Y-91904740D01*
X167200229Y-91608559D01*
X167087125Y-91334825D01*
X166877876Y-91125211D01*
X166604340Y-91011629D01*
X166308159Y-91011371D01*
X166034425Y-91124475D01*
X165824811Y-91333724D01*
X165711229Y-91607260D01*
X165710971Y-91903441D01*
X164202772Y-91903441D01*
X164203029Y-91608559D01*
X164089925Y-91334825D01*
X163880676Y-91125211D01*
X163607140Y-91011629D01*
X163310959Y-91011371D01*
X163037225Y-91124475D01*
X162827611Y-91333724D01*
X162714029Y-91607260D01*
X162713771Y-91903441D01*
X150873072Y-91903441D01*
X150847317Y-91877641D01*
X150626871Y-91786104D01*
X150388176Y-91785896D01*
X150167571Y-91877048D01*
X149998641Y-92045683D01*
X149907104Y-92266129D01*
X149906896Y-92504824D01*
X149998048Y-92725429D01*
X150166683Y-92894359D01*
X150387129Y-92985896D01*
X150505959Y-92986000D01*
X151190959Y-93671000D01*
X147330443Y-93671000D01*
X147197317Y-93537641D01*
X146976871Y-93446104D01*
X146738176Y-93445896D01*
X146517571Y-93537048D01*
X146348641Y-93705683D01*
X146257104Y-93926129D01*
X146256896Y-94164824D01*
X146348048Y-94385429D01*
X146516683Y-94554359D01*
X146737129Y-94645896D01*
X146975824Y-94646104D01*
X147196429Y-94554952D01*
X147230440Y-94521000D01*
X150360959Y-94521000D01*
X149890960Y-94991000D01*
X148587000Y-94991000D01*
X148424359Y-95023351D01*
X148286480Y-95115479D01*
X146660960Y-96741000D01*
X134700530Y-96741000D01*
X134617317Y-96657641D01*
X134396871Y-96566104D01*
X134158176Y-96565896D01*
X133937571Y-96657048D01*
X133768641Y-96825683D01*
X133677104Y-97046129D01*
X133676896Y-97284824D01*
X126719000Y-97284824D01*
X126719000Y-96064824D01*
X135046896Y-96064824D01*
X135138048Y-96285429D01*
X135306683Y-96454359D01*
X135527129Y-96545896D01*
X135765824Y-96546104D01*
X135986429Y-96454952D01*
X136070528Y-96371000D01*
X143337000Y-96371000D01*
X143472657Y-96344016D01*
X143499641Y-96338649D01*
X143637520Y-96246520D01*
X148138039Y-91746001D01*
X148255824Y-91746104D01*
X148476429Y-91654952D01*
X148645359Y-91486317D01*
X148736896Y-91265871D01*
X148737104Y-91027176D01*
X148645952Y-90806571D01*
X148477317Y-90637641D01*
X148256871Y-90546104D01*
X148018176Y-90545896D01*
X147797571Y-90637048D01*
X147628641Y-90805683D01*
X147537104Y-91026129D01*
X147537000Y-91144960D01*
X143160960Y-95521000D01*
X136070530Y-95521000D01*
X135987317Y-95437641D01*
X135766871Y-95346104D01*
X135528176Y-95345896D01*
X135307571Y-95437048D01*
X135138641Y-95605683D01*
X135047104Y-95826129D01*
X135046896Y-96064824D01*
X126719000Y-96064824D01*
X126719000Y-94694824D01*
X140426896Y-94694824D01*
X140518048Y-94915429D01*
X140686683Y-95084359D01*
X140907129Y-95175896D01*
X141145824Y-95176104D01*
X141366429Y-95084952D01*
X141535359Y-94916317D01*
X141626896Y-94695871D01*
X141627000Y-94577040D01*
X144733040Y-91471000D01*
X145853470Y-91471000D01*
X145936683Y-91554359D01*
X146157129Y-91645896D01*
X146395824Y-91646104D01*
X146616429Y-91554952D01*
X146785359Y-91386317D01*
X146876896Y-91165871D01*
X146877104Y-90927176D01*
X146785952Y-90706571D01*
X146617317Y-90537641D01*
X146396871Y-90446104D01*
X146158176Y-90445896D01*
X145937571Y-90537048D01*
X145853472Y-90621000D01*
X144557000Y-90621000D01*
X144394359Y-90653351D01*
X144256480Y-90745480D01*
X141025961Y-93975999D01*
X140908176Y-93975896D01*
X140687571Y-94067048D01*
X140518641Y-94235683D01*
X140427104Y-94456129D01*
X140426896Y-94694824D01*
X126719000Y-94694824D01*
X126719000Y-90316000D01*
X180321000Y-90316000D01*
X180321000Y-112376000D01*
M02*
