M48
;DRILL file {KiCad 4.0.7-e2-6376~58~ubuntu16.04.1} date Thu Oct 19 04:40:13 2017
;FORMAT={-:-/ absolute / metric / decimal}
FMAT,2
METRIC,TZ
T1C0.300
T2C0.400
T3C0.600
T4C1.220
T5C0.889
T6C4.160
%
G90
G05
M71
T1
X128.247Y-97.146
X129.147Y-99.746
X130.347Y-95.846
X130.647Y-97.946
X130.708Y-104.013
X131.047Y-101.946
X131.047Y-105.946
X135.661Y-99.606
X135.687Y-101.651
X135.7Y-103.772
X136.792Y-102.768
X136.817Y-100.711
X137.833Y-99.606
X137.858Y-101.676
X137.897Y-103.797
X139.446Y-107.569
X140.653Y-101.448
X141.147Y-105.346
X158.75Y-111.252
X160.515Y-111.493
X168.315Y-111.143
X171.147Y-91.421
X172.747Y-91.746
X173.847Y-92.871
T2
X130.124Y-107.62
X132.427Y-107.746
X134.277Y-97.166
X135.647Y-95.946
X136.233Y-107.671
X141.027Y-94.576
X141.857Y-98.326
X143.557Y-103.316
X145.937Y-108.626
X146.277Y-91.046
X146.857Y-94.046
X148.137Y-91.146
X148.727Y-100.856
X148.895Y-109.753
X149.397Y-96.546
X150.507Y-92.386
X150.857Y-95.736
X151.537Y-98.856
X152.217Y-94.726
X153.767Y-102.646
X155.473Y-106.274
X155.507Y-95.006
X155.557Y-93.386
X159.436Y-110.211
X160.647Y-99.576
X160.887Y-101.876
X160.997Y-95.106
X162.467Y-95.906
X164.197Y-95.856
X168.199Y-99.416
X168.796Y-103.035
X169.037Y-109.22
X169.497Y-108.316
X169.577Y-93.846
X173.647Y-100.152
X173.647Y-101.524
T3
X164.196Y-98.806
X164.196Y-103.886
X166.736Y-101.346
T5
X163.458Y-91.756
X166.456Y-91.756
T6
X117.602Y-93.726
X117.602Y-108.966
X177.292Y-93.726
X177.292Y-108.966
T4
X171.704Y-94.236G85X171.704Y-97.026
G05
X171.704Y-105.666G85X171.704Y-108.456
G05
T0
M30
